<svg xmlns="http://www.w3.org/2000/svg" version="1.1" xmlns:xlink="http://www.w3.org/1999/xlink" xmlns:svgjs="http://svgjs.dev/svgjs" viewBox="0 0 800 800"><defs><linearGradient x1="50%" y1="0%" x2="50%" y2="100%" id="ssscribble-grad"><stop stop-color="hsl(234, 84%, 22%)" stop-opacity="1" offset="0%"></stop><stop stop-color="hsl(331, 90%, 56%)" stop-opacity="1" offset="100%"></stop></linearGradient></defs><g fill="none" stroke-width="1" stroke="url(#ssscribble-grad)" stroke-linecap="round"><path d="M563.08 384.34C503.86 407.64 521.76 420.98 604.09 425.16 725.52 429.59 841 425.57 916.67 414.94 938.43 406.73 899.41 395.36 815.66 384.77 703.64 382.77 589.58 388.28 492.54 406.09 417.6 439.38 373.57 489.26 355.47 555.87 359.75 633.87 376.08 720.44 394.36 806.89 427.63 910.39 441.84 941.05 414.31 849.91 391.01 761.42 353.98 669.01 304.87 586.62 256.11 523.97 196.82 487.44 131.62 477.96 72.96 495.5 18.26 532.14 -21.92 579.39 -39.73 635.86 -29.15 688.72 15.24 732.03 81.75 769.12 168.18 791.48 255.94 799.59 315.43 798.81 333.55 786.74 294.71 766.91 201.97 742.15 73.23 714.07 -57.19 685.81 -148.5 656.3 -171.13 629.09 -111.91 605.79 7.73 582.49 145.58 564.2 256.03 549.77 308.78 534.09 293.14 519.79 223.19 504.17 118.07 483.63 15.04 457.33 -59.52 422.2 -96.68 378.18 -85.95 322.37 -36.67 254.75 42.56 180.91 134.97 100.42 225.7 19.69 315.06 -51.81 389.37 -109.36 447.31 -143.98 496.72 -151.58 533.81 -128.33 562.9 -74.68 588.93 -1.29 612.57 86.39 635.87 174.87 670.1 268.4 716.43 264.74 710.05 184.95 692.49 115.57 656.55 49.9 603.1 -3.83 548.28 -46.18 489.32 -68.44 440.62 -71.2 421.88 -58.47 438.78 -30.53 500.19 7.37 599.02 53.87 722.95 103.62 845.14 152.2 932.18 203.21 961.08 249.61 917.31 289.12 815.86 328.89 682.73 361.04 563.08 384.34Q563.08 384.34 563.08 384.34" opacity="0.34"></path><path d="M541.03 297.72C483 319.46 491.92 332.82 559.28 338.77 666.98 345.35 778.68 345.88 864.57 342.53 910.55 342.45 903.69 342.16 851.57 345.25 764.83 356.81 662.54 377.04 562.77 409.18 470.92 453.71 400.51 511.89 352.67 582.41 323.52 659.24 310.76 740.01 306.83 816.89 314.05 903.5 309.59 914.61 282.93 827.3 261.18 744.99 228.56 658.43 187.54 579.25 148.24 515.52 104.34 473.24 61.61 454.14 27.86 458.92 4.8 482.24 0.43 517.7 14.76 564.66 53.94 612.29 117.3 654.89 188.57 695.63 265.07 725.47 329.16 743.5 358.64 755.37 346 756.39 284.08 748.68 182.25 736.85 58.18 719.59 -57.91 699.31 -133.66 677.85 -146.99 655.64 -88.96 633.89 21.77 612.14 150.87 591.89 260.52 572.35 324.48 551.61 329.77 529.31 283.34 503.46 197.16 473.49 100.2 436.66 16.34 391.27 -45.24 339.74 -68.5 278.67 -55.33 209.44 -11.46 138.33 54.22 64.91 128.83 -4.68 211.4 -62.79 288.16 -105.62 353.9 -126.34 416.45 -123.19 466.81 -93.29 505.94 -37.97 543.1 32.8 572.23 114.95 593.98 197.26 622.39 286.79 629.39 300.89 599.12 236.41 571.06 175.47 530.12 114.2 481.07 60.01 422.74 -4.06 429.99 -34.43 538.75 -6.98 645.25 23.44 761.72 59.54 863.83 97.3 926.21 138.34 933.29 177.37 877.72 211.8 776.46 246.87 651.77 275.97 541.03 297.72Q541.03 297.72 541.03 297.72" opacity="0.67"></path><path d="M518.53 225.88C462.4 246.07 463.73 260.37 517.06 269.68 609.99 279.82 714.04 286.65 804.05 292.22 867.44 301.28 888.11 312.5 867.3 328.73 811.18 352.39 731.19 384.82 642.33 427.8 549.41 479.74 466.94 542.09 400.13 612.61 345.12 685.18 306.19 757.98 279.39 824.2 254.41 894.13 217.47 887.91 190.1 804.8 169.91 728.63 144.82 648.1 117.21 572.74 91.82 509.12 68.3 462.69 51.68 435.63 43.48 428.98 49.17 439.51 73.05 462.64 108.74 498.19 162.22 537.53 228.67 575.55 291.06 615.13 347.11 647.54 382.21 670.92 382 690.89 343.21 701.28 265.02 702.92 160.21 701.59 44.67 693.56 -56.05 680.37 -117.17 666.21 -122.59 648.67 -66.46 628.48 35.26 608.28 155.14 586.4 262.32 562.47 334.71 537.58 358.48 508.88 335.32 475.22 271.61 438.59 188.28 394.95 105.28 343.86 30.47 289.36 -17.83 227.95 -36.18 161.91 -28.39 97.43 4.29 34.14 52.63 -22.43 114.24 -66.59 178.66 -95.23 238.92 -103.39 300.88 -91.14 353.93 -56.21 396.13 -0.39 437.79 67.16 469.08 143.6 489.27 219.76 513.54 304.94 501.75 334.56 466.63 285.18 441.36 233.77 410.2 179.08 379.71 127.53 362.49 78.03 358.8 39.62 377.47 14.14 422.29 -2.36 494.54 -5.8 590.37 1.65 694.4 16.54 795.84 38.57 874.35 64.51 912.31 93.93 900.04 123.84 835.44 151.78 736.05 180.55 620.26 205.69 518.53 225.88Q518.53 225.88 518.53 225.88" opacity="0.31"></path><path d="M495.58 179.15C442 197.79 437.07 213.44 477.5 226.79 555.27 240.99 648.67 254.54 737.35 269.09 811.05 286.8 852.89 308.32 859.87 335.58 835.19 368.65 783.43 409.76 715.52 459.46 635.49 514.78 555.81 577.29 483.66 644.28 415.67 710.06 359.98 773.27 316.27 828.22 278.33 869.81 248.88 894.41 225.17 897.79 203.4 880.61 183.8 841.31 165.16 782.41 146.52 712.37 129.73 638 116.34 567.03 104.9 504.64 100.44 455.62 106.08 422.36 117.49 405.96 142.48 404.8 181.75 415.81 225.16 439.08 278.09 468.09 333.69 498.54 377.16 532.94 406.83 563.47 412.09 587.77 385.71 611.08 327.15 626.6 239.79 634.14 137.45 639.95 33.44 638.67 -51.52 630.96 -99.15 622.6 -97.99 608.97 -44.41 590.33 48.25 571.69 158.48 548.93 261.56 522.14 339.47 494.7 378.63 462.08 377.19 423.97 337.55 384.13 273.43 337.91 200.23 285.87 123.79 232.85 61.86 175.56 21 116.73 -1.55 61.84 -1 10.73 17.58 -31.95 50.43 -62.37 92.28 -77.93 136.5 -75.2 185.56 -55.61 230.77 -17.21 268.57 37.97 307.01 101.75 336.37 172.34 355.01 242.37 373.14 344.21 329.2 266.13 319.5 196.51 329.63 148.93 355.85 108.52 402.84 77.63 468.13 52.36 552.17 38.01 648.01 33.66 740.62 35.13 821.45 44.31 874.76 58.9 889.86 76.65 861.3 97.01 790.59 117.97 694.71 139.76 588.26 160.51 495.58 179.15Q495.58 179.15 495.58 179.15" opacity="0.88"></path><path d="M473.12 164.04C413.7 198.21 507.48 232.97 665.67 274.69 803.19 326.35 833.28 400.44 768.91 500.51 642.36 611.17 508.37 730.8 405.37 828.17 311.68 876.18 250.13 855.14 215.96 759.9 181.79 627.98 178.22 500.65 212.69 413.95 256.46 380.05 337.12 392.53 418.89 428.12 438.47 484.62 372.14 529.47 209.56 549.49 26.33 567.13 -81.29 558.89 -21.87 524.71 163.07 490.55 341.25 433.68 407.39 356.83 344.21 277.58 216.68 179.41 108.86 78.11 38.27 -2.26 38.07 -50.99 78.45 -42.15 141.84 19.48 201.79 132.95 235.97 264.86 270.14 360.13 275.3 395.03 271.13 372.08 289.98 299.76 343.51 216.37 458.88 150.49 693.38 84.83 740.24 114.69 473.12 164.04Q473.12 164.04 473.12 164.04" opacity="0.95"></path><path d="M450.58 182.84C389.38 213.91 457.04 254.58 592.13 307.38 734.17 366.88 803.22 447.59 790.45 546.96 716.05 647.75 612.37 748.77 519.5 823.75 423.93 854.45 357.34 826.46 326.28 737.41 295.21 617.89 302.61 499.04 344.34 410.27 383.37 361.81 438.57 352.93 472.25 368.31 444.31 406.18 342.31 440.89 177.5 458.34 19.64 476.88 -60.61 472.26 0.58 441.2 166.73 410.14 337.58 355.57 425.78 283.2 407.26 211.91 315.84 128.72 215.85 50.12 122.53 -5.97 80.69 -30.04 82.52 -4.37 103.8 61.61 138.88 167.86 169.94 287.37 201.02 376.44 225.13 417.03 257.68 409.11 309.68 356.91 399.99 288.84 534.02 228.76 736.92 153.99 695.9 142.51 450.62 182.83Q450.58 182.84 450.58 182.84" opacity="0.19"></path><path d="M428.12 232.83C366.55 260.79 410.46 304.17 519.3 362.09 653.27 423.52 745.12 503.09 774.02 594.27 752.91 680.56 692.26 760.98 624.91 814.54 547.53 830.2 488.51 797.2 460.55 714.9 432.59 607.81 438.34 498.68 467.27 410.91 486.17 352.35 503.18 325.78 487.65 322.28 422.1 339.9 300.6 360.35 146.12 370.75 16.79 384.41 -38.44 379.7 23.12 351.74 170.53 323.79 330.2 275.22 432.47 213.11 452.89 154.26 403 90.17 326.89 35.9 235.59 2.76 173.89 -0.32 150.03 37.73 137.92 104.99 150.45 202.78 178.41 309.86 206.37 392.19 247.11 436.53 307.67 441.37 379.98 408.31 485.33 357.54 613.27 307.9 726.02 253.37 805.57 217.42 805.64 204.45 723.87 194.98 575.53 204.87 428.12 232.83Q428.12 232.83 428.12 232.83" opacity="0.87"></path><path d="M405.58 306.85C345.22 331.7 368.44 374.21 449.93 431.07 565.88 488.86 664.08 560.6 719.73 637.89 742.3 706.81 725.34 766.27 689.92 800.34 642.57 803.52 599.98 767.43 575.13 692.41 550.27 597.73 545.51 499.35 549.79 415.42 542.14 351.31 520.31 311.63 465.17 292.23 376.95 290.63 252.38 295.42 118.22 296.39 18.51 301.49 -14.77 294.09 45.58 269.24 174.42 244.38 319.71 204.43 428.14 156.26 478.91 112.22 469.58 68.64 426.47 37.67 356.93 24.49 297.55 37.81 264.82 83.7 235.62 149.41 233.79 237.7 258.64 332.37 283.49 407.41 332.69 453.58 404.95 468.63 480.75 452.78 578.92 419.68 681.03 383.34 756.72 338.61 792.4 305.66 759.85 290.94 669.63 277.14 534.42 281.99 405.58 306.85Q405.58 306.85 405.58 306.85" opacity="0.70"></path><path d="M383.12 394.23C325.38 415.98 331.35 454.32 386.3 504.8 477.61 554.49 567.88 613.55 633.8 673.52 692.11 743.88 666.52 755.75 633.08 669.9 611.33 587.58 593.3 500.82 571.68 423.24 540.36 357.98 489.32 310.23 411.06 279.15 316.64 261.56 203.3 251.91 96.05 243.24 25.16 238.53 10.38 227.25 68.12 205.5 178.68 183.76 306.97 153.61 414.09 120.62 497.11 79.47 443.95 71.32 397.5 132.98 368.73 194.62 362.79 272.55 384.54 354.86 406.29 422.09 453.66 468.2 520.11 490.72 584.12 489.38 658.32 472.84 723.52 450.78 760.7 419.31 759.07 394.19 704.34 382.19 613.16 369.4 493.68 372.49 383.12 394.23Q383.12 394.23 383.12 394.23" opacity="0.77"></path><path d="M360.79 482.41C307.08 501.05 299.59 532.79 330.54 573.18 394.26 611.96 466.17 655.77 527.55 697.39 585.81 730.38 621.29 752.55 634.17 756.36 641.5 742.9 634.07 706.26 615.44 647.36 596.8 577.32 568.71 502.81 529.08 433.7 483.89 371.34 419.33 320.65 336.64 282.83 250.82 254.08 159.14 233.3 81.76 216.69 37.15 203.24 37.08 188.32 90.79 169.68 183.54 151.04 293.02 130.44 392.26 111.6 471.78 95.9 519.98 87.59 540.28 91.91 537.64 105.3 524.3 136.22 513.83 184.92 498.26 240.37 496.65 307.32 515.29 377.36 533.93 436.26 571.06 480.45 618.92 507.58 682.91 516.23 721.11 481.92 641.04 468.09 555.46 460 453.54 463.77 360.79 482.41Q360.79 482.41 360.79 482.41" opacity="0.29"></path><path d="M338.08 558.84C276.88 589.9 331.88 651.39 416.54 706.74 517.98 735.31 559.34 713.96 528.27 624.91 497.2 505.38 399.59 385.35 257.44 301.95 132.07 239.49 51.88 198.09 113.08 167.03 279.24 135.96 449.61 121.1 541.1 142.85 573.81 185.53 578.02 280.38 609.09 399.91 640.15 488.96 692.19 535.49 700.2 547.64 649.43 533.01 504.24 527.77 338.08 558.84Q338.08 558.84 338.08 558.84" opacity="0.30"></path><path d="M315.58 612.39C262.63 655.68 405.42 692.34 399.46 602.41 374.6 507.73 291.83 408.79 188.28 333.87 110.19 268.77 75.22 222.65 135.58 197.8 264.42 172.95 408.17 174.06 505.68 206.59 574.09 248.94 610.08 327.73 634.94 422.41 659.79 497.42 668.79 547.41 632.96 572.35 568.03 579.43 444.42 587.53 315.58 612.39Q315.58 612.39 315.58 612.39" opacity="0.16"></path><path d="M293.08 635.42C237 672.69 308.09 680.75 270.82 579.91 233.54 435.64 102 294.89 158.08 257.62 361.75 220.34 547.45 300.64 584.73 444.91 622 545.75 496.75 598.14 293.08 635.42Q293.08 635.42 293.08 635.42" opacity="0.86"></path><path d="M270.58 624.63C210.22 649.48 208.85 632.42 184 557.41 159.14 462.71 120.22 362.75 180.58 337.9 309.45 313.04 449.87 372.71 474.73 467.41 499.58 542.42 399.45 599.77 270.58 624.63Q270.58 624.63 270.58 624.63" opacity="0.31"></path></g></svg>