<svg xmlns="http://www.w3.org/2000/svg" version="1.1" xmlns:xlink="http://www.w3.org/1999/xlink" xmlns:svgjs="http://svgjs.dev/svgjs" viewBox="0 0 800 800"><defs><linearGradient x1="50%" y1="0%" x2="50%" y2="100%" id="ssscribble-grad"><stop stop-color="hsl(234, 84%, 22%)" stop-opacity="1" offset="0%"></stop><stop stop-color="hsl(331, 90%, 56%)" stop-opacity="1" offset="100%"></stop></linearGradient></defs><g fill="none" stroke-width="1" stroke="url(#ssscribble-grad)" stroke-linecap="round"><path d="M569.31 340.26C588.52 365.11 676.91 378.16 792.19 381.01 892.15 385.11 933.39 382.03 905.48 376.56 820.34 379.13 706.6 388.64 598.33 412.91 516.31 455.78 476.92 520.22 476.77 605.26 510.52 697.98 559.29 791.15 606.91 866.07 653.86 905.08 683.64 898.27 695.19 842.43 697.39 756.74 685.83 660.17 665.96 585.29 642.85 563.63 617.45 603.61 592.6 696.88 567.75 812.64 544.62 905.33 520.85 944.97 493.85 923.47 460.2 847.17 414.93 742.37 360.31 634.7 289.6 551.49 204.35 506.25 118.42 502.21 33.97 531.27 -32.34 577.98 -64.76 636.62 -54.84 687.1 1.29 721.2 83.68 743.45 175.14 745.99 242.06 733.25 251.75 711.01 196.37 681.32 86.82 649.93 -38.05 616.12 -131.47 585.48 -150.68 560.63 -87.05 535.77 31.21 517.88 152.83 504.82 233.51 489.34 247.21 473.82 199.11 452.99 107.93 422.67 13.88 379.21 -51.99 318.66 -77.67 246.26 -53.64 160.1 7.75 68.89 95.41 -10.4 189.13 -68.93 274.09 -90.78 349.92 -71.43 406.6 -10.52 446.59 78.93 475.31 165.51 495.44 227.68 513.2 239.6 527.86 190.39 546.31 92.68 571.16 -23.07 596.01 -116.36 626.09 -151.32 658.31 -120.08 687.41 -35.63 712.5 75.08 726.85 178.99 729.93 253.06 714.18 282.17 676.65 269.04 630 220 571.96 156.29 516.88 96.15 488.05 43.68 493.49 14.92 545.04 10.35 636.8 24.39 753.14 55.8 862.53 96.3 928.85 144.84 929.29 193.13 858.2 235.9 746.18 279.92 632.94 315.4 569.31 340.26Q569.31 340.26 569.31 340.26" opacity="0.93"></path><path d="M546.8 252.75C562.38 276.05 640.25 291.77 746.67 301.8 847.6 313.82 903.57 324.22 900.12 337.74 841.74 359.62 746.07 392.12 640.79 439.92 544.53 500.64 477.63 577.03 444.67 664.03 444.28 747.54 467.1 821.07 499.97 869.12 542.29 881.45 577.71 852.72 600.8 785.41 620.21 700.41 625.87 614.14 619.68 553.46 611.26 542.45 594.66 585.58 571.36 674.39 548.06 783.04 519.16 873.19 483.65 918.93 445.89 911.89 397.84 853.32 338.06 762.48 274.59 659.4 200.81 568.25 122.57 504.43 53.79 473.72 -2.47 475.58 -32.61 500.32 -30.19 544.02 9.07 590.28 81.07 629.4 199.47 675.23 229.92 684.65 85.38 660.6 -30.02 640.03 -112.61 617.08 -128.19 593.79 -70.63 570.49 37.5 547.93 154.14 524.56 241.75 498.88 274.25 468.09 249.81 428.7 178.67 382.39 91.12 323.51 15.05 252.02 -36.75 176.99 -47.56 97.29 -20.78 23.04 36.56 -32.24 111.89 -61.73 190.88 -55.29 272.04 -15.74 342.26 54.5 398.8 140.5 448.44 214.27 486.72 259.58 517.09 257.65 544.73 202.94 569.33 108.08 592.63 -0.56 615.93 -89.38 636.82 -127.82 653.13 -107.83 666.7 -38.17 670.8 61.36 661.54 163.44 645.37 247.84 613.53 297.47 568.28 309.41 525.2 285.62 483.32 239.71 456.51 186.74 460.27 130.28 498.71 87.33 574.77 62.52 675.1 50.64 783.55 56.5 871.77 75 913.29 101.86 894.05 133.84 815.43 165.76 707.78 199.68 604.37 229.45 546.8 252.75Q546.8 252.75 546.8 252.75" opacity="0.39"></path><path d="M524.4 208.37C536.31 230.12 603.74 249.96 700.3 269.37 799.35 290.81 866.11 315.64 884.22 347.27 853.09 385.49 780.94 435.01 688.29 497.1 590.18 565.17 506.93 641.52 448.12 718.9 410.73 809.24 450.79 820.58 484.59 724.89 513.52 607.49 515.3 544.94 488.17 651.78 466.42 753.25 434.75 840.15 393.63 890.47 351.77 896.21 299.75 854.99 239.37 780.12 180.74 686.58 119.22 594.38 62.52 518.89 20.81 466.83 -2.06 443.04 2.65 443.11 32.96 464.66 90.42 496.4 165.89 529.19 235.9 565.54 288.54 593.14 303.73 609.43 269.68 622.45 190.54 624.38 83.1 616.81 -21.85 607.63 -93.68 591.66 -105.59 569.91 -53.53 548.17 44.58 521.68 154.75 489.85 245.96 456.42 293.62 414.93 291.31 364.23 242.92 310.25 169.34 246.84 93.55 176.98 26.88 110.66 -10.77 47.7 -16.19 -2.34 6.73 -30.93 53.63 -32.93 113.26 -3.52 183.16 49.3 251.33 122 311.77 199.61 370.63 258.54 419.2 287.4 457.63 273.28 494.51 214.59 523.64 123.29 545.38 21.82 567.13 -62.31 580.46 -103.36 584.59 -93.54 587.17 -38.44 578.16 48.14 556.99 144.38 534.23 233.41 501.89 298.13 465.5 331.97 439.38 333.96 423.71 310.79 429.28 273.43 463.2 224.55 526.65 179.41 615.96 144.86 714.4 116.29 807.47 102.58 871.8 102.04 890.05 108.11 854.77 122.83 771.96 142.4 670.17 164.01 576.46 186.62 524.4 208.37Q524.4 208.37 524.4 208.37" opacity="0.83"></path><path d="M501.9 220.34C510.8 240.54 568.48 264.14 654.64 291.79 749.06 320.95 822.12 356.79 857.38 400.76 851.4 448.41 805.09 505.48 732.13 570.44 643.56 634.94 556.78 700.53 483.35 759.56 425.55 802.8 388.95 825.9 370.22 821.69 367 791.97 372.7 736.36 380.54 662.93 397.87 560.13 398.39 526.6 373.63 629.28 353.44 723.52 323.14 806.52 284.29 859.91 246.06 876.55 200.99 851.65 152.83 793.77 109.99 713.59 71.04 626.57 43.14 546.72 30.75 480.5 38.35 435.91 69.69 412.72 116.65 409.56 179.49 420.61 247.04 438.64 298.98 464.83 327.17 488.62 318.35 505.8 268.29 523.22 183.74 531.43 81.52 529.84 -12.42 527.61 -74.19 516.41 -83.09 496.22 -36.61 476.03 51.38 447.8 153.9 411.95 245.94 375.47 305.34 330.53 323 278.11 298.41 225.94 244.21 168.89 177.72 111.58 107.69 62.42 53.82 22.37 23.42 -0.93 14.51 -4.21 29.87 16.42 62.6 61.61 109.26 120.43 161.98 189.33 213.8 254.72 268.5 297.8 316.8 311.22 356.26 286.81 395.55 225.64 425.75 138.57 445.94 44.32 470.75 -56.32 467 0.54 441.51 123.88 424.68 212.12 405.22 285.84 389.68 336.6 388.08 361.84 401.7 362.67 437.09 345.9 493.95 313.35 571.76 276.74 662.81 243.36 786.49 197.61 835.22 164.52 727.02 173.89 632.29 184.33 548.38 200.15 501.9 220.34Q501.9 220.34 501.9 220.34" opacity="0.17"></path><path d="M479.3 285.15C485.78 303.79 534.46 329.31 609.97 361.45 697.56 394.3 772.75 434.84 820.31 482.64 835.71 531.06 814.78 585.43 765.36 642.46 694.88 694.39 616.19 741.67 540.52 777.6 470.3 797.08 414.37 796.49 373.57 772.36 344.9 730.19 327.73 670.34 317.4 601.34 311.79 515.9 293.15 509.01 268.98 606.89 250.34 693.86 225.01 772.33 194.86 827.32 166.14 852.84 135.57 842.72 107.21 801.89 85.24 737.6 71.71 660.9 71.66 583.62 83.73 511.22 112.89 452.9 158.69 411.27 209.93 385.47 266.51 374.46 317.58 373.58 347.6 382.58 351.81 394.31 322.75 404.24 261.52 416.97 175.73 423.87 80.94 422.94 -1.75 422.26 -54.21 412.98 -60.69 394.34 -19.8 375.71 58.05 348.59 151.88 314.12 242.07 279.9 309.47 239.1 343.9 194.07 342.18 151.83 310.32 109.41 260.06 71.67 197.32 43.82 139.11 28.06 94.4 29.42 62.08 46.61 49.89 82.84 55.25 135.82 73.86 193.7 103.29 253.68 137.61 304.31 177.29 331.48 215.69 331.01 249.15 298.31 283.52 236.14 310.85 153.9 329.48 66.93 352.66 -29.07 357.42 -0.63 347.81 103.76 345.78 186.42 347.05 262.99 357.17 324.58 380.54 368.12 419.49 390.81 476.24 395.76 545.38 384.27 625.69 363.74 707.84 340.55 801.79 300.41 792.31 253.64 680.91 252.62 594.28 255.64 520.19 266.51 479.3 285.15Q479.3 285.15 479.3 285.15" opacity="0.78"></path><path d="M456.81 383.57C504.05 417.74 649.82 483.03 773.54 570.02 808.94 650.19 732.81 728.65 607.32 767.77 470.35 750.8 370.7 665.69 311.27 541.81 272.83 460.98 244.88 469.26 210.71 584.38 176.54 740.87 139.37 827.3 118.59 802.92 118.8 691.22 165.12 549.49 257.3 436.41 338 363.66 377.88 336.33 317.44 327.83 168.67 334.93 9.05 328.18 -38.18 294.01 65.99 259.84 238.11 201.48 353.99 135.16 359.36 84.43 278.6 58.43 185.94 86.38 97.19 207.4 179.79 296.03 238.89 89.42 273.07 -25.72 288.32 -20.17 302.74 85.69 339.13 234.63 412.38 355.98 535.96 417.75 731.92 410.85 640.13 349.48 456.81 383.57Q456.81 383.57 456.81 383.57" opacity="0.15"></path><path d="M434.3 486.83C471.12 517.89 596.23 573 718.68 638.97 784.74 693.35 756.33 732.73 668.19 729.28 547.85 684.73 439.25 592.5 361.7 486.2 295.98 430.26 251.4 453.08 220.33 561.89 189.26 705.24 174.66 795.64 186.54 796.02 210.25 717.94 270.36 596.68 349.99 482.19 397.41 386.27 392.87 327.26 304.04 293.59 158.82 274.79 21.12 255.88 -15.69 224.81 74.19 193.75 229.95 153.47 353.9 118.43 396.22 98.25 356.66 108.77 284.66 163.97 168.54 294.33 253.56 -2.02 316.86 71.54 379.71 200.62 477.2 325.8 602.84 411.08 715.57 455.25 788.08 464.34 768.56 463.81 667.39 451.67 524.23 455.75 434.31 486.82Q434.3 486.83 434.3 486.83" opacity="0.24"></path><path d="M411.81 564.56C439.23 592.52 543.17 631.74 657.55 670.02 742.58 696.41 755.28 700.22 709.24 665.47 623.3 606.7 528.47 519.56 450.69 436.08 375.06 403.64 322.36 437.87 294.4 539.38 266.44 669.12 265.87 760.1 293.05 780.53 322.38 735.19 373.57 641.91 422.86 539.39 432.26 437.61 389.9 360.13 284.38 307.89 149.5 266.28 34.23 235.01 6.81 207.05 83.18 179.09 220.54 157.09 344.86 150.25 414.81 154.03 415.77 187.88 375.36 253 306.46 318.88 251.1 382.51 225.53 407.36 207.25 366.44 214.72 264.16 242.68 134.42 270.64 32.89 316.44 9.97 383.17 62.9 457.2 166.86 556.19 283.67 661.73 379.09 738.79 450.49 767.48 490.32 718.03 512.38 614.21 522.55 488.18 536.61 411.81 564.56Q411.81 564.56 411.81 564.56" opacity="0.53"></path><path d="M389.3 593.99C408.54 618.84 491.63 641.27 592.55 653.22 684.67 656.17 727.31 634.67 720.02 583.51 675.99 523.58 610.66 451.05 548.21 392.83 481.04 381.26 431.11 423.62 406.26 516.89 382.69 676.83 440.73 709.07 465.46 597.15 440.17 505.41 371.18 425.03 260.84 364.99 141.7 310.1 48.54 270.81 29.3 245.96 92.91 221.11 210.62 213.04 328.45 224.85 415.23 241.83 450.25 283.42 444.5 342.58 406 390.87 364.08 426.64 338.66 424.54 312.7 371.1 310.94 272.69 335.79 156.93 360.65 63.64 409.76 31.34 478.79 61.11 547.29 137.54 627.99 236.44 699.06 328.94 737.38 412.68 728.72 472.96 660.16 513.09 560.55 544.21 452.91 569.13 389.3 593.99Q389.3 593.99 389.3 593.99" opacity="0.20"></path><path d="M366.81 566.42C379.02 588.17 442.25 597.23 525.97 590.56 614.55 579.03 673.77 545.78 695.72 493.15 690.66 442.7 660.29 390.69 621.89 357.42 576.07 363.09 537.7 410.25 515.95 494.38 494.21 595.86 491.15 678.71 499.28 723.28 499.99 730.87 496.42 698.86 472.98 644.52 422.53 574.25 340.25 504.84 235.73 448.37 136.06 392.38 64.02 351.84 51.81 330.09 103.59 308.35 201.13 307.45 306.82 325.75 399.33 344.54 457.79 380.01 482.35 421.78 478.51 447.62 461.76 456.56 449.04 433.04 431.23 372.54 430.1 280.89 451.84 179.42 473.59 95.27 516.16 56.91 571.66 67.17 622.05 116.38 672.75 191.45 705.08 270.4 709.03 351.54 673.63 418.73 597.07 467.95 507.32 512.3 418.59 544.67 366.81 566.42Q366.81 566.42 366.81 566.42" opacity="0.21"></path><path d="M344.35 489.94C350.7 508.58 395.72 510.15 460.3 495.52 536.89 479.7 599.47 447.67 637.7 405.46 660.53 356.42 614.24 373.37 584.09 471.84 565.45 558.81 552.97 633.63 541.33 682.18 523.1 706.55 494.08 700.03 446.79 672.05 384.13 628.51 301.77 579.08 211.52 534.95 133.28 488.53 80.7 453.36 74.35 434.72 115.36 416.08 193.05 415.74 282.5 429.85 370.65 441.68 440 462.02 485.02 481.13 510.55 484.68 520.54 471.43 525.64 433.4 524.68 371.18 530.58 288.81 549.22 201.84 567.86 127.7 597.47 86.61 630.73 81.73 657.94 106.54 677.04 155.83 675.94 214.54 655.34 281.18 605.77 342.3 531.28 390.42 455.5 437.35 385.36 471.3 344.35 489.94Q344.35 489.94 344.35 489.94" opacity="0.09"></path><path d="M321.8 387.13C358.62 418.19 469.79 388.4 554.09 331.26 616.38 309.93 617.19 340.58 586.12 449.39 555.05 592.75 498 673.88 394.99 673.4 269.98 626.11 133.62 560.29 96.8 529.22 186.71 498.15 341.25 507.72 454.66 514.3 528.45 474.06 562.25 367.75 593.32 224.39 624.38 115.58 646.84 110.11 613.76 172.16 541.07 270.01 411.71 356.06 321.8 387.13Q321.8 387.13 321.8 387.13" opacity="0.53"></path><path d="M299.3 288.04C318.54 312.89 391.05 300.21 456.72 279.04 523.71 286.61 546.36 333.62 521.51 426.89 496.65 542.66 429 622.25 329.44 645.88 231.2 641.13 138.54 610.58 119.3 585.73 182.91 560.87 299.51 546.42 399.95 518.6 488.27 462.4 543.07 362.66 567.93 246.89 592.78 153.62 582.97 126.76 527.23 151.76 459.36 205.51 362.91 263.19 299.3 288.04Q299.3 288.04 299.3 288.04" opacity="0.16"></path><path d="M276.8 221.83C335.5 259.1 450.59 283.99 413.32 404.39 376.04 573.48 200.5 624.95 141.8 587.68 260.81 550.4 445.05 438.48 482.33 269.39 519.6 148.99 395.81 184.55 276.8 221.83Q276.8 221.83 276.8 221.83" opacity="0.72"></path><path d="M254.3 207.95C273.54 232.8 325.21 288.62 300.36 381.89 275.5 497.68 183.54 559.37 164.3 534.52 227.93 509.66 342.35 407.68 367.21 291.89 392.06 198.62 317.93 183.09 254.3 207.95Q254.3 207.95 254.3 207.95" opacity="0.60"></path></g></svg>