<svg xmlns="http://www.w3.org/2000/svg" version="1.1" xmlns:xlink="http://www.w3.org/1999/xlink" xmlns:svgjs="http://svgjs.dev/svgjs" viewBox="0 0 800 800"><defs><linearGradient x1="50%" y1="0%" x2="50%" y2="100%" id="ccchaos-grad"><stop stop-color="	hsl(341, 81%, 47%)" stop-opacity="1" offset="0%"></stop><stop stop-color="hsl(206, 75%, 49%)" stop-opacity="1" offset="100%"></stop></linearGradient></defs><g stroke-width="2" stroke="url(#ccchaos-grad)" fill="none" stroke-linecap="round"><path d="M399.28 44.97Q408.72 52.98 418.16 61.18 427.62 69.41 437.08 77.57 446.55 85.5 456.02 93.09 465.5 100.22 475 106.8 484.5 112.74 494 118.01 503.52 122.59 513.04 126.51 522.57 129.82 532.11 132.6 541.66 134.96 551.21 137.06 560.77 139.02 570.34 141.04 579.91 143.26 589.48 145.86 599.06 148.99 608.64 152.76 618.23 157.29 627.82 162.63 637.4 168.83 646.99 175.86 656.58 183.68 666.17 192.19 675.76 201.28 685.35 210.77 694.93 220.5 704.51 230.26 704.65 241.37 704.78 252.49 704.88 263.6 704.95 274.71 704.99 285.82 704.99 296.93 704.97 308.05 704.91 319.16 704.83 330.27 704.72 341.38 704.58 352.49 704.43 363.61 704.26 374.72 704.08 385.83 703.9 396.94 703.72 408.05 703.56 419.17 703.4 430.28 703.27 441.39 703.16 452.5 703.07 463.61 703.02 474.72 703 485.84 703.01 496.95 703.05 508.06 703.12 519.17 703.22 530.28 703.34 541.39 703.49 552.51 703.65 563.62 699.21 579.23 685.18 581.4 675.77 579.2 666.36 577.49 656.94 576.62 647.52 576.89 638.09 578.57 628.66 581.86 619.23 586.87 609.78 593.66 600.34 602.18 590.88 612.32 581.42 623.87 571.95 636.57 562.47 650.1 552.99 664.1 543.49 678.15 533.99 691.88 524.48 704.88 514.97 716.79 505.44 727.31 495.91 736.17 486.37 743.2 476.82 748.3 467.27 751.48 457.71 752.81 448.14 752.47 438.57 750.71 429 747.85 419.42 744.28 409.83 740.41 400.25 736.66 390.83 722.78 381.42 710.04 372 698.77 362.57 689.22 353.14 681.56 343.71 675.87 334.27 672.13 324.82 670.25 315.37 670.02 305.91 671.2 296.44 673.46 286.97 676.42 277.48 679.68 267.99 682.84 258.49 685.49 248.99 687.28 239.47 687.86 229.95 686.98 220.42 684.43 210.88 680.11 201.34 673.99 191.78 666.1 182.23 656.6 172.66 645.68 163.09 633.62 153.52 620.73 143.94 607.37 134.36 593.9 124.77 580.71 115.18 568.14 105.59 556.52 96 546.1 95.83 535.54 95.65 524.97 95.49 514.41 95.34 503.84 95.22 493.28 95.12 482.71 95.05 472.15 95.01 461.58 95 451.02 95.02 440.45 95.07 429.89 95.16 419.32 95.27 408.75 95.4 398.19 95.56 387.62 95.72 377.06 95.9 366.49 96.08 355.93 96.26 345.36 96.43 334.8 96.58 324.23 96.72 313.67 96.83 303.1 96.91 292.54 96.97 281.97 96.99 271.4 96.99 260.84 96.95 250.27 96.88 239.71 96.78 229.14 101.29 212.06 115.35 203.63 124.76 202.08 134.17 200.7 143.58 199.3 152.99 197.7 162.4 195.71 171.82 193.18 181.23 189.99 190.64 186.06 200.06 181.32 209.48 175.76 218.91 169.42 228.34 162.36 237.77 154.66 247.21 146.45 256.66 137.88 266.11 129.09 275.57 120.25 285.04 111.52 294.52 103.04 304 94.95 313.5 87.35 323 80.33 332.5 73.95 342.02 68.21 351.55 63.12 361.08 58.62 370.62 54.66 380.16 51.13 394.5 46.45 399.28 44.97" stroke-dasharray="6 0" transform="rotate(0, 400, 400)"></path><path d="M399.16 55.77Q408.32 63.64 417.49 71.67 426.66 79.76 435.84 87.77 445.02 95.58 454.22 103.07 463.42 110.13 472.63 116.66 481.84 122.6 491.07 127.89 500.3 132.52 509.54 136.49 518.78 139.85 528.03 142.67 537.29 145.03 546.55 147.07 555.82 148.92 565.09 150.72 574.37 152.64 583.65 154.84 592.94 157.45 602.22 160.62 611.51 164.45 620.8 169.03 630.09 174.41 639.38 180.6 648.67 187.6 657.96 195.34 667.24 203.74 676.53 212.67 685.81 221.98 695.08 231.51 695.21 242.18 695.32 252.84 695.41 263.5 695.46 274.16 695.49 284.83 695.49 295.49 695.46 306.15 695.39 316.81 695.31 327.48 695.19 338.14 695.06 348.8 694.91 359.47 694.74 370.13 694.57 380.79 694.4 391.45 694.22 402.12 694.06 412.78 693.91 423.44 693.78 434.11 693.67 444.77 693.58 455.43 693.53 466.09 693.5 476.76 693.5 487.42 693.53 498.08 693.59 508.75 693.68 519.41 693.79 530.07 693.93 540.74 694.08 551.4 689.77 566.32 676.18 568.52 667.07 566.9 657.95 566.04 648.83 566.2 639.7 567.62 630.58 570.51 621.45 574.97 612.31 581.08 603.17 588.81 594.03 598.08 584.88 608.73 575.72 620.56 566.56 633.27 557.39 646.57 548.21 660.11 539.03 673.52 529.84 686.45 520.64 698.56 511.43 709.54 502.21 719.12 492.99 727.11 483.76 733.37 474.52 737.83 465.28 740.51 456.03 741.5 446.77 740.99 437.51 739.2 428.25 736.43 418.97 733.03 409.7 729.38 400.42 725.85 391.29 712.48 382.16 700.16 373.03 689.19 363.89 679.79 354.74 672.14 345.59 666.31 336.44 662.29 327.27 660.03 318.11 659.36 308.93 660.06 299.74 661.85 290.55 664.42 281.35 667.42 272.15 670.46 262.93 673.2 253.71 675.29 244.48 676.41 235.25 676.29 226 674.72 216.75 671.57 207.5 666.74 198.24 660.25 188.97 652.16 179.7 642.62 170.42 631.83 161.14 620.04 151.86 607.54 142.57 594.66 133.28 581.73 124 569.09 114.71 557.04 105.41 545.87 105.24 535.57 105.08 525.27 104.93 514.97 104.79 504.66 104.68 494.36 104.59 484.06 104.53 473.75 104.5 463.45 104.5 453.15 104.53 442.84 104.58 432.54 104.67 422.24 104.78 411.94 104.91 401.63 105.06 391.33 105.22 381.03 105.4 370.73 105.57 360.42 105.74 350.12 105.91 339.82 106.06 329.51 106.19 319.21 106.31 308.91 106.39 298.61 106.46 288.3 106.49 278 106.49 267.7 106.46 257.4 106.41 247.09 106.32 236.79 110.71 220.45 124.34 212.98 133.46 211.74 142.58 210.51 151.7 209.09 160.82 207.33 169.94 205.09 179.05 202.23 188.17 198.67 197.29 194.34 206.41 189.23 215.53 183.35 224.65 176.74 233.78 169.47 242.91 161.66 252.05 153.43 261.2 144.91 270.34 136.25 279.5 127.61 288.66 119.13 297.83 110.94 307 103.16 316.19 95.89 325.38 89.2 334.57 83.13 343.78 77.68 352.99 72.86 362.21 68.61 371.44 64.87 380.67 61.56 394.54 57.17 399.16 55.77" stroke-dasharray="11 0" transform="rotate(2.290322580645161, 400, 400)"></path><path d="M399.08 66.58Q407.95 74.29 416.84 82.16 425.73 90.08 434.62 97.94 443.53 105.62 452.44 113 461.36 119.98 470.28 126.47 479.21 132.4 488.15 137.72 497.1 142.39 506.05 146.43 515 149.86 523.97 152.73 532.93 155.12 541.91 157.14 550.88 158.91 559.86 160.56 568.85 162.23 577.83 164.08 586.82 166.25 595.81 168.87 604.8 172.05 613.79 175.9 622.78 180.48 631.77 185.84 640.76 191.98 649.74 198.88 658.72 206.5 667.7 214.73 676.68 223.47 685.65 232.58 685.77 242.79 685.87 253.01 685.94 263.23 685.98 273.45 685.99 283.67 685.98 293.89 685.94 304.11 685.87 314.33 685.78 324.55 685.67 334.77 685.53 344.99 685.38 355.21 685.22 365.43 685.06 375.65 684.89 385.87 684.72 396.09 684.57 406.31 684.42 416.53 684.29 426.75 684.18 436.96 684.1 447.18 684.04 457.4 684 467.62 684 477.84 684.02 488.06 684.07 498.28 684.15 508.5 684.25 518.72 684.37 528.94 684.51 539.16 680.33 553.55 667.18 556.24 658.36 555.43 649.54 555.56 640.71 556.84 631.89 559.45 623.06 563.51 614.23 569.07 605.39 576.15 596.56 584.68 587.71 594.53 578.87 605.54 570.01 617.47 561.15 630.06 552.29 643 543.42 655.98 534.54 668.68 525.66 680.77 516.77 691.98 507.87 702.03 498.96 710.71 490.05 717.86 481.13 723.38 472.21 727.24 463.27 729.47 454.33 730.16 445.39 729.5 436.43 727.69 427.48 725.02 418.51 721.79 409.54 718.35 400.57 715.05 391.73 702.18 382.89 690.28 374.04 679.61 365.18 670.39 356.32 662.76 347.46 656.81 338.58 652.56 329.71 649.94 320.82 648.84 311.93 649.07 303.03 650.41 294.12 652.57 285.2 655.25 276.28 658.12 267.35 660.86 258.42 663.14 249.48 664.67 240.53 665.19 231.58 664.47 222.62 662.36 213.65 658.74 204.68 653.57 195.71 646.87 186.73 638.73 177.75 629.27 168.76 618.71 159.78 607.26 150.79 595.2 141.8 582.82 132.81 570.41 123.82 558.28 114.83 546.7 114.66 536.65 114.51 526.6 114.37 516.55 114.25 506.49 114.15 496.44 114.07 486.39 114.02 476.34 114 466.29 114 456.24 114.04 446.19 114.1 436.14 114.18 426.09 114.29 416.03 114.42 405.98 114.57 395.93 114.72 385.88 114.89 375.83 115.06 365.78 115.22 355.73 115.38 345.68 115.53 335.63 115.67 325.58 115.78 315.53 115.87 305.48 115.94 295.42 115.98 285.37 115.99 275.32 115.98 265.27 115.94 255.22 115.87 245.17 120.13 229.46 133.33 222.69 142.16 221.6 150.99 220.35 159.82 218.78 168.64 216.77 177.47 214.18 186.29 210.94 195.11 206.98 203.93 202.26 212.76 196.79 221.58 190.6 230.41 183.75 239.24 176.33 248.07 168.45 256.91 160.23 265.75 151.81 274.59 143.32 283.44 134.91 292.3 126.7 301.16 118.83 310.03 111.38 318.9 104.45 327.78 98.08 336.67 92.33 345.56 87.18 354.46 82.63 363.37 78.63 372.29 75.11 381.21 72 394.61 67.89 399.08 66.58" stroke-dasharray="7 10" transform="rotate(4.580645161290322, 400, 400)"></path><path d="M399.02 77.39Q407.62 84.93 416.22 92.63 424.82 100.38 433.44 108.08 442.06 115.62 450.68 122.89 459.32 129.79 467.96 136.23 476.6 142.15 485.26 147.48 493.91 152.2 502.58 156.31 511.24 159.81 519.91 162.75 528.59 165.2 537.27 167.24 545.95 168.97 554.64 170.52 563.32 172.02 572.01 173.59 580.7 175.38 589.39 177.51 598.09 180.11 606.78 183.27 615.46 187.09 624.15 191.63 632.84 196.91 641.52 202.94 650.2 209.7 658.88 217.14 667.55 225.16 676.22 233.68 676.32 243.46 676.4 253.25 676.46 263.03 676.49 272.82 676.49 282.6 676.47 292.39 676.42 302.17 676.35 311.96 676.26 321.74 676.14 331.53 676.01 341.31 675.86 351.1 675.71 360.88 675.55 370.67 675.38 380.45 675.22 390.24 675.07 400.02 674.93 409.81 674.8 419.59 674.7 429.38 674.61 439.16 674.55 448.95 674.51 458.73 674.5 468.52 674.51 478.3 674.55 488.09 674.62 497.87 674.7 507.66 674.81 517.45 674.94 527.23 670.9 541.25 658.18 544.79 641.12 546.8 624.07 552.4 615.53 557.55 607 564.11 598.47 572.01 589.93 581.18 581.39 591.45 572.84 602.65 564.29 614.53 555.73 626.85 547.17 639.33 538.61 651.67 530.04 663.59 521.46 674.82 512.88 685.12 504.29 694.26 495.69 702.07 487.09 708.42 478.48 713.26 469.86 716.55 452.61 718.18 435.33 716.19 426.68 713.62 418.03 710.57 409.37 707.34 400.71 704.24 392.15 691.87 383.59 680.39 375.03 670.04 366.46 661 357.88 653.43 349.3 647.39 340.71 642.92 332.11 639.98 314.9 638.81 297.66 640.87 289.03 643.2 280.4 645.84 271.76 648.49 263.11 650.87 245.79 653.2 228.47 652.51 219.79 649.98 211.12 646.04 202.44 640.68 193.75 633.91 185.07 625.83 176.38 616.58 167.69 606.32 159 595.27 150.31 583.68 141.62 571.81 132.93 559.91 124.24 548.25 124.08 538.45 123.94 528.64 123.81 518.84 123.7 509.04 123.62 499.23 123.55 489.43 123.51 479.62 123.5 469.82 123.51 460.02 123.55 450.21 123.61 440.41 123.7 430.61 123.8 420.8 123.93 411 124.07 401.19 124.22 391.39 124.38 381.59 124.55 371.78 124.71 361.98 124.86 352.18 125.01 342.37 125.14 332.57 125.26 322.77 125.35 312.96 125.42 303.16 125.47 293.36 125.49 283.55 125.49 273.75 125.46 263.95 125.4 254.14 129.54 238.95 142.32 232.61 159.39 229.89 176.47 225.91 185 222.93 193.53 219.27 202.05 214.89 210.58 209.78 219.11 203.98 227.64 197.52 236.17 190.48 244.7 182.95 253.23 175.04 261.77 166.88 270.31 158.6 278.85 150.31 287.4 142.16 295.95 134.26 304.51 126.71 313.07 119.61 321.64 113.02 330.21 106.99 338.79 101.55 347.37 96.7 355.96 92.42 364.56 88.66 373.17 85.36 381.78 82.44 394.71 78.61 399.02 77.39" stroke-dasharray="6 2" transform="rotate(6.870967741935484, 400, 400)"></path><path d="M399 88.2Q407.31 95.56 415.63 103.08 423.95 110.66 432.28 118.2 440.62 125.59 448.96 132.73 457.31 139.54 465.66 145.93 474.02 151.82 482.38 157.17 490.75 161.94 499.12 166.11 507.5 169.7 515.87 172.73 532.64 177.17 549.42 180.58 566.2 183.36 582.98 186.51 591.37 188.59 599.76 191.14 608.15 194.26 616.53 198 624.92 202.44 633.3 207.59 641.67 213.46 650.04 220.02 658.41 227.23 666.78 235.01 666.87 244.37 666.93 253.74 666.97 263.1 666.99 272.47 666.99 281.83 666.96 291.2 666.9 300.56 666.83 309.93 666.73 319.29 666.62 328.66 666.49 338.02 666.34 347.39 666.19 356.75 666.04 366.12 665.88 375.48 665.72 384.85 665.58 394.21 665.44 403.57 665.32 412.94 665.21 422.3 665.12 431.67 665.06 441.03 665.01 450.4 665 459.76 665 469.13 665.03 478.49 665.09 487.86 665.16 497.22 665.26 506.59 665.38 515.95 661.46 529.73 649.18 534.43 640.94 535.68 632.71 538.04 624.48 541.62 616.24 546.48 608.01 552.62 599.77 560.02 591.53 568.6 583.29 578.23 575.05 588.75 566.8 599.97 558.56 611.66 550.3 623.59 542.05 635.5 533.78 647.13 525.52 658.24 517.25 668.6 508.97 677.98 500.69 686.23 492.4 693.2 484.1 698.8 467.49 705.1 450.86 707.4 434.2 704.37 417.52 699.36 409.18 696.33 400.82 693.43 392.55 681.56 384.27 670.5 375.99 660.47 367.71 651.63 359.41 644.13 351.11 638.03 334.49 630.83 317.85 627.63 301.18 629.68 284.5 633.66 267.78 638.35 251.05 641.95 234.3 641.53 217.54 637.72 209.16 633.59 200.77 628.16 192.38 621.44 183.99 613.54 175.6 604.56 167.21 594.68 158.82 584.09 150.43 572.99 142.04 561.62 133.65 550.21 133.51 540.66 133.38 531.1 133.26 521.54 133.16 511.99 133.09 502.43 133.03 492.87 133 483.32 133 473.76 133.01 464.2 133.06 454.65 133.12 445.09 133.21 435.53 133.32 425.98 133.44 416.42 133.58 406.86 133.72 397.3 133.88 387.75 134.04 378.19 134.19 368.63 134.34 359.08 134.49 349.52 134.62 339.96 134.73 330.41 134.83 320.85 134.9 311.29 134.96 301.73 134.99 292.18 134.99 282.62 134.97 273.06 134.93 263.51 138.95 248.75 151.29 242.56 167.79 239.36 184.28 234.66 192.52 231.25 200.76 227.15 209 222.36 217.23 216.89 225.47 210.78 233.7 204.09 241.93 196.9 250.17 189.32 258.4 181.44 266.64 173.39 274.88 165.28 283.12 157.24 291.37 149.38 299.62 141.8 307.87 134.6 316.13 127.85 324.39 121.61 332.66 115.93 340.93 110.8 349.21 106.25 357.49 102.23 365.78 98.71 390.69 90.62 399 88.2" stroke-dasharray="8 1" transform="rotate(9.161290322580644, 400, 400)"></path><path d="M399 99Q407.03 106.18 415.07 113.52 423.11 120.92 431.15 128.28 439.2 135.52 447.26 142.53 455.32 149.24 463.38 155.56 471.45 161.43 479.52 166.78 487.6 171.59 495.68 175.84 511.85 182.39 528.02 187.43 544.2 190.61 560.38 193.21 576.57 195.98 592.74 199.51 608.91 205.3 625.06 212.91 633.14 217.88 641.21 223.53 649.27 229.84 657.33 236.78 657.4 245.74 657.46 254.7 657.49 263.66 657.49 272.62 657.48 281.58 657.44 290.54 657.38 299.5 657.3 308.46 657.2 317.43 657.09 326.39 656.96 335.35 656.82 344.31 656.68 353.27 656.52 362.23 656.37 371.19 656.22 380.15 656.08 389.11 655.95 398.07 655.83 407.03 655.72 415.99 655.64 424.96 655.57 433.92 655.52 442.88 655.5 451.84 655.5 460.8 655.52 469.76 655.56 478.72 655.63 487.68 655.71 496.64 655.82 505.6 652.03 519.26 640.18 525.29 632.24 527.66 624.3 531.15 616.36 535.81 608.42 541.65 600.48 548.64 592.54 556.72 584.6 565.79 576.65 575.71 568.71 586.31 560.76 597.4 552.81 608.77 544.86 620.2 536.9 631.46 528.94 642.33 520.98 652.6 513.01 662.06 505.04 670.56 497.06 677.94 489.08 684.11 481.09 689.01 465.1 694.3 449.09 695.99 433.05 692.95 416.99 688.17 408.95 685.33 400.91 682.63 392.92 671.26 384.93 660.62 376.93 650.91 368.93 642.29 360.92 634.87 352.9 628.74 336.85 621.08 320.78 617.17 304.69 618.37 288.58 621.61 272.44 626.08 256.3 629.94 240.13 630.7 223.96 628.61 215.88 625.62 207.79 621.43 199.7 616.04 191.6 609.49 183.51 601.84 175.42 593.23 167.33 583.78 159.24 573.67 151.15 563.08 143.07 552.23 142.94 542.92 142.82 533.62 142.71 524.31 142.63 515.01 142.56 505.7 142.52 496.39 142.5 487.09 142.5 477.78 142.52 468.48 142.57 459.17 142.64 449.87 142.72 440.56 142.83 431.26 142.95 421.95 143.08 412.64 143.22 403.34 143.37 394.03 143.52 384.73 143.68 375.42 143.82 366.12 143.96 356.81 144.09 347.5 144.2 338.2 144.3 328.89 144.38 319.59 144.44 310.28 144.48 300.97 144.49 291.67 144.49 282.36 144.46 273.06 148.35 258.65 160.27 252.38 176.19 248.49 192.1 242.94 200.05 239.07 207.99 234.54 215.94 229.36 223.88 223.56 231.82 217.2 239.76 210.34 247.7 203.06 255.64 195.47 263.58 187.67 271.52 179.78 279.46 171.89 287.41 164.12 295.35 156.57 303.3 149.34 311.25 142.5 319.21 136.12 327.17 130.23 335.13 124.89 343.1 120.08 351.07 115.82 367.03 108.98 383 103.36 395 100.04 399 99" stroke-dasharray="11 0" transform="rotate(11.451612903225806, 400, 400)"></path><path d="M399.04 109.81Q406.79 116.81 414.54 123.95 422.29 131.16 430.05 138.34 437.81 145.42 445.58 152.29 453.35 158.89 461.12 165.14 468.9 170.96 476.68 176.32 484.46 181.17 492.25 185.48 507.82 192.23 523.4 197.47 538.99 200.74 554.57 203.27 570.15 205.57 585.72 208.34 601.28 212.88 616.83 218.97 624.6 223.05 632.36 227.79 644.03 240.46 647.97 256.33 647.98 273.48 647.92 290.63 647.77 307.78 647.56 324.93 647.3 342.08 647.01 359.23 646.73 376.38 646.46 393.53 646.25 410.68 646.08 427.83 646.01 444.98 646.01 462.12 646.11 479.27 646.26 496.42 642.6 510.03 631.18 517.5 623.53 520.97 615.88 525.52 608.24 531.14 600.59 537.82 592.95 545.5 585.3 554.1 577.65 563.48 570.01 573.52 562.36 584.03 554.71 594.85 547.06 605.78 539.41 616.62 531.75 627.16 524.09 637.22 516.43 646.62 508.76 655.2 501.1 662.83 493.42 669.38 478.06 678.43 462.69 683.95 447.28 684.13 431.87 681.77 416.43 676.93 400.97 671.82 393.26 660.94 385.55 650.72 377.84 641.34 370.12 632.94 362.39 625.64 354.66 619.5 339.18 611.45 323.69 606.89 308.17 607.25 292.64 609.71 277.09 613.83 261.53 617.75 245.96 619.43 230.38 618.78 214.79 613.21 199.21 604.36 191.42 598.05 183.63 590.74 175.84 582.54 168.05 573.57 160.26 563.98 152.48 553.92 152.36 544.88 152.25 535.84 152.16 526.79 152.09 517.75 152.03 508.7 152 499.66 151.99 490.61 151.99 481.57 152.02 472.52 152.07 463.48 152.14 454.43 152.23 445.39 152.33 436.34 152.45 427.3 152.58 418.25 152.71 409.21 152.86 400.17 153 391.12 153.15 382.08 153.29 373.03 153.43 363.99 153.55 354.94 153.67 345.9 153.77 336.85 153.85 327.81 153.91 318.76 153.96 309.72 153.98 300.67 153.98 291.63 153.96 282.58 157.74 268.46 169.23 261.9 184.57 257.16 199.9 250.69 207.56 246.37 215.21 241.43 222.87 235.9 230.52 229.82 238.17 223.25 245.82 216.28 253.46 208.97 261.11 201.43 268.76 193.77 276.4 186.07 284.05 178.44 291.7 170.98 299.34 163.77 306.99 156.9 314.65 150.43 322.3 144.42 329.96 138.9 337.62 133.89 352.95 125.67 368.3 118.87 391.35 111.89 399.04 109.81" stroke-dasharray="7 11" transform="rotate(13.741935483870968, 400, 400)"></path><path d="M399.11 120.61Q414.03 134.37 428.97 148.38 443.91 162.01 458.87 174.64 473.85 185.77 488.82 195.01 503.8 202.21 518.79 207.44 533.77 211.01 548.75 213.43 563.72 215.37 578.69 217.59 593.64 220.83 608.58 225.76 623.51 232.85 638.41 242.37 638.49 258.79 638.48 275.2 638.4 291.62 638.25 308.03 638.03 324.45 637.78 340.87 637.5 357.28 637.22 373.7 636.97 390.12 636.75 406.53 636.6 422.95 636.51 439.37 636.5 455.78 636.57 472.2 636.71 488.62 636.91 505.03 622.19 511.13 607.48 521.12 592.77 534.93 578.06 552.04 563.36 571.54 548.65 592.25 533.94 612.78 519.23 631.79 504.5 648.03 489.76 660.57 475.01 668.89 460.25 672.92 445.46 673.11 430.66 670.32 415.84 665.8 400.99 661.02 386.15 640.81 371.28 623.61 356.39 610.33 341.49 601.4 326.57 596.8 311.63 595.98 296.68 598.01 281.72 601.63 266.75 605.46 251.77 608.1 236.79 608.32 221.8 605.18 206.82 598.15 191.84 587.14 176.87 572.51 161.9 555.02 161.7 537.47 161.56 519.92 161.49 502.38 161.5 484.83 161.59 467.29 161.74 449.74 161.96 432.2 162.21 414.66 162.49 397.11 162.77 379.57 163.02 362.02 163.24 344.48 163.39 326.93 163.47 309.39 163.48 291.84 163.4 274.3 178.18 270.94 192.95 265.54 207.7 257.83 222.43 247.78 237.15 235.65 251.87 221.91 266.58 207.21 281.28 192.27 295.99 177.81 310.69 164.48 325.4 152.76 340.12 142.93 354.85 135.06 369.59 128.98 391.73 122.47 399.11 120.61" stroke-dasharray="6 9" transform="rotate(16.032258064516128, 400, 400)"></path><path d="M399.21 131.42Q413.55 144.78 427.91 158.39 442.27 171.68 456.64 184.09 471.02 195.13 485.4 204.44 499.79 211.83 514.17 217.32 528.55 221.12 542.93 223.65 557.3 225.46 571.65 227.22 586 229.62 600.33 233.3 614.65 238.81 628.95 246.48 628.99 262.2 628.97 277.92 628.87 293.64 628.72 309.36 628.5 325.08 628.26 340.8 627.99 356.52 627.72 372.24 627.48 387.97 627.27 403.69 627.11 419.41 627.02 435.13 627 450.85 627.05 466.57 627.16 482.29 627.34 498.01 613.2 506.17 599.07 517.86 584.94 532.82 570.83 550.39 556.71 569.65 542.59 589.47 528.48 608.64 514.36 625.98 500.23 640.51 486.09 651.5 471.94 658.59 457.78 661.82 443.61 661.64 429.42 658.88 415.21 654.64 400.99 650.21 386.71 630.9 372.42 614.3 358.11 601.2 343.78 592.05 329.44 586.88 315.09 585.28 300.72 586.5 286.35 589.52 271.97 593.13 257.59 596.09 243.2 597.28 228.82 595.74 214.44 590.85 200.06 582.32 185.69 570.28 171.33 555.17 171.15 538.2 171.04 521.24 170.99 504.27 171.01 487.3 171.1 470.33 171.26 453.36 171.47 436.39 171.71 419.42 171.98 402.46 172.25 385.49 172.49 368.52 172.71 351.55 172.86 334.58 172.96 317.62 172.98 300.65 172.94 283.68 187.14 279.38 201.32 272.98 215.49 264.34 229.64 253.6 243.79 241.08 257.92 227.29 272.05 212.85 286.17 198.43 300.28 184.66 314.4 172.1 328.52 161.15 342.64 152.02 356.77 144.74 370.9 139.13 392.13 133.13 399.21 131.42" stroke-dasharray="8 3" transform="rotate(18.32258064516129, 400, 400)"></path><path d="M399.34 142.23Q413.09 155.17 426.86 168.37 440.64 181.3 454.42 193.46 468.2 204.39 481.99 213.75 495.77 221.33 509.55 227.08 523.33 231.15 537.1 233.87 550.86 235.68 564.61 237.15 578.35 238.9 592.07 241.55 605.78 245.64 619.47 251.58 619.49 266.65 619.45 281.71 619.35 296.77 619.18 311.83 618.98 326.89 618.74 341.95 618.48 357.02 618.22 372.08 617.99 387.14 617.78 402.2 617.63 417.26 617.53 432.33 617.5 447.39 617.53 462.45 617.62 477.51 617.78 492.58 604.22 502.56 590.67 515.64 577.13 531.36 563.59 549.03 550.06 567.74 536.53 586.46 523.01 604.13 509.48 619.8 495.94 632.66 482.41 642.18 468.86 648.14 455.3 650.65 441.74 650.17 428.15 647.46 414.56 643.49 400.95 639.4 387.25 620.99 373.53 604.99 359.79 592.13 346.05 582.82 332.29 577.14 318.52 574.81 304.75 575.23 290.97 577.57 277.19 580.82 263.4 583.9 249.61 585.77 235.83 585.54 222.05 582.51 208.28 576.28 194.52 566.76 180.77 554.17 180.61 537.81 180.52 521.45 180.49 505.09 180.52 488.73 180.62 472.37 180.77 456.01 180.98 439.65 181.21 423.29 181.47 406.93 181.73 390.57 181.97 374.21 182.17 357.85 182.34 341.49 182.44 325.13 182.48 308.77 182.46 292.41 196.08 287.08 209.68 279.67 223.27 270.2 236.85 258.89 250.41 246.13 263.97 232.42 277.51 218.36 291.05 204.55 304.58 191.53 318.11 179.77 331.63 169.6 345.16 161.16 358.7 154.45 372.23 149.29 392.56 143.79 399.34 142.23" stroke-dasharray="10 9" transform="rotate(20.612903225806452, 400, 400)"></path><path d="M399.48 153.04Q412.65 165.55 425.83 178.32 439.01 190.88 452.2 202.77 465.39 213.56 478.57 222.94 491.75 230.67 504.93 236.69 518.1 241.07 531.26 244.04 544.41 245.97 557.55 247.32 570.68 248.63 583.8 250.46 596.9 253.35 609.99 257.74 609.99 272.17 609.93 286.61 609.82 301.04 609.65 315.48 609.45 329.91 609.21 344.34 608.97 358.78 608.72 373.21 608.5 387.65 608.3 402.08 608.15 416.51 608.04 430.95 608 445.38 608.01 459.81 608.09 474.25 608.22 488.68 595.24 500.2 582.27 514.27 569.31 530.38 556.36 547.8 543.41 565.68 530.47 583.12 517.53 599.22 504.59 613.21 491.65 624.47 478.71 632.61 465.76 637.54 452.8 639.42 439.84 638.69 426.87 636.05 413.88 632.36 400.88 628.59 387.75 611.06 374.61 595.69 361.46 583.1 348.3 573.7 335.13 567.58 321.95 564.57 308.77 564.21 295.59 565.84 282.4 568.6 269.21 571.6 256.03 573.9 242.85 574.66 229.68 573.19 216.51 569.01 203.35 561.87 190.21 551.8 190.08 536.09 190 520.37 189.99 504.66 190.03 488.94 190.14 473.23 190.29 457.51 190.49 441.8 190.71 426.08 190.96 410.36 191.2 394.65 191.44 378.93 191.64 363.22 191.81 347.5 191.92 331.79 191.98 316.07 191.98 300.35 205.01 293.95 218.04 285.6 231.05 275.42 244.04 263.7 257.03 250.85 270 237.37 282.97 223.8 295.92 210.67 308.87 198.44 321.81 187.51 334.75 178.1 347.69 170.35 360.64 164.2 373.58 159.48 393 154.46 399.48 153.04" stroke-dasharray="5 12" transform="rotate(22.903225806451612, 400, 400)"></path><path d="M399.64 163.85Q412.22 175.92 424.81 188.24 437.39 200.41 449.98 211.99 462.57 222.63 475.15 231.99 487.72 239.86 500.3 246.13 512.86 250.82 525.41 254.11 537.96 256.24 550.49 257.62 563.01 258.69 575.52 259.94 588.01 261.86 600.49 264.92 600.48 278.75 600.4 292.58 600.28 306.42 600.12 320.25 599.92 334.09 599.69 347.92 599.46 361.75 599.22 375.59 599.01 389.42 598.82 403.25 598.66 417.09 598.56 430.92 598.5 444.75 598.5 458.58 598.56 472.42 598.66 486.25 586.27 498.92 573.88 513.6 561.5 529.7 549.13 546.55 536.77 563.37 524.41 579.39 512.06 593.88 499.71 606.22 487.36 615.95 475.01 622.83 462.65 626.82 450.29 628.14 437.93 627.22 425.56 624.66 413.17 621.24 400.78 617.78 388.24 601.14 375.68 586.4 363.11 574.13 350.54 564.69 337.96 558.21 325.38 554.58 312.79 553.47 300.2 554.36 287.62 556.55 275.03 559.29 262.45 561.77 249.87 563.24 237.31 563.02 224.75 560.59 212.2 555.61 199.65 547.96 199.55 532.92 199.49 517.88 199.49 502.84 199.55 487.81 199.65 472.77 199.81 457.73 200 442.69 200.21 427.65 200.45 412.62 200.68 397.58 200.91 382.54 201.11 367.5 201.27 352.46 201.39 337.42 201.47 322.38 201.48 307.35 213.94 299.92 226.38 290.73 238.81 280 251.23 268.04 263.64 255.27 276.03 242.16 288.41 229.19 300.79 216.81 313.16 205.41 325.52 195.31 337.87 186.68 350.23 179.59 362.58 173.99 374.93 169.69 393.46 165.14 399.64 163.85" stroke-dasharray="5 7" transform="rotate(25.193548387096776, 400, 400)"></path><path d="M399.82 174.65Q411.8 186.27 423.79 198.14 435.78 209.89 447.76 221.16 459.74 231.59 471.72 240.9 483.69 248.87 495.65 255.38 507.61 260.4 519.55 264.02 531.49 266.46 543.41 267.99 555.33 268.99 567.23 269.89 579.12 271.11 590.99 273.08 590.96 286.33 590.87 299.58 590.75 312.83 590.58 326.09 590.38 339.34 590.17 352.59 589.95 365.84 589.72 379.09 589.52 392.34 589.33 405.59 589.18 418.85 589.07 432.1 589.01 445.35 589 458.6 589.03 471.85 589.12 485.1 577.3 498.52 565.5 513.39 553.7 529.13 541.91 545.13 530.13 560.7 518.36 575.2 506.59 588.06 494.83 598.8 483.06 607.1 471.3 612.81 459.54 615.98 447.77 616.82 436 615.74 424.23 613.29 412.45 610.13 400.66 606.97 388.7 591.2 376.73 577.11 364.75 565.19 352.77 555.77 340.78 549 328.79 544.83 316.81 543.01 304.82 543.15 292.83 544.71 280.85 547.05 268.88 549.5 256.9 551.39 244.94 552.09 232.99 551.09 221.04 547.99 209.11 542.56 209.02 528.23 208.99 513.91 209 499.58 209.06 485.25 209.17 470.92 209.32 456.6 209.51 442.27 209.71 427.94 209.94 413.61 210.16 399.29 210.37 384.96 210.57 370.63 210.74 356.3 210.86 341.97 210.95 327.65 210.98 313.32 222.86 304.97 234.72 295.11 246.57 284.01 258.41 271.99 270.23 259.47 282.05 246.86 293.85 234.58 305.65 223.01 317.43 212.47 329.21 203.2 340.99 195.33 352.76 188.9 364.52 183.82 376.29 179.94 393.93 175.82 399.82 174.65" stroke-dasharray="0 1" transform="rotate(27.483870967741936, 400, 400)"></path><path d="M399.99 185.46Q411.38 196.61 422.77 208.01 434.15 219.33 445.53 230.24 456.91 240.45 468.28 249.67 479.64 257.71 491 264.41 502.35 269.74 513.68 273.73 525.01 276.52 536.33 278.32 547.63 279.42 558.93 280.16 570.21 280.93 581.49 282.1 581.43 294.78 581.34 307.47 581.21 320.15 581.04 332.83 580.85 345.52 580.65 358.2 580.43 370.88 580.22 383.56 580.03 396.25 579.85 408.93 579.7 421.61 579.59 434.3 579.52 446.98 579.5 459.66 579.51 472.35 579.58 485.03 568.35 498.78 557.12 513.44 545.91 528.51 534.7 543.4 523.5 557.58 512.31 570.51 501.13 581.75 489.94 590.97 478.77 597.93 467.59 602.59 456.42 605.02 445.24 605.45 434.07 604.27 422.89 601.94 411.7 599.03 400.52 596.17 389.14 581.26 377.76 567.83 366.37 556.29 354.99 546.96 343.6 539.97 332.21 535.32 320.82 532.85 309.44 532.26 298.06 533.14 286.68 534.97 275.31 537.21 263.94 539.26 252.59 540.59 241.24 540.68 229.9 539.13 218.57 535.66 218.5 522.07 218.49 508.47 218.51 494.88 218.58 481.29 218.69 467.7 218.84 454.11 219.02 440.52 219.21 426.93 219.42 413.34 219.64 399.75 219.84 386.15 220.03 372.56 220.2 358.97 220.33 345.38 220.42 331.79 220.48 318.2 231.77 309.09 243.04 298.76 254.31 287.49 265.57 275.61 276.81 263.49 288.05 251.5 299.27 239.99 310.49 229.28 321.7 219.62 332.9 211.19 344.09 204.07 355.28 198.27 366.46 193.7 377.64 190.2 394.41 186.51 399.99 185.46" stroke-dasharray="0 10" transform="rotate(29.7741935483871, 400, 400)"></path><path d="M400.17 196.27Q410.96 206.94 421.74 217.85 432.52 228.72 443.3 239.26 454.06 249.2 464.83 258.29 475.58 266.35 486.33 273.22 497.07 278.83 507.8 283.19 518.52 286.37 529.23 288.52 539.93 289.85 550.62 290.64 566.6 297.59 571.8 316.09 571.67 328.21 571.5 340.33 571.32 352.45 571.13 364.57 570.92 376.68 570.72 388.8 570.54 400.92 570.37 413.04 570.22 425.16 570.11 437.28 570.04 449.4 570 461.52 570 473.64 570.05 485.76 559.4 499.41 548.75 513.53 538.12 527.63 527.5 541.24 516.88 553.92 506.27 565.27 495.67 574.95 485.07 582.72 474.48 588.47 463.88 592.18 453.3 593.97 442.71 594.06 432.12 592.8 421.54 590.6 410.95 587.95 400.36 585.36 389.57 571.31 378.78 558.55 368 547.44 357.21 538.24 346.42 531.11 335.63 526.06 324.84 523 314.06 521.71 303.28 521.89 292.51 523.14 281.75 525 270.99 526.99 260.24 528.64 249.49 529.5 238.76 529.16 228.04 527.31 227.99 514.48 227.99 501.65 228.03 488.82 228.1 475.99 228.21 463.16 228.36 450.33 228.53 437.5 228.71 424.67 228.91 411.84 229.12 399.01 229.31 386.18 229.49 373.35 229.66 360.52 229.79 347.69 229.89 334.86 229.96 322.03 240.66 312.37 251.36 301.78 262.04 290.55 272.72 278.98 283.38 267.41 294.04 256.15 304.69 245.48 315.32 235.67 325.95 226.89 336.57 219.28 347.18 212.89 357.79 207.7 368.39 203.62 378.99 200.5 394.88 197.2 400.17 196.27" stroke-dasharray="5 4" transform="rotate(32.064516129032256, 400, 400)"></path><path d="M400.35 207.08Q410.53 217.26 420.7 227.67 430.88 238.06 441.04 248.2 451.21 257.84 461.36 266.76 471.51 274.79 481.65 281.78 491.78 287.64 501.9 292.35 512.01 295.93 522.12 298.48 532.21 300.16 542.3 301.16 557.37 307.71 562.26 325.24 562.12 336.79 561.97 348.35 561.79 359.9 561.6 371.45 561.41 383.01 561.22 394.56 561.05 406.12 560.88 417.67 560.75 429.22 560.63 440.78 560.55 452.33 560.51 463.89 560.5 475.44 560.52 487 550.45 500.18 540.4 513.42 530.35 526.33 520.3 538.53 510.27 549.67 500.24 559.44 490.22 567.62 480.2 574.07 470.19 578.71 460.18 581.58 450.18 582.82 440.18 582.64 430.18 581.35 420.18 579.29 410.18 576.88 400.18 574.55 389.99 561.36 379.8 549.27 369.61 538.61 359.42 529.61 349.24 522.4 339.05 517.03 328.87 513.45 318.69 511.52 308.52 511.01 298.36 511.61 288.2 512.98 278.04 514.73 267.9 516.45 257.76 517.76 242.56 511.96 237.5 493.59 237.54 481.53 237.62 469.48 237.74 457.42 237.87 445.37 238.04 433.31 238.21 421.26 238.4 409.21 238.59 397.15 238.78 385.1 238.96 373.04 239.11 360.99 239.25 348.94 239.36 336.88 239.44 324.83 249.55 314.85 259.66 304.24 269.77 293.26 279.86 282.19 289.94 271.3 300.02 260.86 310.08 251.09 320.14 242.19 330.19 234.3 340.23 227.49 350.26 221.81 360.29 217.2 370.31 213.59 380.33 210.82 395.34 207.9 400.35 207.08" stroke-dasharray="2 10" transform="rotate(34.35483870967742, 400, 400)"></path><path d="M400.51 217.89Q410.08 227.57 419.65 237.46 429.22 247.36 438.78 257.07 448.33 266.38 457.88 275.08 467.41 283.03 476.95 290.08 486.47 296.15 495.99 301.17 505.49 305.15 514.99 308.14 524.49 310.23 533.97 311.57 548.14 318.03 552.72 334.7 552.58 345.68 552.43 356.65 552.26 367.63 552.08 378.61 551.9 389.59 551.72 400.57 551.56 411.55 551.4 422.53 551.27 433.51 551.16 444.49 551.07 455.47 551.02 466.45 551 477.43 551.01 488.41 541.52 500.78 532.05 512.91 522.58 524.46 513.12 535.17 503.66 544.75 494.22 553.01 484.78 559.79 475.34 565.02 465.91 568.67 456.49 570.82 447.07 571.6 437.65 571.21 428.24 569.9 418.83 568 409.41 565.82 400 563.74 390.41 551.39 380.82 540 371.23 529.82 361.65 521.06 352.06 513.84 342.48 508.24 332.91 504.22 323.34 501.7 313.77 500.52 304.21 500.47 294.66 501.26 285.11 502.61 275.57 504.18 266.04 505.64 251.75 501.21 247.01 484.47 247.06 473.2 247.15 461.94 247.26 450.67 247.39 439.4 247.55 428.13 247.71 416.87 247.89 405.6 248.07 394.33 248.25 383.07 248.42 371.8 248.57 360.53 248.71 349.27 248.82 338 248.9 326.73 258.44 316.7 267.96 306.3 277.48 295.76 286.98 285.34 296.49 275.25 305.98 265.69 315.46 256.86 324.94 248.88 334.41 241.86 343.87 235.84 353.32 230.83 362.77 226.78 372.21 223.6 381.65 221.17 395.79 218.61 400.51 217.89" stroke-dasharray="5 1" transform="rotate(36.64516129032258, 400, 400)"></path><path d="M400.65 228.7Q409.62 237.86 418.58 247.22 427.54 256.62 436.49 265.87 445.43 274.8 454.37 283.25 463.3 291.07 472.23 298.12 481.15 304.32 490.06 309.61 498.96 313.96 507.86 317.38 516.75 319.93 525.63 321.7 538.89 328.31 543.17 344.2 543.03 354.6 542.88 364.99 542.72 375.38 542.56 385.78 542.39 396.17 542.22 406.56 542.07 416.95 541.92 427.35 541.79 437.74 541.68 448.13 541.6 458.53 541.54 468.92 541.5 479.31 541.5 489.7 532.6 500.99 523.71 511.8 514.82 521.9 505.94 531.08 497.07 539.14 488.21 545.97 479.35 551.46 470.5 555.59 461.65 558.38 452.81 559.91 443.97 560.31 435.13 559.76 426.3 558.48 417.48 556.73 408.65 554.78 399.83 552.93 390.84 541.42 381.85 530.72 372.86 521.05 363.88 512.59 354.9 505.44 345.93 499.67 336.96 495.3 327.99 492.27 319.03 490.47 310.08 489.76 301.13 489.94 292.19 490.77 283.25 492.01 274.32 493.39 260.95 489.84 256.53 474.56 256.59 464.08 256.67 453.6 256.78 443.13 256.91 432.65 257.06 422.17 257.21 411.69 257.38 401.22 257.55 390.74 257.71 380.26 257.87 369.78 258.02 359.3 258.16 348.83 258.27 338.35 258.36 327.87 267.31 318.03 276.24 308.06 285.17 298.16 294.1 288.51 303.01 279.31 311.92 270.7 320.83 262.82 329.72 255.76 338.61 249.59 347.49 244.32 356.37 239.95 365.24 236.43 374.1 233.66 382.96 231.55 396.23 229.32 400.65 228.7" stroke-dasharray="10 5" transform="rotate(38.93548387096774, 400, 400)"></path><path d="M400.78 239.5Q409.14 248.14 417.49 256.96 425.84 265.83 434.18 274.6 442.52 283.12 450.85 291.26 459.18 298.89 467.49 305.88 475.81 312.16 484.11 317.65 492.41 322.32 500.71 326.15 517.28 331.06 533.83 333.94 533.73 343.73 533.62 353.52 533.49 363.3 533.34 373.09 533.19 382.88 533.04 392.67 532.88 402.45 532.72 412.24 532.58 422.03 532.44 431.81 532.32 441.6 532.21 451.39 532.12 461.17 532.06 470.96 532.01 480.75 532 490.53 523.68 500.53 515.38 509.92 507.08 518.52 498.78 526.19 490.5 532.82 482.21 538.32 465.67 545.26 449.14 548.88 432.63 548.02 416.13 545.48 407.89 543.75 399.65 542.12 391.27 531.44 382.88 521.45 374.5 512.31 366.12 504.19 357.75 497.17 349.38 491.34 341.02 486.7 332.66 483.23 315.96 479.99 299.27 479.35 282.62 481.26 265.99 483.49 266 473.8 266.05 464.11 266.11 454.42 266.2 444.73 266.31 435.04 266.43 425.35 266.57 415.66 266.71 405.97 266.87 396.28 267.03 386.59 267.18 376.9 267.33 367.21 267.48 357.52 267.61 347.83 267.72 338.14 267.82 328.45 276.17 319.05 284.52 309.7 292.86 300.58 301.2 291.82 309.53 283.57 317.85 275.93 326.17 269 334.49 262.85 342.79 257.49 351.09 252.94 367.67 246.48 384.24 241.96 396.64 240.04 400.78 239.5" stroke-dasharray="7 8" transform="rotate(41.225806451612904, 400, 400)"></path><path d="M400.88 250.31Q408.63 258.4 416.37 266.67 424.11 275 431.85 283.26 439.58 291.34 447.31 299.12 455.03 306.5 462.74 313.37 470.45 319.65 478.15 325.27 493.54 334 508.92 340.55 520.39 347.91 524.06 362.38 523.94 371.54 523.8 380.7 523.66 389.86 523.51 399.03 523.37 408.19 523.22 417.35 523.09 426.51 522.96 435.67 522.84 444.84 522.74 454 522.65 463.16 522.58 472.32 522.53 481.48 522.5 490.64 514.78 499.22 507.06 507.13 499.34 514.25 491.63 520.49 476.23 529.58 460.85 535.72 445.49 537.36 430.14 536.86 414.81 534.22 399.49 531.32 391.71 521.46 383.93 512.17 376.15 503.59 368.38 495.85 360.62 489.04 352.85 483.21 337.34 475.08 321.85 469.87 306.38 468.73 290.92 469.32 279.36 466.31 275.57 453.45 275.64 444.54 275.73 435.62 275.83 426.71 275.95 417.8 276.08 408.89 276.21 399.97 276.36 391.06 276.5 382.15 276.65 373.23 276.79 364.32 276.93 355.41 277.05 346.49 277.17 337.58 277.27 328.67 285.03 319.92 292.79 311.37 300.54 303.15 308.29 295.36 316.03 288.1 323.77 281.45 331.5 275.46 339.23 270.17 354.67 262.06 370.1 255.95 393.18 251.45 400.88 250.31" stroke-dasharray="7 8" transform="rotate(43.516129032258064, 400, 400)"></path><path d="M400.95 261.12Q415.23 276.36 429.49 291.85 443.74 306.84 457.97 320.58 472.18 332.45 486.37 342 500.55 349.01 514.72 353.55 514.5 370.57 514.26 387.6 513.99 404.62 513.72 421.65 513.48 438.68 513.27 455.7 513.11 472.73 513.02 489.76 498.75 503.33 484.5 513.94 470.26 521.26 456.05 525.32 441.85 526.48 427.66 525.41 413.5 523.06 399.34 520.51 384.99 502.88 370.66 487.58 356.34 475.28 342.04 466.33 327.75 460.73 313.49 458.15 299.24 457.91 285.01 459.15 285.1 442.86 285.26 426.56 285.47 410.27 285.71 393.97 285.98 377.68 286.25 361.38 286.49 345.09 286.71 328.79 301.04 313.26 315.37 299.24 329.67 287.3 343.96 277.75 358.23 270.66 372.49 265.84 393.84 261.99 400.95 261.12" stroke-dasharray="8 8" transform="rotate(45.806451612903224, 400, 400)"></path><path d="M400.99 271.93Q414.06 286.02 427.11 300.38 440.15 314.42 453.18 327.53 466.19 339.19 479.19 348.99 492.18 356.69 505.15 362.19 504.95 377.88 504.71 393.57 504.47 409.26 504.22 424.95 504 440.64 503.8 456.33 503.65 472.02 503.54 487.7 490.45 498.45 477.37 506.56 464.31 511.92 451.26 514.66 438.23 515.16 425.21 513.99 412.21 511.89 399.22 509.7 386.08 493.6 372.96 479.36 359.85 467.54 346.75 458.45 333.68 452.18 320.61 448.55 307.56 447.17 294.53 447.45 294.64 432.65 294.79 417.85 294.99 403.06 295.21 388.26 295.46 373.46 295.7 358.66 295.94 343.86 296.14 329.06 309.29 315.49 322.43 303.53 335.56 293.51 348.67 285.59 361.77 279.76 374.86 275.8 394.46 272.64 400.99 271.93" stroke-dasharray="8 1" transform="rotate(48.096774193548384, 400, 400)"></path><path d="M400.99 282.74Q412.86 295.66 424.71 308.85 436.55 321.85 448.37 334.2 460.19 345.48 472 355.34 483.79 363.51 495.58 369.85 495.38 384.16 495.17 398.47 494.95 412.78 494.72 427.09 494.52 441.4 494.33 455.71 494.18 470.01 494.07 484.32 482.16 492.47 470.26 498.38 458.37 502.08 446.5 503.77 434.63 503.78 422.78 502.58 410.94 500.74 399.12 498.89 387.19 484.3 375.28 471.19 363.38 459.98 351.49 450.95 339.61 444.21 327.75 439.71 315.9 437.24 304.06 436.43 304.17 423.1 304.32 409.76 304.51 396.42 304.71 383.08 304.94 369.74 305.16 356.41 305.37 343.07 305.57 329.73 317.53 318.25 329.49 308.32 341.43 300.12 353.37 293.72 365.29 289.03 377.2 285.85 395.05 283.31 400.99 282.74" stroke-dasharray="2 6" transform="rotate(50.38709677419355, 400, 400)"></path><path d="M400.97 293.55Q411.63 305.27 422.28 317.25 432.92 329.16 443.55 340.63 454.18 351.35 464.79 361.03 475.4 369.42 486 376.38 485.82 389.28 485.63 402.17 485.42 415.07 485.22 427.97 485.04 440.86 484.87 453.76 484.72 466.66 484.61 479.55 473.88 485.39 463.16 489.44 452.45 491.81 441.75 492.69 431.06 492.36 420.38 491.2 409.71 489.62 399.05 488.08 388.33 475 377.62 463.07 366.93 452.59 356.24 443.8 345.57 436.82 334.9 431.66 324.25 428.25 313.6 426.37 313.71 414.45 313.86 402.53 314.03 390.61 314.21 378.69 314.41 366.77 314.62 354.85 314.81 342.93 314.99 331.02 325.77 321.65 336.53 313.67 347.29 307.18 358.04 302.14 368.79 298.47 379.53 295.98 395.61 293.99 400.97 293.55" stroke-dasharray="10 6" transform="rotate(52.67741935483871, 400, 400)"></path><path d="M400.91 304.35Q410.37 314.86 419.83 325.61 429.28 336.34 438.72 346.83 448.15 356.82 457.58 366.08 467 374.44 476.43 381.73 476.26 393.19 476.08 404.64 475.9 416.09 475.72 427.55 475.56 439 475.4 450.46 475.27 461.91 475.16 473.37 465.61 477.26 456.07 479.82 446.54 481.16 437.02 481.45 427.5 480.92 418 479.85 408.5 478.53 399.01 477.28 389.49 465.69 379.99 454.97 370.5 445.34 361.01 436.97 351.53 429.98 342.06 424.42 327.93 413.58 323.39 396.36 323.55 385.82 323.71 375.29 323.89 364.76 324.07 354.22 324.25 343.69 324.42 333.16 333.99 325.82 343.57 319.66 353.14 314.69 362.71 310.86 372.27 308.08 381.82 306.19 396.14 304.69 400.91 304.35" stroke-dasharray="7 6" transform="rotate(54.96774193548387, 400, 400)"></path><path d="M400.83 315.16Q409.09 324.43 417.36 333.9 425.61 343.41 433.87 352.8 442.11 361.89 450.36 370.53 458.6 378.56 466.84 385.86 466.69 395.86 466.54 405.86 466.38 415.86 466.22 425.85 466.08 435.85 465.94 445.85 461.58 462.02 449 469.61 432.31 469.85 415.64 468.54 407.31 467.47 399 466.47 390.69 456.38 382.38 446.91 374.09 438.23 365.8 430.46 357.52 423.7 349.24 417.99 336.89 406.97 332.93 391.41 333.07 382.23 333.21 373.04 333.37 363.86 333.53 354.68 337.95 338.16 350.6 326.29 367.36 320.26 384.1 316.49 396.65 315.4 400.83 315.16" stroke-dasharray="10 1" transform="rotate(57.25806451612903, 400, 400)"></path><path d="M400.72 325.97Q414.87 342.15 429 358.59 443.13 374.42 457.26 388.83 456.99 405.89 456.72 422.95 456.48 440.01 456.27 457.07 441.93 458.9 427.61 458.68 413.31 457.27 399.02 455.66 384.8 438.88 370.6 424.22 356.42 412.32 342.26 403.47 342.47 387.75 342.71 372.04 342.98 356.32 343.25 340.61 357.62 333.62 372 329.19 393.54 326.42 400.72 325.97" stroke-dasharray="12 7" transform="rotate(59.5483870967742, 400, 400)"></path><path d="M400.58 336.78Q412.36 350.35 424.13 364.2 435.9 377.83 447.67 390.72 447.45 404.85 447.22 418.98 447.02 433.12 446.83 447.25 434.88 447.8 422.93 447.23 411 446.05 399.07 444.85 387.24 430.85 375.42 418.24 363.62 407.38 351.82 398.54 352.01 385.44 352.21 372.33 352.44 359.23 352.66 346.13 364.64 341.63 376.63 338.8 394.59 337.05 400.58 336.78" stroke-dasharray="2 5" transform="rotate(61.83870967741935, 400, 400)"></path><path d="M400.43 347.59Q409.84 358.51 419.26 369.68 428.67 380.83 438.08 391.71 437.9 402.92 437.72 414.14 432.69 430.9 418.27 435.78 408.71 434.88 399.16 434.04 389.7 422.84 380.26 412.46 370.82 403.1 361.39 394.93 361.55 384.43 361.71 373.92 366.78 356.86 381.25 348.7 395.63 347.73 400.43 347.59" stroke-dasharray="2 10" transform="rotate(64.12903225806451, 400, 400)"></path><path d="M400.26 358.39Q414.38 375.04 428.49 391.95 428.22 408.63 427.98 425.32 413.62 424.38 399.27 423.23 385.11 406.87 370.97 392.55 371.21 376.7 371.48 360.87 393.06 358.63 400.26 358.39" stroke-dasharray="4 2" transform="rotate(66.41935483870968, 400, 400)"></path><path d="M400.08 369.2Q409.49 380.33 418.9 391.71 413.85 407.89 399.4 412.43 389.97 401.42 380.55 391.2 392.84 372.07 400.08 369.2" stroke-dasharray="5 1" transform="rotate(68.70967741935485, 400, 400)"></path></g></svg>