<svg xmlns="http://www.w3.org/2000/svg" version="1.1" xmlns:xlink="http://www.w3.org/1999/xlink" xmlns:svgjs="http://svgjs.dev/svgjs" viewBox="0 0 800 400"><path d="M395.5928039550781,380.83831787109375C400.31935221354166,373.7484992472331,423.7245508829753,324.6826432291667,433.9161682128906,323.3533020019531C444.10778554280597,322.0239607747396,471.72853708902994,374.1956033325195,478.2275390625,370.05987548828125C484.72654103597006,365.924147644043,478.7824318440755,295.13773844401044,486.61077880859375,289.82037353515625C494.439125773112,284.50300862630206,536.6786659749349,332.1157685852051,541.7006225585938,326.94610595703125C546.7225791422526,321.7764433288574,520.2395308430989,256.17564575195314,527.329345703125,247.90419006347656C534.4191605631511,239.632734375,595.9361088053386,266.0838407897949,599.1856079101562,259.8802490234375C602.4351070149739,253.67665725708008,550.722544962565,208.38723322550456,553.6766357421875,197.60479736328125C556.63072652181,186.82236150105794,624.023920288086,178.95409535725912,623.1376953125,172.45509338378906C622.251470336914,165.956091410319,549.888227335612,154.06787213643392,546.4910278320312,144.91018676757812C543.0938283284505,135.75250139872233,598.2515169270833,103.96407061258952,595.5928344726562,98.2035903930664C592.9341520182292,92.44311017354329,530.3992159016927,105.14570579528808,524.9341430664062,98.2035903930664C519.4690702311198,91.26147499084473,554.3832318115234,45.60878262837728,551.2814331054688,41.916168212890625C548.1796343994141,38.22355379740397,507.4650628662109,72.8423159011205,499.784423828125,68.26347351074219C492.1037847900391,63.684631120363875,495.06186716715496,7.892215455373128,489.0059814453125,4.790419101715088C482.95009572347004,1.6886227480570475,459.8403321329753,42.9660687716802,450.6826477050781,43.113773345947266C441.524963277181,43.26147792021433,420.6626714070638,5.692614491780599,414.7544860839844,5.98802375793457C408.84630076090497,6.283433024088541,411.1976022338867,44.91816519737244,402.7784423828125,45.50898361206055C394.3592825317383,46.099802026748655,350.3313473510742,8.267465515136719,346.49102783203125,10.778443336486816C342.6507083129883,13.289421157836914,378.13971852620443,60.84630724906921,371.6407165527344,65.8682632446289C365.1417145792643,70.8902192401886,297.4890325927734,48.39520863850912,293.7964172363281,51.497005462646484C290.10380187988284,54.59880228678385,344.50697865804034,84.962079149882,341.7005920410156,91.0179672241211C338.8942054239909,97.07385529836019,274.8822506713867,95.42914085388183,271.04193115234375,100.59880065917969C267.2016116333008,105.76846046447754,314.5508917744954,126.87824020385742,310.5628662109375,132.9341278076172C306.5748406473796,138.99001541137696,240.62674662272136,144.08781692504883,238.7065887451172,149.70059204101562C236.78643086751302,155.31336715698242,295.28942876180014,170.31936182657878,294.9940185546875,178.443115234375C294.69860834757486,186.56686864217122,235.72055419921875,209.66067947387694,236.31137084960938,215.56886291503906C236.9021875,221.47704635620119,295.94410430908204,218.8143723042806,299.784423828125,226.34730529785156C303.62474334716796,233.88023829142253,264.4950021362305,271.4770391337077,267.4490966796875,276.6466979980469C270.4031912231445,281.81635686238604,319.74851806640623,263.8323183186849,323.7365417480469,268.2634582519531C327.7245654296875,272.69459818522137,294.9101751708984,309.47306091308593,299.784423828125,312.5748596191406C304.6586724853516,315.6766583251953,359.56486145019534,290.1636783854167,363.2574768066406,293.4131774902344C366.9500921630859,296.66267659505206,327.6566825358073,335.08183013916016,329.72454833984375,338.9221496582031C331.7924141438802,342.7624691772461,372.0479089355469,319.0858342488607,380.0239562988281,324.5509033203125C388.00000366210935,330.0159723917643,392.62274892171223,375.9959977213542,394.39520263671875,383.2335205078125" fill="none" stroke-width="13" stroke="url(&quot;#SvgjsLinearGradient1004&quot;)" stroke-linecap="round" transform="matrix(0.2638609813351718,-0.6974966353037617,-1.0646571247977168,-0.5719452126524184,493.0122025103017,610.6148837895903)" stroke-opacity="1" stroke-dasharray="0 0"></path><defs><linearGradient id="SvgjsLinearGradient1004"><stop stop-color="	hsl(341, 81%, 87%)%)" offset="0"></stop><stop stop-color="	hsl(341, 81%, 47%)" offset="1"></stop></linearGradient></defs></svg>