<svg xmlns="http://www.w3.org/2000/svg" version="1.1" xmlns:xlink="http://www.w3.org/1999/xlink" xmlns:svgjs="http://svgjs.dev/svgjs" viewBox="0 0 800 800"><defs><filter id="uuunion-blur" x="-100%" y="-100%" width="400%" height="400%" color-interpolation-filters="sRGB">
        <feGaussianBlur in="SourceGraphic" stdDeviation="7 0" result="blur"></feGaussianBlur>
        <feDropShadow stdDeviation="80" in="blur" dx="65" dy="65" flood-color="	hsl(341, 81%, 47%))" flood-opacity="0.26" x="0%" y="0%" width="100%" height="100%"></feDropShadow>
      </filter><filter id="uuunion-blur2" x="-100%" y="-100%" width="400%" height="400%" color-interpolation-filters="sRGB">
        <feGaussianBlur in="SourceGraphic" stdDeviation="7 0" result="blur"></feGaussianBlur>
        <feDropShadow stdDeviation="80" in="blur" dx="-65" dy="-65" flood-color="	hsl(341, 81%, 47%))" flood-opacity="0.26" x="0%" y="0%" width="100%" height="100%"></feDropShadow>
      </filter><linearGradient gradientTransform="rotate(143, 0.5, 0.5)" x1="50%" y1="0%" x2="50%" y2="100%" id="uuunion-grad"><stop stop-color="	hsl(341, 81%, 47%)" offset="10%"></stop><stop stop-color="	hsl(341, 81%, 47%))" offset="90%"></stop></linearGradient><linearGradient gradientTransform="rotate(6, 0.5, 0.5)" x1="50%" y1="0%" x2="50%" y2="100%" id="uuunion-grad2"><stop stop-color="	hsl(341, 81%, 47%)" offset="25%"></stop><stop stop-color="	hsl(341, 81%, 47%))" offset="100%"></stop></linearGradient><linearGradient gradientTransform="rotate(126, 0.5, 0.5)" x1="50%" y1="0%" x2="50%" y2="100%" id="uuunion-grad3"><stop stop-color="	hsl(341, 81%, 47%)" offset="0%"></stop><stop stop-color="	hsl(341, 81%, 47%))" offset="75%"></stop></linearGradient></defs><path d="M-78.45 -78.25Q-63.91 -76.29 -49.37 -74.57 -34.83 -73.2 -20.29 -72.26 -5.75 -71.82 8.78 -71.91 23.32 -72.52 37.86 -73.61 52.4 -75.11 66.94 -76.92 81.48 -78.93 96.02 -81.01 110.56 -83.02 125.1 -84.84 139.64 -86.35 154.18 -87.45 168.72 -88.07 183.25 -88.17 197.79 -87.74 212.33 -86.82 226.87 -85.46 241.41 -83.75 255.95 -81.79 270.49 -79.72 285.03 -77.67 299.57 -75.77 314.11 -74.14 328.65 -72.88 343.19 -72.08 357.73 -71.8 372.27 -72.03 386.81 -72.79 401.35 -74 415.89 -75.6 430.43 -77.48 444.97 -79.52 459.51 -81.6 474.05 -83.57 488.59 -85.31 503.13 -86.71 517.67 -87.68 532.21 -88.15 546.75 -88.1 561.29 -87.53 575.83 -86.47 590.37 -85 604.91 -83.21 619.44 -81.21 633.98 -79.13 648.52 -77.1 663.06 -75.27 677.6 -73.73 692.14 -72.6 706.68 -71.95 721.22 -71.81 735.76 -72.2 750.3 -73.09 764.84 -74.42 779.38 -76.11 793.92 -78.05 808.46 -80.12 823 -82.18 837.54 -84.1 852.08 -85.75 849.34 -70.99 850.86 -56.22 856.43 -41.46 865.28 -26.7 876.17 -11.94 887.59 2.82 897.96 17.58 905.83 32.34 910.11 47.11 910.2 61.87 906.1 76.63 898.37 91.4 888.08 106.16 876.67 120.92 865.73 135.69 856.76 150.45 851.03 165.21 849.32 179.98 851.87 194.74 858.33 209.5 867.81 224.26 878.98 239.03 890.29 253.79 900.16 268.55 907.24 283.32 910.53 298.08 909.57 312.84 904.51 327.61 896.04 342.37 885.33 357.13 873.89 371.9 863.29 386.66 855.02 401.42 850.22 416.18 849.55 430.95 853.12 445.71 860.42 460.47 870.44 475.24 881.79 490 892.89 504.76 902.2 519.53 908.42 534.29 910.69 549.05 908.7 563.82 902.71 578.58 893.57 593.34 882.54 608.11 871.16 622.87 861 637.63 853.49 652.39 849.66 667.16 850.04 681.92 854.59 696.68 862.67 711.45 873.16 726.21 884.6 740.97 895.39 755.74 904.05 770.5 909.37 785.26 910.6 800.03 907.58 814.79 900.72 829.55 890.99 844.31 879.72 859.08 864.73 865.09 849.73 872.06 834.74 879.54 819.74 887.05 804.75 894.1 789.75 900.25 774.75 905.1 759.76 908.33 744.76 909.74 729.77 909.24 714.77 906.86 699.78 902.75 684.78 897.18 669.79 890.5 654.79 883.15 639.79 875.6 624.8 868.33 609.8 861.8 594.81 856.45 579.81 852.61 564.82 850.54 549.82 850.35 534.83 852.07 519.83 855.59 504.84 860.68 489.84 867 474.84 874.17 459.85 881.7 444.85 889.13 429.86 895.97 414.86 901.78 399.87 906.2 384.87 908.92 369.88 909.79 354.88 908.75 339.88 905.85 324.89 901.29 309.89 895.36 294.9 888.45 279.9 880.99 264.91 873.47 249.91 866.36 234.92 860.14 219.92 855.19 204.92 851.83 189.93 850.29 174.93 850.65 159.94 852.9 144.94 856.9 129.95 862.38 114.95 868.99 99.96 876.31 84.96 883.86 69.97 891.17 54.97 897.76 39.97 903.2 24.98 907.16 9.98 909.37 -5 909.69 -20 908.1 -34.99 904.7 -49.99 899.72 -64.98 893.47 -79.98 886.35 -80.6 871.28 -81.14 856.2 -81.52 841.13 -81.69 826.06 -81.62 810.99 -81.33 795.92 -80.85 780.85 -80.25 765.77 -79.62 750.7 -79.04 735.63 -78.59 720.56 -78.34 705.49 -78.32 690.41 -78.53 675.34 -78.94 660.27 -79.51 645.2 -80.14 630.13 -80.75 615.05 -81.25 599.98 -81.58 584.91 -81.69 569.84 -81.57 554.77 -81.22 539.69 -80.71 524.62 -80.09 509.55 -79.47 494.48 -78.91 479.41 -78.51 464.33 -78.31 449.26 -78.35 434.19 -78.61 419.12 -79.07 404.05 -79.66 388.97 -80.29 373.9 -80.88 358.83 -81.35 343.76 -81.63 328.69 -81.69 313.61 -81.5 298.54 -81.11 283.47 -80.56 268.4 -79.94 253.33 -79.32 238.25 -78.8 223.18 -78.44 208.11 -78.3 193.04 -78.39 177.97 -78.71 162.89 -79.2 147.82 -79.81 132.75 -80.44 117.68 -81.01 102.61 -81.44 87.53 -81.67 72.46 -81.66 57.39 -81.43 42.32 -80.99 27.25 -80.42 12.18 -79.78 -2.89 -79.18 -17.96 -78.69 -33.03 -78.38 -48.1 -78.3 -63.17 -78.45 -78.25" fill="url(#uuunion-grad)"></path><path d="M-78.45 -78.25Q-78.3 -63.17 -78.38 -48.1 -78.69 -33.03 -79.18 -17.96 -79.78 -2.89 -80.42 12.18 -80.99 27.25 -81.43 42.32 -81.66 57.39 -81.67 72.46 -81.44 87.53 -81.01 102.61 -80.44 117.68 -79.81 132.75 -79.2 147.82 -78.71 162.89 -78.39 177.97 -78.3 193.04 -78.44 208.11 -78.8 223.18 -79.32 238.25 -79.94 253.33 -80.56 268.4 -81.11 283.47 -81.5 298.54 -81.69 313.61 -81.63 328.69 -81.35 343.76 -80.88 358.83 -80.29 373.9 -79.66 388.97 -79.07 404.05 -69.25 407.12 -59.44 409.99 -49.62 412.57 -39.8 414.79 -29.99 416.59 -20.17 417.91 -1.77 418.92 1.4 418.98 13.85 412.04 26.43 404.3 39.14 395.83 52 386.76 64.98 377.2 78.07 367.32 91.26 357.28 104.51 347.26 117.79 337.42 131.08 327.91 144.33 318.88 157.5 310.44 170.57 302.68 183.5 295.65 196.25 289.39 208.8 283.87 221.13 279.05 233.22 274.86 245.06 271.19 256.65 267.93 268.01 264.92 279.15 262.03 290.09 259.1 300.87 255.98 311.52 252.55 322.11 248.67 332.66 244.26 343.25 239.23 353.93 233.56 364.75 227.22 375.77 220.22 387.05 212.63 398.63 204.5 410.55 195.93 422.86 187.03 435.56 177.93 448.68 168.76 462.22 159.64 476.17 150.71 490.51 142.08 505.2 133.85 520.21 126.1 535.48 118.88 550.94 112.24 566.52 106.16 582.15 100.64 597.75 95.63 613.22 91.06 628.48 86.84 643.46 82.89 658.08 79.08 672.26 75.32 685.95 71.48 699.1 67.46 711.66 63.17 723.62 58.52 734.97 53.46 745.72 47.93 755.88 41.93 765.52 35.44 774.67 28.5 783.41 21.15 791.82 13.44 800 5.46 788.13 -12.25 778.5 -29.96 772.92 -47.68 772.44 -65.39 777.15 -83.11 786.17 -100.82 796.26 -126.74 779.65 -133.94 764.57 -133.33 749.49 -133.15 734.4 -133.39 719.32 -134.06 704.24 -135.1 689.16 -136.46 674.07 -138.04 658.99 -139.74 643.91 -141.46 628.82 -143.09 613.74 -144.52 598.66 -145.66 583.58 -146.44 568.49 -146.82 553.41 -146.76 538.33 -146.27 523.25 -145.38 508.16 -144.15 493.08 -142.66 478 -141 462.91 -139.27 447.83 -137.59 432.75 -136.07 417.67 -134.79 402.58 -133.84 387.5 -133.28 372.42 -133.15 357.34 -133.46 342.25 -134.18 327.17 -135.27 312.09 -136.65 297 -138.25 281.92 -139.97 266.84 -141.68 251.76 -143.29 236.67 -144.68 221.59 -145.78 206.51 -146.51 191.43 -146.83 176.34 -146.72 161.26 -146.17 146.18 -145.24 131.09 -143.97 116.01 -142.45 100.93 -140.77 85.85 -139.05 70.76 -137.38 55.68 -135.88 40.6 -134.64 25.52 -133.74 10.43 -133.24 -4.64 -133.17 -19.72 -133.53 -34.81 -134.3 -49.89 -135.43 -64.97 -136.85 -80.05 -138.47 -95.14 -140.19 -110.22 -141.9 -125.3 -143.48 -134.24 -131.42 -115.87 -113.01 -106.3 -104.44 -96.88 -95.77 -87.6 -87.03 -78.45 -78.25" fill="url(#uuunion-grad2)" filter="url(#uuunion-blur)"></path><path d="M784.76 410.37Q794.58 407.54 804.4 404.49 814.21 401.31 824.03 398.1 833.84 394.93 843.66 391.92 854.25 395.28 850.22 416.18 849.55 430.95 853.12 445.71 860.42 460.47 870.44 475.24 881.79 490 892.89 504.76 902.2 519.53 908.42 534.29 910.69 549.05 908.7 563.82 902.71 578.58 893.57 593.34 882.54 608.11 871.16 622.87 861 637.63 853.49 652.39 849.66 667.16 850.04 681.92 854.59 696.68 862.67 711.45 873.16 726.21 884.6 740.97 895.39 755.74 904.05 770.5 909.37 785.26 910.6 800.03 907.58 814.79 900.72 829.55 890.99 844.31 879.72 859.08 865.96 864.55 852.2 870.86 838.44 877.67 824.68 884.6 810.92 891.28 797.15 897.35 783.39 902.48 769.63 906.39 755.87 908.88 742.11 909.79 728.35 909.09 714.59 906.82 700.82 903.09 687.06 898.11 673.3 892.14 659.54 885.52 645.78 878.6 632.02 871.76 618.25 865.36 604.49 859.76 590.73 855.25 576.97 852.08 563.21 850.42 549.45 850.37 535.69 851.92 521.92 855 508.16 859.43 494.4 864.97 480.64 871.33 466.88 878.15 453.12 885.08 439.35 891.73 425.59 897.75 411.83 902.8 398.07 906.62 384.31 908.99 370.55 909.79 356.79 908.98 343.02 906.6 329.26 902.78 315.5 897.72 301.74 891.7 287.98 885.05 274.22 878.12 260.46 871.29 246.69 864.94 232.93 859.4 219.17 854.98 205.41 851.91 191.65 850.37 177.89 850.43 164.12 852.09 150.36 855.27 136.6 859.78 122.84 865.39 109.08 871.79 95.32 878.64 81.56 885.56 67.79 892.18 54.03 898.14 40.27 903.11 26.51 906.83 5.99 904.33 -0.54 889.34 -0.34 879.12 -0.19 868.89 -0.08 858.67 -0.03 848.44 0.17 833.1 0.91 828 13.69 820.98 26.37 812.76 38.92 803.44 51.34 793.16 63.62 782.11 75.74 770.51 87.72 758.61 99.56 746.67 111.28 734.93 122.9 723.64 134.46 713.03 145.98 703.27 157.49 694.51 169.05 686.86 180.68 680.37 192.43 675.03 204.34 670.8 216.44 667.56 228.75 665.18 241.32 663.47 254.14 662.23 267.24 661.22 280.61 660.2 294.26 658.95 308.15 657.25 322.27 654.89 336.59 651.71 351.06 647.59 365.63 642.44 380.26 636.21 394.87 628.93 409.42 620.66 423.84 611.49 438.07 601.56 452.05 591.05 465.73 580.15 479.05 569.09 491.98 558.06 504.48 547.3 516.55 536.98 528.16 527.3 539.32 518.39 550.04 510.37 560.36 503.3 570.32 497.2 579.97 492.06 589.36 487.82 598.59 484.37 607.71 481.58 616.82 479.28 626.01 477.3 635.37 475.44 644.98 473.49 654.93 471.28 665.3 468.62 676.16 465.36 687.57 461.38 699.57 456.58 712.2 450.9 725.47 444.35 739.39 436.94 753.93 428.74 769.07 419.84 784.76 410.37 784.76 410.37 784.76 410.37" fill="url(#uuunion-grad3)" filter="url(#uuunion-blur2)"></path></svg>