<svg xmlns="http://www.w3.org/2000/svg" version="1.1" xmlns:xlink="http://www.w3.org/1999/xlink" xmlns:svgjs="http://svgjs.dev/svgjs" viewBox="0 0 800 800"><defs><filter id="uuunion-blur" x="-100%" y="-100%" width="400%" height="400%" color-interpolation-filters="sRGB">
        <feGaussianBlur in="SourceGraphic" stdDeviation="7.5 0" result="blur"></feGaussianBlur>
        <feDropShadow stdDeviation="12.307692307692308" in="blur" dx="10" dy="10" flood-color="hsl(316, 0%, 0%)" flood-opacity="0.25" x="0%" y="0%" width="100%" height="100%"></feDropShadow>
      </filter><filter id="uuunion-blur2" x="-100%" y="-100%" width="400%" height="400%" color-interpolation-filters="sRGB">
        <feGaussianBlur in="SourceGraphic" stdDeviation="7.5 0" result="blur"></feGaussianBlur>
        <feDropShadow stdDeviation="12.307692307692308" in="blur" dx="-10" dy="-10" flood-color="hsl(316, 0%, 0%)" flood-opacity="0.25" x="0%" y="0%" width="100%" height="100%"></feDropShadow>
      </filter><linearGradient gradientTransform="rotate(0, 0.5, 0.5)" x1="50%" y1="0%" x2="50%" y2="100%" id="uuunion-grad"><stop stop-color="hsl(37, 7%, 13%)" offset="10%"></stop><stop stop-color="hsl(316, 0%, 0%)" offset="90%"></stop></linearGradient><linearGradient gradientTransform="rotate(135, 0.5, 0.5)" x1="50%" y1="0%" x2="50%" y2="100%" id="uuunion-grad2"><stop stop-color="hsl(37, 7%, 13%)" offset="25%"></stop><stop stop-color="hsl(316, 0%, 0%)" offset="100%"></stop></linearGradient><linearGradient gradientTransform="rotate(333, 0.5, 0.5)" x1="50%" y1="0%" x2="50%" y2="100%" id="uuunion-grad3"><stop stop-color="hsl(37, 7%, 13%)" offset="0%"></stop><stop stop-color="hsl(316, 0%, 0%)" offset="75%"></stop></linearGradient></defs><path d="M-78.9 -84.48Q-64.29 -81.22 -49.68 -77.78 -35.08 -74.67 -20.47 -72.39 -5.86 -71.27 8.74 -71.5 23.35 -73.03 37.95 -75.64 52.56 -78.91 67.17 -82.35 81.78 -85.43 96.39 -87.68 110.99 -88.74 125.6 -88.45 140.21 -86.87 154.82 -84.23 169.43 -80.94 184.03 -77.5 198.64 -74.45 213.25 -72.25 227.86 -71.24 242.47 -71.58 257.08 -73.21 271.68 -75.89 286.29 -79.2 300.9 -82.63 315.51 -85.66 330.12 -87.81 344.72 -88.76 359.33 -88.37 373.94 -86.69 388.55 -83.97 403.16 -80.65 417.76 -77.23 432.37 -74.23 446.98 -72.11 461.59 -71.21 476.2 -71.67 490.8 -73.4 505.41 -76.14 520.02 -79.48 534.63 -82.9 549.24 -85.87 563.84 -87.94 578.45 -88.78 593.06 -88.28 607.67 -86.5 622.28 -83.72 636.88 -80.36 651.49 -76.95 666.1 -74.01 680.71 -71.99 695.32 -71.2 709.93 -71.76 724.53 -73.59 739.14 -76.4 753.75 -79.77 768.36 -83.17 782.97 -86.08 797.57 -88.06 812.18 -88.79 826.79 -88.18 841.4 -86.3 856.01 -83.45 856.46 -68.54 859.19 -53.63 863.94 -38.72 870.24 -23.81 877.49 -8.9 884.98 6 891.99 20.92 897.83 35.83 901.95 50.74 903.94 65.65 903.61 80.56 901 95.47 896.35 110.39 890.11 125.3 882.9 140.21 875.4 155.12 868.35 170.03 862.43 184.94 858.21 199.85 856.1 214.77 856.3 229.68 858.8 244.59 863.35 259.5 869.52 274.41 876.7 289.32 884.19 304.24 891.29 319.15 897.29 334.06 901.61 348.97 903.84 363.88 903.76 378.79 901.38 393.7 896.93 408.62 890.83 423.53 883.69 438.44 876.19 453.35 869.06 468.26 862.99 483.17 858.56 498.09 856.21 513 856.17 527.91 858.43 542.82 862.78 557.73 868.8 572.64 875.9 587.55 883.4 602.47 890.57 617.38 896.72 632.29 901.24 647.2 903.71 662.11 903.88 677.02 901.74 691.94 897.49 706.85 891.54 721.76 884.48 736.67 876.98 751.58 869.78 766.49 863.56 781.4 858.94 796.32 856.35 811.23 856.06 826.14 858.08 841.05 857.76 859.67 838.49 858.43 823.68 856.8 808.88 858.74 794.07 863.95 779.27 871.62 764.46 880.59 749.65 889.46 734.85 896.88 720.04 901.7 705.24 903.18 690.43 901.1 675.63 895.77 660.82 888.01 646.01 879.02 631.21 870.18 616.4 862.85 601.6 858.16 586.79 856.82 571.99 859.05 557.18 864.5 542.38 872.33 527.57 881.34 512.76 890.15 497.96 897.39 483.15 901.96 468.35 903.14 453.54 900.77 438.74 895.2 423.93 887.3 409.12 878.27 394.32 869.5 379.51 862.35 364.71 857.92 349.9 856.87 335.1 859.39 320.29 865.07 305.48 873.05 290.68 882.1 275.87 890.82 261.07 897.88 246.26 902.19 231.46 903.08 216.65 900.42 201.85 894.63 187.04 886.58 172.23 877.51 157.43 868.83 142.62 861.87 127.82 857.7 113.01 856.95 98.21 859.75 83.4 865.66 68.59 873.78 53.79 882.85 38.98 891.49 24.18 898.35 9.37 902.4 -5.42 902.99 -20.23 900.06 -35.04 894.03 -49.84 885.85 -64.65 876.76 -79.45 868.18 -79.18 853.29 -78.99 838.41 -78.9 823.52 -78.92 808.64 -79.03 793.75 -79.24 778.86 -79.53 763.98 -79.86 749.09 -80.2 734.21 -80.52 719.32 -80.79 704.44 -80.99 689.55 -81.09 674.67 -81.08 659.78 -80.96 644.9 -80.76 630.01 -80.48 615.13 -80.15 600.24 -79.81 585.35 -79.48 570.47 -79.21 555.58 -79.01 540.7 -78.91 525.81 -78.91 510.93 -79.02 496.04 -79.22 481.16 -79.5 466.27 -79.82 451.39 -80.16 436.5 -80.49 421.62 -80.77 406.73 -80.97 391.84 -81.08 376.96 -81.08 362.07 -80.98 347.19 -80.78 332.3 -80.51 317.42 -80.19 302.53 -79.84 287.65 -79.52 272.76 -79.24 257.88 -79.03 242.99 -78.91 228.11 -78.9 213.22 -79 198.33 -79.19 183.45 -79.46 168.56 -79.79 153.68 -80.13 138.79 -80.46 123.91 -80.74 109.02 -80.95 94.14 -81.07 79.25 -81.09 64.37 -81 49.48 -80.81 34.6 -80.54 19.71 -80.22 4.82 -79.88 -10.05 -79.55 -24.94 -79.26 -39.82 -79.05 -54.71 -78.92 -69.59 -78.9 -84.48" fill="url(#uuunion-grad)"></path><path d="M-78.9 -84.48Q-78.92 -69.59 -79.05 -54.71 -79.26 -39.82 -79.55 -24.94 -79.88 -10.05 -80.22 4.82 -80.54 19.71 -80.81 34.6 -81 49.48 -81.09 64.37 -81.07 79.25 -80.95 94.14 -80.74 109.02 -80.46 123.91 -80.13 138.79 -79.79 153.68 -79.46 168.56 -79.19 183.45 -79 198.33 -78.9 213.22 -78.91 228.11 -79.03 242.99 -79.24 257.88 -79.52 272.76 -79.84 287.65 -80.19 302.53 -80.51 317.42 -80.78 332.3 -80.98 347.19 -81.08 362.07 -81.08 376.96 -80.97 391.84 -70.74 395.71 -60.51 399.86 -50.27 404.03 -40.04 407.92 -29.81 411.26 -19.57 413.83 -0.39 415.84 2.92 415.97 15.75 408.51 28.59 399.5 41.42 389.25 54.22 378.19 66.98 366.85 79.68 355.78 92.3 345.47 104.84 336.36 117.28 328.73 129.61 322.71 141.84 318.26 153.94 315.16 165.94 313.07 177.82 311.52 189.59 310.02 201.28 308.06 212.88 305.19 224.41 301.06 235.9 295.46 247.36 288.35 258.82 279.83 270.3 270.17 281.82 259.73 293.4 248.99 305.08 238.41 316.88 228.45 328.81 219.51 340.9 211.85 353.16 205.6 365.62 200.75 378.27 197.12 391.14 194.42 404.21 192.26 417.49 190.2 430.98 187.8 444.66 184.64 458.52 180.41 472.54 174.92 486.7 168.1 500.97 160.03 515.32 150.92 529.72 141.1 544.14 130.95 558.53 120.89 572.85 111.33 587.08 102.6 601.18 94.97 615.1 88.55 628.82 83.34 642.3 79.22 655.51 75.95 668.44 73.18 681.06 70.55 693.36 67.67 705.33 64.18 716.97 59.8 728.29 54.35 739.29 47.77 749.99 40.1 760.41 31.52 770.59 22.29 780.55 12.74 790.34 3.22 800 -5.9 792.15 -23.25 785.34 -40.59 780.45 -57.94 778.13 -75.28 778.69 -92.63 782.05 -109.97 784.02 -134.6 765.45 -138.8 750.63 -135.9 735.81 -133.63 720.99 -132.32 706.17 -132.18 691.36 -133.23 676.54 -135.3 661.72 -138.09 646.9 -141.17 632.08 -144.06 617.26 -146.34 602.44 -147.66 587.62 -147.81 572.8 -146.77 557.98 -144.71 543.17 -141.93 528.35 -138.85 513.53 -135.95 498.71 -133.66 483.89 -132.34 469.07 -132.18 454.25 -133.2 439.43 -135.26 424.61 -138.04 409.79 -141.11 394.98 -144.02 380.16 -146.31 365.34 -147.65 350.52 -147.82 335.7 -146.8 320.88 -144.75 306.06 -141.98 291.24 -138.9 276.42 -136 261.6 -133.7 246.79 -132.35 231.97 -132.17 217.15 -133.18 202.33 -135.22 187.51 -137.99 172.69 -141.06 157.87 -143.97 143.05 -146.28 128.23 -147.63 113.42 -147.82 98.6 -146.83 83.78 -144.79 68.96 -142.03 54.14 -138.96 39.32 -136.04 24.5 -133.73 9.68 -132.37 -5.13 -132.16 -19.95 -133.15 -34.76 -135.17 -49.58 -137.93 -64.4 -141.01 -79.22 -143.92 -94.04 -146.25 -108.86 -147.62 -123.68 -147.83 -132.93 -134.21 -115.44 -118.33 -106.2 -110.56 -97.04 -102.31 -87.94 -93.59 -78.9 -84.48" fill="url(#uuunion-grad2)" filter="url(#uuunion-blur)"></path><path d="M819.52 390.54Q829.75 387.51 839.98 385.34 850.21 384.17 860.45 384.1 870.68 385.12 880.91 387.17 891.15 390.09 901.38 393.7 896.93 408.62 890.83 423.53 883.69 438.44 876.19 453.35 869.06 468.26 862.99 483.17 858.56 498.09 856.21 513 856.17 527.91 858.43 542.82 862.78 557.73 868.8 572.64 875.9 587.55 883.4 602.47 890.57 617.38 896.72 632.29 901.24 647.2 903.71 662.11 903.88 677.02 901.74 691.94 897.49 706.85 891.54 721.76 884.48 736.67 876.98 751.58 869.78 766.49 863.56 781.4 858.94 796.32 856.35 811.23 856.06 826.14 858.08 841.05 858.37 859.93 840.92 859.03 827.34 856.87 813.75 857.71 800.16 861.45 786.58 867.59 772.99 875.35 759.4 883.7 745.81 891.58 732.23 897.95 718.64 901.99 705.05 903.18 691.46 901.35 677.88 896.76 664.29 889.99 650.7 881.92 637.12 873.6 623.53 866.11 609.94 860.43 596.35 857.28 582.77 857.08 569.18 859.86 555.59 865.25 542 872.55 528.42 880.82 514.83 888.98 501.24 895.98 487.66 900.9 474.07 903.11 460.48 902.32 446.89 898.63 433.31 892.52 419.72 884.79 406.13 876.43 392.55 868.54 378.96 862.13 365.37 858.04 351.78 856.81 338.2 858.58 324.61 863.13 311.02 869.87 297.43 877.93 283.85 886.25 270.26 893.76 256.67 899.49 243.09 902.68 229.5 902.93 215.91 900.2 202.32 894.85 188.74 887.58 175.15 879.31 161.56 871.14 147.97 864.11 134.39 859.15 120.8 856.89 107.21 857.63 93.63 861.28 80.04 867.35 66.45 875.06 52.86 883.42 39.28 891.33 25.69 897.77 5.23 897.47 -1.78 882.89 -1.88 872.74 -1.95 862.59 -1.97 852.44 -1.95 842.29 -1.6 827.07 -0.81 822 11.52 814.48 23.93 804.75 36.43 793.22 49.01 780.45 61.7 767.15 74.47 754.09 87.34 741.98 100.3 731.45 113.33 722.93 126.44 716.66 139.6 712.62 152.8 710.54 166.02 709.97 179.25 710.28 192.46 710.78 205.63 710.72 218.75 709.47 231.78 706.49 244.72 701.45 257.54 694.25 270.22 684.99 282.76 674.03 295.13 661.88 307.34 649.19 319.38 636.64 331.24 624.91 342.94 614.58 354.47 606.06 365.85 599.59 377.09 595.16 388.21 592.57 399.23 591.4 410.18 591.1 421.09 591.02 431.99 590.51 442.9 588.94 453.86 585.85 464.9 580.89 476.05 573.96 487.36 565.14 498.83 554.74 510.52 543.2 522.42 531.11 534.58 519.09 547.01 507.77 559.71 497.67 572.7 489.19 585.97 482.55 599.53 477.78 613.37 474.7 627.46 472.95 641.8 472.04 656.35 471.38 671.08 470.38 685.96 468.48 700.96 465.23 716.02 460.32 731.11 453.62 746.17 445.21 761.17 435.34 776.05 424.4 790.76 412.91 805.26 401.44 819.52 390.54 819.52 390.54 819.52 390.54" fill="url(#uuunion-grad3)" filter="url(#uuunion-blur2)"></path></svg>