<svg xmlns="http://www.w3.org/2000/svg" version="1.1" xmlns:xlink="http://www.w3.org/1999/xlink" xmlns:svgjs="http://svgjs.dev/svgjs" viewBox="0 0 800 800"><g fill="none" stroke-width="1" stroke="url(#ssscribble-grad)" stroke-linecap="round"><path d="M928.92 206.04C936.07 229.79 904.01 253.02 841.65 277.18 760.87 303.53 675.72 334.83 599.76 374.34 541.25 420.36 506.24 478.37 494.39 548.46 505.07 622.15 530.37 700.87 562.39 775.3 601.33 832.63 635.67 866.48 661.16 866.66 682.92 834.47 693.22 770.82 692.94 687.93 688.38 611.57 675.99 556.87 658.15 543.63 638.89 581.66 616.78 663.14 593.03 767.68 569.28 865.18 545.02 923.36 519.49 928.39 492.55 882.68 461.74 798.28 425.14 698.58 384.26 603 334.86 531.47 276.49 492.56 214.4 488.04 145.97 511.04 75.9 549.57 12.76 600.23 -40.69 646.4 -76.1 680.7 -88.98 707.75 -75.26 718.56 -34.16 715.44 24.38 704.9 96.01 685.71 167.62 662.23 220.83 636.56 248.07 610.78 240.92 587.04 197.27 563.29 130.05 542.69 54.4 523.57 -19.72 502.27 -74.48 478.25 -101.82 447.64 -101.64 409.61 -72.38 359.68 -21.2 296.04 46.02 225.13 119.98 144.87 192.26 63.08 261.51 -6.56 320.65 -57.73 368.41 -77.93 407.47 -63.75 437.04 -13.51 460.09 64.64 477.92 146.94 493.83 217.82 510.65 254.37 526.11 240.17 545.14 177.18 568.89 79.68 592.64 -24.85 619.98 -101.52 649.3 -130.38 677.27 -107.97 704.57 -39.76 727.89 54 746 154.3 755.53 239.24 753.08 296.16 741.92 320.71 716.87 315.01 678.75 288.82 637.59 245.51 591.8 200.89 549.29 163.79 522.84 130.3 514.88 111.4 532.1 106.54 576.85 108.18 645.12 120.08 728.42 138.53 813.23 159.15 885.27 182.29 928.92 206.04Q928.92 206.04 928.92 206.04" opacity="0.88"></path><path d="M907.3 227.48C915.3 249.74 888.48 276.39 833.89 307.98 761.03 341.14 681.18 381.92 606.07 431.56 542.9 484.56 498.29 546.94 473.64 616.17 469.13 682.79 480.01 747.41 500.3 801.02 530.21 834.89 559.98 844.03 585.02 822.73 609.82 777.01 625.92 709 632.7 631.47 636.94 566.92 632.85 526.57 621.64 525.02 609.39 568.06 591.82 647.67 569.56 746.07 547.29 838.27 521.39 896.86 491.64 909.44 460.87 876.77 424.45 806.32 381.63 716.35 336.28 622.55 283.51 543.11 224.39 488.35 165.04 461.71 103.3 461.93 44.21 481.23 -5.24 517.26 -42.53 556.7 -61.19 591.52 -59.73 625.53 -35.09 647.78 11.76 657.63 70.55 662.75 137.73 657.6 201.99 644.75 248 630.11 270.3 610.96 262.3 588.7 222.17 566.44 160.89 542.11 90.91 514.76 19.87 485.63 -36.53 450.27 -70.64 406.58 -82.03 358.15 -67.18 299.24 -30.8 230.92 22.55 161.77 86.13 90.38 152.45 25.16 220.24 -23.32 282.27 -49.94 335.9 -46.49 383.99 -14.93 423.39 44.53 455.51 122.01 483.34 195.67 507.14 253.45 528.97 277.54 549.53 256.39 570.53 193.3 592.8 101.12 615.06 2.7 637.54 -72.4 658.97 -106.86 679.12 -96.73 695.83 -43.71 706.58 37.14 713.04 130.99 710.3 218.97 696.53 287.87 677.22 332.36 647.15 349.63 608.54 344.94 571.4 320.51 534.22 287.85 504.05 255.54 490.84 220.63 495.96 194.91 523.66 180.49 574.1 169.44 643.18 169.16 722.81 177.99 801.38 188.38 867.17 205.22 907.3 227.48Q907.3 227.48 907.3 227.48" opacity="0.28"></path><path d="M885.94 291.36C894.29 312.14 872.03 340.42 824.7 375.9 759.83 412.11 686.27 456.56 613.93 508.57 548.85 560.86 497.63 618.72 462.78 678.01 444.85 730.4 441.72 775.43 449.23 805.55 467.48 816.51 488.91 804.28 509.12 766.94 531.78 713.5 548.73 646.37 558.3 577.7 567.02 526.24 567.94 499.77 561.17 508.57 553.83 555.39 539.73 632.51 518.95 724.69 498.17 811.45 471.7 869.76 439.85 888.74 407.42 868.16 368.71 811.87 323.98 733.63 278.4 645.67 227.23 563.63 172.54 498.27 120.3 453.65 69.03 432.63 23.55 431.26 -11.18 447.94 -32.69 473.51 -36.4 500.63 -23.18 532.01 9.39 556.86 59.24 572.48 116.35 586.37 178.08 590.4 234.93 585.2 274.24 578.91 292.29 565.14 283.94 544.36 247.51 523.58 192.25 496.78 128.22 463.87 61.07 429.89 4.39 388.05 -34.77 338.15 -55.93 286.52 -54.26 227.46 -32.45 164.05 5.93 104.9 56.65 49.5 113.45 5.58 175.09 -20.27 234.99 -23.89 289.73 -0.91 342.06 42.81 387.37 106.21 425.65 178.94 460.98 241.95 491.08 286.41 517.06 298.97 542.02 271.97 564.71 209.45 585.49 122.69 606.27 30.51 624.16 -42.39 638.39 -81.19 651.6 -81.97 659.3 -43.68 659.98 23 657.71 106.91 646.63 192.68 626.33 267.75 603.61 326.73 573.55 363.59 539.14 379.87 509.57 376.98 483.49 361.79 466.73 341.43 466.55 314.16 483.51 290.52 519.9 274.25 574.29 258.24 642.79 251.59 717.96 254.57 790.01 258.28 849.49 270.57 885.92 291.35Q885.94 291.36 885.94 291.36" opacity="0.77"></path><path d="M864.44 381.72C873.18 401.01 855.25 428.65 814.97 463.63 758.22 498.57 691.75 540.44 623.74 587.26 559.06 631.97 503.95 678.13 461.5 721.14 424.4 766.94 421.88 763.21 439.43 701.94 455.84 646.52 469.39 584.82 477.87 527.58 486.9 489.75 489.44 476.25 484.78 493.89 479.99 543.28 468.11 617.32 448.81 703.19 429.52 784.38 403.72 841.76 372.13 865.96 340.39 856.28 302.75 813.85 260.28 748.66 218.36 669.86 173.03 590.18 126.89 519.81 84.93 462.69 46.56 424.25 15.94 403.63 -4.11 399.67 -11.07 407.43 -2.02 421.1 20.33 442.12 58.14 461.55 108.67 475.68 162.53 490.7 218.02 497.86 267.33 496.24 300.16 494.31 314.18 483.85 305.44 464.56 272.45 445.27 222.93 418.05 164.93 383.59 102.4 348.83 46.95 306.57 4.81 258.11 -23.73 210.54 -33.12 159.34 -24.51 108.58 -0.83 65.16 35.93 29.69 80.89 8.36 132.72 3.68 186.1 19.23 237.39 56.26 288.9 106.54 335.53 168.9 376.2 233.56 415.37 284.62 449.04 316.07 477.43 318.32 505.16 286.68 528.72 225.41 548.02 144.24 567.31 58.35 581.43 -11.78 590.09 -53.73 598.09 -63.94 599.52 -39.47 593.79 12.5 586.56 83.88 571.71 162.89 549.94 238.39 528.39 305.59 502.71 356.82 476.16 390.86 449.55 410.81 463.84 388.13 519.89 369.68 576.17 356.29 642.61 349.52 712.57 350.98 778.02 352.38 831.45 362.42 864.44 381.72Q864.44 381.72 864.44 381.72" opacity="0.40"></path><path d="M842.92 476.54C851.91 494.35 837.95 519.15 804.32 549.64 755.61 579.51 696.77 613.68 634.42 649.58 515.22 710.71 430.82 752.84 388.43 743.37 383.07 687.62 394.8 584.05 401.67 482.35 407.5 457.97 408.64 456.15 403.92 481.04 399.41 531.78 388.53 602.19 370.72 681.68 352.91 757.17 329.01 812.97 299.93 841.22 271.06 841.09 237.52 811.8 200.83 760.25 132.22 618.03 64.89 483.68 23.57 400 19.27 368.77 65.88 375.09 158.97 385.77 208.27 395.32 256.97 399.97 298.81 397.88 325.56 396.13 335.91 386.75 326.92 368.94 297.25 351.13 253.29 325.74 201.37 293.9 144.06 262.41 91.09 225.35 47.82 184.93 -6.41 112.52 2.91 50.6 58.27 35.13 144.03 72.11 236.57 168.67 315.06 284.78 354.14 323.28 388.3 342.44 416.99 335.71 445.39 300.6 468.74 241.21 486.55 165.73 504.36 86.23 515.79 19.41 520.98 -24.46 525.88 -42.48 524.12 -30.53 515.91 6.89 499.15 134.7 462.21 276.06 423.13 378.51 414.47 434.66 442.93 448.13 523.28 448.74 579.6 443.7 642.7 441.93 706.89 445.65 765.68 448.75 813.25 458.73 842.92 476.54Q842.92 476.54 842.92 476.54" opacity="0.52"></path><path d="M821.44 552.64C821.29 585.29 751.04 632.95 645.12 680.81 531.63 714.14 439.86 720.67 381.5 680.73 348.81 566.08 335.8 480.64 297.45 660.19 264.79 786.25 213.97 823.76 155.06 767.22 103.9 648.32 61.35 518.05 47.04 418.95 62.6 355.81 119.73 330.19 209.29 319.78 291.28 322.63 348.29 313.59 348.44 280.94 280.57 248.29 181.92 195.11 93.7 135.68 30.08 89.5 18.03 64.15 48.64 84.47 108.86 140.77 183.28 236.41 251.72 331.37 323.01 364 378.32 313.27 410.98 187.24 443.64 48.15 450.55 -19.6 435.85 7.17 424 106.99 400.54 235.99 383.11 346.26 395.29 429 441.97 473.44 529.52 496.69 641.66 505.42 753.55 519.98 821.42 552.63Q821.44 552.64 821.44 552.64" opacity="0.66"></path><path d="M799.94 591.36C802.81 621.04 745.96 651.9 655.17 672.67 551.21 681.41 458.16 661.06 389.74 604.04 342.95 536.57 316.09 459.35 297.75 410.27 287.22 426.42 270.47 510.65 240.78 638.69 211.1 755.89 171.28 802.01 130.37 768.54 97.27 675.88 77.8 559.05 85.69 456.22 115.19 372.67 176.75 320.77 258.96 289.71 327.99 271 372.81 251.76 369.94 222.08 310.54 192.4 223.87 155.07 141.76 122.33 73.54 101.95 45.18 107.5 54.07 152.14 88.78 216.07 141.92 301.41 196.17 372.32 255.46 384.04 303.96 325.91 333.65 208.74 367.38 44.57 357.35 139.24 358.13 299.98 388.15 395.9 447.98 462.58 537.96 505.29 641.82 535.96 740.52 561.66 799.92 591.35Q799.94 591.36 799.94 591.36" opacity="0.23"></path><path d="M778.42 583.21C783.74 609.93 739.25 625.92 663.83 625.11 572.35 616.57 483.54 581.26 411.27 520.9 352.58 463.14 311.45 408.01 282 384.61 259.13 416 236.67 500.68 209.95 617.18 183.24 724.84 154.8 776.73 131.37 763.43 114.52 697.74 113.95 601.24 137.62 505.35 174.88 414.61 235.35 346.55 307.25 300.08 363.08 262.66 396.74 233.49 391.42 206.77 340.11 180.05 265.43 158.32 191.32 149.44 122.91 149.61 83.75 175.98 75.35 231.7 87.25 292.57 118.93 360.72 157.23 406.83 201.23 400.57 240.4 337.86 267.12 230.23 299.7 76.77 320.88 112.73 348.99 247.24 392.41 342.62 459.91 419.63 547.9 474.48 641.6 521.59 727.11 556.5 778.42 583.21Q778.42 583.21 778.42 583.21" opacity="0.72"></path><path d="M756.87 530.17C764.09 553.91 730.83 559.66 670.5 546.27 593.49 529.64 513.5 491.71 443.22 439.69 379.65 398.28 330.03 366.97 293.05 366.22 260.75 408.65 233.78 491.09 210.03 595.63 177.14 720.57 161.25 675.08 199.97 558.32 239.13 472.93 293.93 400.62 353.53 346.94 396.45 298.16 420.09 262.47 412.87 238.73 369.14 214.98 306.18 205.41 241.43 213.04 176.69 225.56 132.23 260.81 111.86 315.07 105.73 364.57 118.47 411.64 141.41 434.3 169.51 413.64 198.44 349.16 222.19 251.68 245.94 147.13 262.26 74.29 275.31 49.25 293.52 67.4 317.85 123.9 355.1 196.44 406.61 279.58 476.25 354.59 558.4 412.37 640.55 466.91 713.14 506.42 756.87 530.17Q756.87 530.17 756.87 530.17" opacity="0.83"></path><path d="M735.37 445.29C743.81 466.07 720.32 467.2 674.19 450.93 612.57 434.9 544.75 404.44 481.42 368.65 419.73 346.56 367.99 337.74 328.09 355.14 290.87 404.24 261.75 481.96 240.97 574.13 214.96 688.46 224.48 690.73 268.58 606.8 304.67 536.51 350.46 470.95 396.85 418.87 427.74 368.03 442.81 330.98 434.37 310.2 397.87 289.42 346.25 286.87 291.76 301.71 233.79 317.78 188.97 350.9 162.04 393.96 143.74 427.04 141.9 452.24 151.97 454.55 165.94 423.46 185.22 359.89 206 273.13 226.78 180.96 247.09 111.66 269.13 77.79 295.07 75.62 329.34 106.48 374.87 155.81 429.05 218.83 495.9 281.72 569.1 333.77 638.83 386.05 698.87 424.51 735.37 445.29Q735.37 445.29 735.37 445.29" opacity="0.63"></path><path d="M713.94 349.36C710.2 384.98 623.62 358.35 521.46 314.71 413.53 321.83 333.16 403.14 297.54 552.69 261.92 686.9 277.78 706.91 339.03 642.91 394.5 535.28 452.2 439.33 455.94 403.71 379.22 368.08 282.2 399.53 223.15 460.47 180.45 477.79 185.75 428.9 221.37 294.69 256.99 145.14 316.19 92.71 405.58 132.28 511.31 222.6 637.21 313.73 713.92 349.35Q713.94 349.36 713.94 349.36" opacity="0.95"></path><path d="M692.37 265.72C695.36 295.4 636.18 288.81 559.43 282.49 471.57 315.09 400.77 403.09 371.09 531.13 341.4 648.34 358.44 687.69 407.4 660.13 445.25 595.51 480.36 525.87 477.37 496.18 417.88 466.5 342.25 482.39 290.89 508.1 243.95 496.76 235.89 433.34 265.58 316.13 295.26 188.09 357.08 124.16 442.93 130.46 533.18 175.69 632.88 236.03 692.37 265.72Q692.37 265.72 692.37 265.72" opacity="0.21"></path><path d="M670.88 215C678.09 238.75 642.16 251.86 590.34 274.26 527.44 320.83 472.85 405.11 449.1 509.64 464.45 620.06 428.01 539.9 361.58 533.02 320.4 502.56 307.98 435.14 331.73 337.64 355.47 233.11 410.9 168.09 483.2 152.64 553.58 161.37 627.18 191.26 670.88 215Q670.88 215 670.88 215" opacity="0.18"></path><path d="M649.44 209.61C645.7 245.23 554.66 338.64 519.04 488.19 483.41 622.42 516.7 629.36 520.44 593.74 443.71 558.11 373.48 493.42 409.11 359.19 444.73 209.64 572.71 173.98 649.44 209.61Q649.44 209.61 649.44 209.61" opacity="0.78"></path><path d="M627.94 250.78C635.07 274.52 593.56 362.19 569.82 466.69 546.07 564.19 549.07 598.56 541.94 574.82 498.29 551.07 461.09 478.19 484.84 380.69 508.58 276.19 584.29 227.03 627.94 250.78Q627.94 250.78 627.94 250.78" opacity="0.99"></path></g><defs><linearGradient x1="50%" y1="0%" x2="50%" y2="100%" id="ssscribble-grad"><stop stop-color="hsl(234, 84%, 22%)" stop-opacity="1" offset="0%"></stop><stop stop-color="hsl(331, 90%, 56%)" stop-opacity="1" offset="100%"></stop></linearGradient></defs></svg>