<svg xmlns="http://www.w3.org/2000/svg" version="1.1" xmlns:xlink="http://www.w3.org/1999/xlink" viewBox="0 0 700 700" style="overflow: hidden; display: block;" width="700" height="700"><defs><linearGradient id="two-515" x1="350" y1="-350" x2="350" y2="350" spreadMethod="pad" gradientUnits="userSpaceOnUse"><stop offset="0%" stop-color="	hsl(341, 81%, 47%)" stop-opacity="1"></stop><stop offset="100%" stop-color="hsl(341, 60%, 9%)" stop-opacity="1"></stop></linearGradient></defs><g id="two-0" transform="matrix(1 0 0 1 0 0)" opacity="1"><path transform="matrix(1 0 0 1 350 350)" id="two-1235" d="M 298.788555 31.403942 C 294.021828 44.715118 264.581473 41.947334 263.749955 56.061783 C 262.398648 78.999312 321.6913 80.389096 315.592522 102.542226 C 310.307982 121.737726 274.890002 106.798708 256.387703 114.15116 C 246.221919 118.190844 232.700275 121.801573 228.353035 131.839686 C 223.06117 144.05901 234.247273 158.260103 235.995583 171.460827 C 237.903303 185.865186 249.01584 204.663404 239.198096 215.374933 C 229.229845 226.250671 204.295935 204.982245 194.496896 216.010687 C 181.200964 230.974747 217.255822 264.981352 200.775869 276.344277 C 183.075148 288.548921 162.776609 254.442502 142.60544 246.999867 C 130.934294 242.69352 115.870902 230.495281 105.985898 238.048225 C 84.587578 254.398275 123.936993 301.685992 103.85268 319.625686 C 94.813779 327.699407 78.798771 312.732289 67.263809 316.451345 C 54.345039 320.616563 49.525861 345.126899 36.079435 343.272902 C 14.766298 340.334239 21.470976 290.341888 0 288.969769 C -17.38051 287.859054 -17.467318 325.531563 -34.563768 328.852284 C -46.161119 331.10489 -54.641633 313.27629 -66.432897 312.542203 C -80.388497 311.673372 -94.531188 334.639042 -106.254794 327.018627 C -127.455368 313.238123 -104.41364 274.832819 -111.565197 250.579533 C -114.690932 239.979134 -117.660536 225.783537 -127.742187 221.255956 C -139.934259 215.780604 -154.41348 226.451167 -167.244359 230.192111 C -187.159382 235.998492 -207.560578 260.122315 -226.403378 251.446424 C -237.775096 246.210484 -238.973726 228.467092 -239.870087 215.979996 C -241.07507 199.19353 -233.247445 182.42638 -228.762139 166.205422 C -224.851898 152.064166 -205.369894 135.260749 -214.777358 124.001765 C -234.792375 100.047513 -279.9623 150.132655 -308.427392 137.320722 C -319.444815 132.361859 -330.456812 118.708792 -328.603638 106.769794 C -324.564866 80.75017 -261.531225 82.50482 -266.51742 56.650026 C -271.057289 33.109555 -333.23782 59.129992 -335.96204 35.311033 C -338.599843 12.24765 -275.075838 23.213692 -275.122067 0 C -275.16871 -23.422126 -340.491084 -12.278289 -336.649729 -35.383313 C -331.753371 -64.83398 -257.015961 -24.269148 -247.849531 -52.682045 C -242.276309 -69.957189 -284.541802 -74.643453 -285.514462 -92.769272 C -286.084117 -103.384978 -274.04242 -111.412584 -266.094483 -118.472897 C -257.447056 -126.154581 -245.007039 -129.113778 -235.833121 -136.158316 C -228.28443 -141.954863 -221.135422 -148.903859 -215.346295 -156.458242 C -209.629386 -163.918388 -203.680886 -172.127396 -201.250076 -181.206382 C -197.661146 -194.610902 -201.372621 -209.384033 -201.020811 -223.256228 C -200.599631 -239.863698 -213.319145 -265.576152 -198.743186 -273.546527 C -178.235803 -284.760304 -159.268265 -229.691996 -137.445391 -238.062401 C -124.205259 -243.1408 -129.4564 -265.771974 -124.191707 -278.93914 C -118.523838 -293.11466 -119.117344 -317.469027 -104.186319 -320.652518 C -85.584017 -324.618773 -78.808742 -279.284953 -60.231819 -283.368429 C -41.226238 -287.546131 -52.361811 -327.30885 -35.404881 -336.854942 C -25.160991 -342.621854 -10.999454 -337.066172 -0.000001 -332.918087 C 12.283072 -328.285926 24.322342 -320.30614 32.594148 -310.112612 C 44.382033 -295.586146 36.440951 -261.39051 54.832596 -257.967083 C 75.10004 -254.194494 77.758958 -302.641075 98.374158 -302.764529 C 110.14648 -302.835028 117.26312 -287.440122 123.54319 -277.482549 C 130.881859 -265.846477 128.562307 -248.642747 137.531617 -238.211749 C 143.775139 -230.950747 157.711797 -232.404635 163.100347 -224.48837 C 170.268521 -213.957677 156.724645 -192.766767 167.610361 -186.150166 C 187.942301 -173.791919 217.312891 -227.498233 235.053545 -211.643163 C 247.784084 -200.265702 210.893474 -174.216544 222.290413 -161.50344 C 239.202508 -142.638267 283.274983 -192.621566 298.313049 -172.23112 C 309.109348 -157.592179 271.479714 -140.241011 274.831912 -122.363052 C 277.007146 -110.762084 291.706874 -105.299087 300.756634 -97.721755 C 311.952736 -88.347296 334.081575 -85.921523 336.40408 -71.504895 C 338.918103 -55.899443 317.193211 -45.762995 308.681576 -32.443742 C 302.037997 -22.047678 291.642778 -12.241117 290.103191 -0.000001 C 288.761419 10.668298 302.413548 21.281079 298.788555 31.403942 Z " fill="url(#two-515)" stroke="undefined" stroke-width="1" stroke-opacity="1" fill-opacity="1" visibility="visible" stroke-linecap="butt" stroke-linejoin="miter" stroke-miterlimit="4"></path></g></svg>