<svg xmlns="http://www.w3.org/2000/svg" version="1.1" xmlns:xlink="http://www.w3.org/1999/xlink" xmlns:svgjs="http://svgjs.dev/svgjs" viewBox="0 0 800 800"><defs><filter id="uuunion-blur" x="-100%" y="-100%" width="400%" height="400%" color-interpolation-filters="sRGB">
        <feGaussianBlur in="SourceGraphic" stdDeviation="4 3" result="blur"></feGaussianBlur>
        <feDropShadow stdDeviation="12.307692307692308" in="blur" dx="10" dy="10" flood-color="hsl(0, 0%, 6%)" flood-opacity="0.55" x="0%" y="0%" width="100%" height="100%"></feDropShadow>
      </filter><filter id="uuunion-blur2" x="-100%" y="-100%" width="400%" height="400%" color-interpolation-filters="sRGB">
        <feGaussianBlur in="SourceGraphic" stdDeviation="4 3" result="blur"></feGaussianBlur>
        <feDropShadow stdDeviation="12.307692307692308" in="blur" dx="-10" dy="-10" flood-color="hsl(0, 0%, 6%)" flood-opacity="0.55" x="0%" y="0%" width="100%" height="100%"></feDropShadow>
      </filter><linearGradient gradientTransform="rotate(37, 0.5, 0.5)" x1="50%" y1="0%" x2="50%" y2="100%" id="uuunion-grad"><stop stop-color="hsl(341, 81%, 47%)" offset="10%"></stop><stop stop-color="hsl(0, 0%, 6%)" offset="90%"></stop></linearGradient><linearGradient gradientTransform="rotate(188, 0.5, 0.5)" x1="50%" y1="0%" x2="50%" y2="100%" id="uuunion-grad2"><stop stop-color="hsl(341, 81%, 47%)" offset="25%"></stop><stop stop-color="hsl(0, 0%, 6%)" offset="100%"></stop></linearGradient><linearGradient gradientTransform="rotate(333, 0.5, 0.5)" x1="50%" y1="0%" x2="50%" y2="100%" id="uuunion-grad3"><stop stop-color="hsl(341, 81%, 47%)" offset="0%"></stop><stop stop-color="hsl(0, 0%, 6%)" offset="75%"></stop></linearGradient></defs><path d="M-79.27 -85.33Q-64.53 -82.04 -49.79 -78.4 -35.05 -75.04 -20.31 -72.52 -5.57 -71.28 9.17 -71.53 23.91 -73.23 38.65 -76.09 53.39 -79.62 68.13 -83.21 82.87 -86.25 97.61 -88.22 112.35 -88.78 127.09 -87.84 141.84 -85.56 156.58 -82.32 171.32 -78.69 186.06 -75.28 200.8 -72.68 215.54 -71.32 230.28 -71.46 245.02 -73.05 259.76 -75.83 274.51 -79.33 289.25 -82.93 303.99 -86.04 318.73 -88.11 333.47 -88.79 348.21 -87.97 362.95 -85.78 377.69 -82.61 392.44 -78.98 407.18 -75.53 421.92 -72.84 436.66 -71.38 451.4 -71.39 466.14 -72.87 480.88 -75.58 495.62 -79.03 510.36 -82.66 525.11 -85.82 539.85 -87.99 554.59 -88.79 569.33 -88.09 584.07 -86 598.81 -82.88 613.55 -79.27 628.29 -75.78 643.03 -73.02 657.78 -71.44 672.52 -71.33 687.26 -72.71 702 -75.33 716.74 -78.74 731.48 -82.38 746.22 -85.6 760.96 -87.87 775.7 -88.79 790.45 -88.2 805.19 -86.21 819.93 -83.16 834.67 -79.56 849.41 -76.04 864.15 -73.2 857.79 -58.02 855.93 -42.85 858.96 -27.68 866.27 -12.5 876.36 2.66 887.19 17.83 896.56 33.01 902.56 48.18 903.98 63.36 900.54 78.53 892.92 93.7 882.67 108.88 871.88 124.05 862.74 139.22 857.11 154.4 856.12 169.57 859.98 184.75 867.9 199.92 878.28 215.09 889.01 230.27 897.91 245.44 903.17 260.61 903.72 275.79 899.46 290.96 891.24 306.14 880.74 321.31 870.09 336.48 861.45 351.66 856.57 366.83 856.46 382 861.12 397.18 869.62 412.35 880.22 427.53 890.78 442.7 899.15 457.87 903.63 473.05 903.3 488.22 898.25 503.39 889.49 518.57 878.8 533.74 868.35 548.92 860.27 564.09 856.19 579.26 856.95 594.44 862.39 609.61 871.4 624.79 882.16 639.96 892.48 655.13 900.26 670.31 903.93 685.48 902.74 700.65 896.93 715.83 887.68 731 876.87 746.18 866.69 761.35 859.22 776.52 855.97 791.7 857.59 806.87 863.77 822.04 873.24 837.22 884.08 852.39 894.09 867.57 894.96 886.58 873.29 881.14 857.9 871.66 842.5 863.61 827.11 858.36 811.72 856.82 796.32 859.24 780.93 865.21 765.54 873.72 750.14 883.29 734.75 892.3 719.36 899.21 703.96 902.83 688.57 902.54 673.18 898.39 657.78 891.1 642.39 881.9 627 872.38 611.6 864.16 596.21 858.65 580.82 856.8 565.42 858.91 550.03 864.63 534.64 872.98 519.24 882.53 503.85 891.64 488.45 898.77 473.06 902.68 457.67 902.71 442.27 898.85 426.88 891.77 411.49 882.67 396.09 873.11 380.7 864.74 365.31 858.97 349.91 856.8 334.52 858.6 319.13 864.06 303.73 872.25 288.34 881.76 272.95 890.97 257.55 898.3 242.16 902.5 226.77 902.85 211.37 899.29 195.98 892.42 180.58 883.43 165.19 873.85 149.8 865.32 134.4 859.31 119.01 856.83 103.62 858.31 88.22 863.51 72.83 871.53 57.44 880.99 42.04 890.29 26.65 897.82 11.26 902.31 -4.13 902.97 -19.52 899.71 -34.91 893.07 -50.31 884.19 -65.7 874.6 -81.09 865.93 -80.96 851.06 -80.64 836.2 -80.18 821.34 -79.69 806.47 -79.25 791.61 -78.97 776.75 -78.9 761.88 -79.05 747.02 -79.39 732.16 -79.85 717.29 -80.35 702.43 -80.77 687.57 -81.03 672.7 -81.09 657.84 -80.92 642.97 -80.56 628.11 -80.09 613.25 -79.6 598.38 -79.19 583.52 -78.94 568.66 -78.91 553.79 -79.09 538.93 -79.46 524.07 -79.94 509.2 -80.43 494.34 -80.83 479.48 -81.06 464.61 -81.07 449.75 -80.87 434.88 -80.49 420.02 -80.01 405.16 -79.52 390.29 -79.13 375.43 -78.92 360.57 -78.93 345.7 -79.15 330.84 -79.54 315.98 -80.03 301.11 -80.51 286.25 -80.88 271.39 -81.08 256.52 -81.05 241.66 -80.81 226.79 -80.41 211.93 -79.92 197.07 -79.44 182.2 -79.08 167.34 -78.91 152.48 -78.95 137.61 -79.21 122.75 -79.62 107.89 -80.12 93.02 -80.58 78.16 -80.93 63.3 -81.09 48.43 -81.02 33.57 -80.75 18.7 -80.32 3.84 -79.83 -11.01 -79.37 -25.88 -79.04 -40.74 -78.9 -55.6 -78.98 -70.47 -79.27 -85.33" fill="url(#uuunion-grad)"></path><path d="M-79.27 -85.33Q-78.98 -70.47 -78.9 -55.6 -79.04 -40.74 -79.37 -25.88 -79.83 -11.01 -80.32 3.84 -80.75 18.7 -81.02 33.57 -81.09 48.43 -80.93 63.3 -80.58 78.16 -80.12 93.02 -79.62 107.89 -79.21 122.75 -78.95 137.61 -78.91 152.48 -79.08 167.34 -79.44 182.2 -79.92 197.07 -80.41 211.93 -80.81 226.79 -81.05 241.66 -81.08 256.52 -80.88 271.39 -80.51 286.25 -80.03 301.11 -79.54 315.98 -79.15 330.84 -78.93 345.7 -78.92 360.57 -79.13 375.43 -79.52 390.29 -69.63 394.15 -59.75 398.46 -49.86 402.89 -39.97 407.09 -30.09 410.75 -20.2 413.59 -1.67 415.83 1.53 415.97 13.64 408.39 25.67 399.09 37.67 388.45 49.66 377.02 61.68 365.41 73.78 354.26 85.99 344.14 98.34 335.5 110.86 328.6 123.56 323.49 136.46 320.03 149.56 317.85 162.85 316.47 176.29 315.3 189.88 313.73 203.55 311.21 217.26 307.33 230.96 301.81 244.6 294.59 258.1 285.81 271.42 275.78 284.51 264.97 297.31 253.94 309.8 243.24 321.95 233.39 333.75 224.82 345.2 217.78 356.32 212.34 367.15 208.37 377.74 205.61 388.15 203.6 398.44 201.85 408.71 199.81 419.03 197 429.5 193.02 440.2 187.61 451.21 180.7 462.61 172.39 474.46 162.95 486.79 152.76 499.65 142.3 513.03 132.08 526.93 122.56 541.31 114.12 556.12 106.99 571.29 101.26 586.74 96.85 602.35 93.52 618.02 90.9 633.63 88.56 649.05 86.03 664.17 82.88 678.87 78.74 693.06 73.39 706.66 66.74 719.59 58.86 731.83 49.96 743.36 40.38 754.18 30.51 764.34 20.8 773.9 11.64 782.95 3.37 791.61 -3.77 800 -9.73 788.87 -26.97 780.8 -44.22 778 -61.46 781.24 -78.71 789.64 -95.95 800.88 -113.2 811.88 -130.44 819.61 -147.69 804.35 -147.76 789.1 -146.53 773.84 -144.19 758.59 -141.14 743.33 -137.9 728.08 -135.01 712.82 -132.97 697.57 -132.11 682.31 -132.58 667.06 -134.31 651.8 -137 636.55 -140.19 621.29 -143.36 606.04 -145.95 590.78 -147.53 575.53 -147.85 560.27 -146.83 545.02 -144.66 529.76 -141.7 514.51 -138.45 499.25 -135.47 484 -133.25 468.74 -132.16 453.49 -132.41 438.23 -133.93 422.98 -136.48 407.72 -139.62 392.47 -142.83 377.21 -145.56 361.96 -147.34 346.7 -147.89 331.45 -147.1 316.19 -145.11 300.94 -142.25 285.68 -139.02 270.43 -135.95 255.17 -133.56 239.92 -132.26 224.66 -132.27 209.41 -133.58 194.15 -135.98 178.89 -139.06 163.64 -142.29 148.38 -145.14 133.13 -147.12 117.87 -147.89 102.62 -147.33 87.36 -145.53 72.11 -142.8 56.85 -139.59 41.6 -136.45 26.34 -133.91 11.09 -132.4 -4.16 -132.17 -19.41 -133.27 -34.67 -135.5 -49.92 -138.49 -65.18 -141.74 -80.43 -144.69 -95.69 -146.85 -110.94 -147.85 -126.2 -147.52 -135.68 -133.48 -117.39 -118.3 -107.68 -110.86 -98.08 -102.87 -88.61 -94.35 -79.27 -85.33" fill="url(#uuunion-grad2)" filter="url(#uuunion-blur)"></path><path d="M790.52 384.42Q800.41 386.02 810.3 388.7 820.18 392.23 830.07 396.37 839.96 400.78 849.84 405.13 859.73 409.09 869.62 412.35 880.22 427.53 890.78 442.7 899.15 457.87 903.63 473.05 903.3 488.22 898.25 503.39 889.49 518.57 878.8 533.74 868.35 548.92 860.27 564.09 856.19 579.26 856.95 594.44 862.39 609.61 871.4 624.79 882.16 639.96 892.48 655.13 900.26 670.31 903.93 685.48 902.74 700.65 896.93 715.83 887.68 731 876.87 746.18 866.69 761.35 859.22 776.52 855.97 791.7 857.59 806.87 863.77 822.04 873.24 837.22 884.08 852.39 894.09 867.57 895.6 886.93 875.83 882.72 861.7 873.93 847.57 866.01 833.44 860.11 819.32 857.09 805.19 857.37 791.06 860.92 776.94 867.23 762.81 875.38 748.68 884.2 734.56 892.41 720.43 898.82 706.3 902.52 692.18 902.97 678.05 900.09 663.92 894.32 649.8 886.47 635.67 877.69 621.54 869.24 607.42 862.35 593.29 858 579.16 856.83 565.04 859.01 550.91 864.22 536.78 871.7 522.66 880.39 508.53 889.01 494.4 896.34 480.28 901.3 466.15 903.19 452.02 901.72 437.9 897.12 423.77 890.04 409.64 881.52 395.52 872.77 381.39 865.06 367.26 859.52 353.14 856.93 339.01 857.67 324.88 861.64 310.76 868.26 296.63 876.57 282.5 885.38 268.38 893.41 254.25 899.5 240.12 902.78 226 902.76 211.87 899.46 197.74 893.35 183.62 885.3 169.49 876.49 155.36 868.19 141.24 861.59 127.11 857.65 112.98 856.94 98.86 859.55 84.73 865.13 70.6 872.84 56.47 881.6 42.35 890.12 28.22 897.17 7 897.39 -0.22 882.89 -0.43 872.74 -0.69 862.59 -0.98 852.44 -1.27 842.29 -1.4 827.06 -0.77 822 11.32 814.34 23.41 804.26 35.52 792.21 47.69 778.91 59.95 765.2 72.33 751.98 84.86 740.07 97.56 730.14 110.44 722.59 123.5 717.57 136.72 714.91 150.1 714.16 163.6 714.65 177.17 715.56 190.79 716.04 204.39 715.3 217.92 712.69 231.32 707.8 244.55 700.47 257.55 690.88 270.29 679.42 282.73 666.75 294.85 653.63 306.65 640.89 318.12 629.29 329.3 619.45 340.21 611.8 350.91 606.47 361.45 603.33 371.91 602 382.35 601.86 392.87 602.19 403.55 602.19 414.47 601.12 425.7 598.39 437.32 593.58 449.37 586.55 461.89 577.41 474.91 566.53 488.43 554.48 502.44 541.95 516.9 529.7 531.74 518.44 546.91 508.75 562.31 501.02 577.84 495.42 593.39 491.84 608.84 489.94 624.08 489.19 639 488.92 653.49 488.42 667.47 487 680.84 484.1 693.57 479.35 705.63 472.57 716.99 463.87 727.69 453.54 737.76 442.1 747.29 430.16 756.35 418.42 765.07 407.53 773.58 398.01 786.27 387.34 790.52 384.42" fill="url(#uuunion-grad3)" filter="url(#uuunion-blur2)"></path></svg>