<svg xmlns="http://www.w3.org/2000/svg" version="1.1" xmlns:xlink="http://www.w3.org/1999/xlink" xmlns:svgjs="http://svgjs.dev/svgjs" viewBox="0 0 800 800"><defs><filter id="uuunion-blur" x="-100%" y="-100%" width="400%" height="400%" color-interpolation-filters="sRGB">
        <feGaussianBlur in="SourceGraphic" stdDeviation="0 3.5" result="blur"></feGaussianBlur>
        <feDropShadow stdDeviation="14.76923076923077" in="blur" dx="12" dy="12" flood-color="hsl(341, 81%, 47%)" flood-opacity="0.51" x="0%" y="0%" width="100%" height="100%"></feDropShadow>
      </filter><filter id="uuunion-blur2" x="-100%" y="-100%" width="400%" height="400%" color-interpolation-filters="sRGB">
        <feGaussianBlur in="SourceGraphic" stdDeviation="0 3.5" result="blur"></feGaussianBlur>
        <feDropShadow stdDeviation="14.76923076923077" in="blur" dx="-12" dy="-12" flood-color="hsl(341, 81%, 47%)" flood-opacity="0.51" x="0%" y="0%" width="100%" height="100%"></feDropShadow>
      </filter><linearGradient gradientTransform="rotate(327, 0.5, 0.5)" x1="50%" y1="0%" x2="50%" y2="100%" id="uuunion-grad"><stop stop-color="hsl(0, 0%, 6%)" offset="10%"></stop><stop stop-color="hsl(341, 81%, 47%)" offset="90%"></stop></linearGradient><linearGradient gradientTransform="rotate(296, 0.5, 0.5)" x1="50%" y1="0%" x2="50%" y2="100%" id="uuunion-grad2"><stop stop-color="hsl(0, 0%, 6%)" offset="25%"></stop><stop stop-color="hsl(341, 81%, 47%)" offset="100%"></stop></linearGradient><linearGradient gradientTransform="rotate(160, 0.5, 0.5)" x1="50%" y1="0%" x2="50%" y2="100%" id="uuunion-grad3"><stop stop-color="hsl(0, 0%, 6%)" offset="0%"></stop><stop stop-color="hsl(341, 81%, 47%)" offset="75%"></stop></linearGradient></defs><path d="M-78.2 -86.1Q-63.72 -83.14 -49.25 -79.54 -34.77 -76.04 -20.29 -73.34 -5.82 -71.99 8.65 -72.26 23.12 -74.11 37.6 -77.15 52.07 -80.77 66.55 -84.23 81.02 -86.83 95.5 -88.04 109.97 -87.62 124.45 -85.65 138.92 -82.53 153.4 -78.9 167.87 -75.48 182.35 -72.99 196.82 -71.92 211.3 -72.48 225.77 -74.58 240.25 -77.77 254.72 -81.42 269.2 -84.77 283.67 -87.16 298.15 -88.09 312.63 -87.38 327.1 -85.17 341.58 -81.9 356.05 -78.25 370.53 -74.96 385 -72.68 399.48 -71.9 413.95 -72.75 428.43 -75.08 442.9 -78.4 457.38 -82.05 471.85 -85.28 486.33 -87.44 500.8 -88.09 515.28 -87.09 529.75 -84.65 544.23 -81.27 558.7 -77.62 573.18 -74.46 587.65 -72.43 602.13 -71.93 616.6 -73.07 631.08 -75.61 645.56 -79.05 660.03 -82.68 674.51 -85.76 688.98 -87.67 703.46 -88.03 717.93 -86.75 732.41 -84.1 746.88 -80.62 761.36 -77.01 775.83 -74.01 790.31 -72.22 804.78 -72.01 819.26 -73.43 833.73 -76.17 848.21 -79.7 849.35 -64.68 853.24 -49.67 859.51 -34.66 867.61 -19.64 876.82 -4.63 886.31 10.37 895.24 25.39 902.81 40.4 908.34 55.41 911.33 70.42 911.53 85.44 908.91 100.45 903.71 115.46 896.39 130.48 887.6 145.49 878.14 160.5 868.84 175.52 860.54 190.53 853.97 205.54 849.73 220.56 848.2 235.57 849.5 250.58 853.53 265.6 859.92 280.61 868.11 295.62 877.35 310.64 886.84 325.65 895.71 340.66 903.18 355.67 908.57 370.69 911.42 385.7 911.46 400.71 908.68 415.73 903.35 430.74 895.93 445.75 887.08 460.77 877.61 475.78 868.34 490.79 860.12 505.81 853.67 520.82 849.57 535.83 848.2 550.85 849.66 565.86 853.83 580.87 860.34 595.88 868.6 610.9 877.89 625.91 887.36 640.92 896.17 655.94 903.54 670.95 908.8 685.96 911.5 700.98 911.37 715.99 908.45 731 902.98 746.02 895.46 761.03 886.56 776.04 877.07 791.06 867.85 806.07 859.7 821.08 853.37 836.09 849.42 851.11 848.2 866.12 849.82 881.13 835.32 894.58 820.82 905.06 806.32 910.45 791.81 909.65 777.31 902.84 762.81 891.38 748.31 877.62 733.81 864.33 719.31 854.23 704.8 849.36 690.3 850.71 675.8 858.01 661.3 869.77 646.8 883.61 632.29 896.72 617.79 906.43 603.29 910.77 588.79 908.86 574.29 901.09 559.78 889.04 545.28 875.15 530.78 862.24 516.28 852.94 501.78 849.13 487.28 851.59 472.77 859.82 458.27 872.15 443.77 886.07 429.27 898.75 414.77 907.63 400.26 910.89 385.76 907.88 371.26 899.21 356.76 886.63 342.26 872.71 327.75 860.27 313.25 851.83 298.75 849.11 284.25 852.66 269.75 861.77 255.25 874.57 240.74 888.48 226.24 900.66 211.74 908.65 197.24 910.82 182.74 906.72 168.23 897.2 153.73 884.19 139.23 870.32 124.73 858.42 110.23 850.9 95.73 849.29 81.22 853.91 66.72 863.83 52.22 877.04 37.72 890.84 23.22 902.44 8.71 909.49 -5.78 910.54 -20.28 905.39 -34.78 895.08 -49.28 881.71 -63.79 867.99 -78.29 856.71 -78.2 841.98 -78.26 827.25 -78.49 812.52 -78.85 797.78 -79.31 783.05 -79.83 768.32 -80.37 753.59 -80.87 738.86 -81.3 724.13 -81.61 709.39 -81.77 694.66 -81.78 679.93 -81.63 665.2 -81.33 650.47 -80.91 635.74 -80.41 621.01 -79.88 606.27 -79.35 591.54 -78.88 576.81 -78.51 562.08 -78.28 547.35 -78.2 532.62 -78.27 517.88 -78.5 503.15 -78.87 488.42 -79.34 473.69 -79.86 458.96 -80.4 444.23 -80.9 429.5 -81.32 414.76 -81.62 400.03 -81.78 385.3 -81.77 370.57 -81.61 355.84 -81.31 341.11 -80.88 326.37 -80.38 311.64 -79.85 296.91 -79.32 282.18 -78.86 267.45 -78.5 252.72 -78.27 237.99 -78.2 223.25 -78.28 208.52 -78.52 193.79 -78.89 179.06 -79.36 164.33 -79.89 149.6 -80.43 134.86 -80.92 120.13 -81.34 105.4 -81.63 90.67 -81.78 75.94 -81.77 61.21 -81.6 46.48 -81.29 31.74 -80.86 17.01 -80.35 2.28 -79.82 -12.44 -79.29 -27.17 -78.84 -41.9 -78.48 -56.64 -78.26 -71.37 -78.2 -86.1" fill="url(#uuunion-grad)"></path><path d="M-78.2 -86.1Q-78.26 -71.37 -78.48 -56.64 -78.84 -41.9 -79.29 -27.17 -79.82 -12.44 -80.35 2.28 -80.86 17.01 -81.29 31.74 -81.6 46.48 -81.77 61.21 -81.78 75.94 -81.63 90.67 -81.34 105.4 -80.92 120.13 -80.43 134.86 -79.89 149.6 -79.36 164.33 -78.89 179.06 -78.52 193.79 -78.28 208.52 -78.2 223.25 -78.27 237.99 -78.5 252.72 -78.86 267.45 -79.32 282.18 -79.85 296.91 -80.38 311.64 -80.88 326.37 -81.31 341.11 -81.61 355.84 -81.77 370.57 -81.78 385.3 -71.43 389.8 -61.08 395.22 -50.74 401.08 -40.39 406.84 -30.04 411.98 -19.7 416.02 -0.3 419.25 3.04 419.46 15.96 411.27 28.85 400.65 41.71 388.26 54.5 374.98 67.21 361.81 79.83 349.72 92.34 339.51 104.73 331.71 116.99 326.5 129.12 323.68 141.11 322.74 152.97 322.91 164.7 323.26 176.31 322.87 187.82 320.92 199.24 316.85 210.58 310.38 221.89 301.59 233.17 290.86 244.45 278.87 255.76 266.44 267.13 254.44 278.59 243.68 290.17 234.75 301.88 228.01 313.77 223.48 325.84 220.87 338.12 219.65 350.63 219.08 363.37 218.35 376.37 216.7 389.61 213.49 403.1 208.34 416.83 201.12 430.8 192.01 444.98 181.46 459.35 170.1 473.89 158.65 488.57 147.85 503.35 138.32 518.2 130.49 533.08 124.55 547.94 120.42 562.75 117.74 577.45 116 592 114.54 606.37 112.69 620.51 109.83 634.38 105.51 647.95 99.51 661.19 91.82 674.07 82.69 686.57 72.56 698.68 61.99 710.4 51.61 721.71 41.98 732.63 33.55 743.16 26.61 753.34 21.2 763.19 17.17 772.73 14.17 782.02 11.72 791.09 9.27 800 6.29 790.05 -11.46 781.31 -29.23 774.84 -46.99 771.42 -64.75 771.46 -82.51 774.96 -100.27 781.5 -118.03 790.28 -135.8 775.55 -138.48 760.82 -141.47 746.09 -144.16 731.35 -146.02 716.62 -146.67 701.89 -145.98 687.16 -144.09 672.43 -141.38 657.7 -138.39 642.97 -135.72 628.23 -133.91 613.5 -133.32 598.77 -134.07 584.04 -136.01 569.31 -138.75 554.58 -141.73 539.85 -144.37 525.11 -146.13 510.38 -146.66 495.65 -145.85 480.92 -143.87 466.19 -141.11 451.46 -138.13 436.72 -135.52 421.99 -133.8 407.26 -133.34 392.53 -134.2 377.8 -136.23 363.07 -139.01 348.34 -141.99 333.6 -144.57 318.87 -146.23 304.14 -146.64 289.41 -145.72 274.68 -143.65 259.95 -140.84 245.22 -137.87 230.48 -135.32 215.75 -133.71 201.02 -133.36 186.29 -134.34 171.56 -136.46 156.83 -139.28 142.1 -142.25 127.36 -144.77 112.63 -146.33 97.9 -146.61 83.17 -145.57 68.44 -143.42 53.71 -140.57 38.97 -137.61 24.24 -135.13 9.51 -133.62 -5.21 -133.39 -19.94 -134.49 -34.67 -136.69 -49.4 -139.55 -64.14 -142.51 -78.87 -144.95 -93.6 -146.41 -108.33 -146.57 -123.06 -145.42 -132.06 -131.01 -114.49 -116.79 -105.29 -110 -96.18 -102.64 -87.16 -94.67 -78.2 -86.1" fill="url(#uuunion-grad2)" filter="url(#uuunion-blur)"></path><path d="M828.69 412.26Q839.03 416.23 849.38 418.71 859.73 419.49 870.07 418.49 880.42 415.81 890.76 411.69 904.9 411.11 903.35 430.74 895.93 445.75 887.08 460.77 877.61 475.78 868.34 490.79 860.12 505.81 853.67 520.82 849.57 535.83 848.2 550.85 849.66 565.86 853.83 580.87 860.34 595.88 868.6 610.9 877.89 625.91 887.36 640.92 896.17 655.94 903.54 670.95 908.8 685.96 911.5 700.98 911.37 715.99 908.45 731 902.98 746.02 895.46 761.03 886.56 776.04 877.07 791.06 867.85 806.07 859.7 821.08 853.37 836.09 849.42 851.11 848.2 866.12 849.82 881.13 836.51 893.55 823.2 903.64 809.9 909.67 796.59 910.62 783.28 906.31 769.97 897.49 756.66 885.67 743.35 872.88 730.05 861.31 716.74 852.94 703.43 849.21 690.12 850.76 676.81 857.33 663.5 867.78 650.19 880.33 636.89 892.82 623.58 903.11 610.27 909.44 596.96 910.71 583.65 906.72 570.34 898.15 557.04 886.46 543.73 873.66 530.42 861.95 517.11 853.34 503.8 849.29 490.49 850.51 477.18 856.79 463.88 867.05 450.57 879.52 437.26 892.08 423.95 902.57 410.64 909.18 397.33 910.79 384.03 907.12 370.72 898.79 357.41 887.25 344.1 874.46 330.79 862.61 317.48 853.75 304.17 849.39 290.87 850.28 277.56 856.26 264.25 866.32 250.94 878.72 237.63 891.33 224.32 902.01 211.01 908.91 197.71 910.85 184.4 907.49 171.09 899.43 157.78 888.03 144.47 875.25 131.16 863.29 117.86 854.19 104.55 849.52 91.24 850.07 77.93 855.76 64.62 865.6 51.31 877.91 38 890.58 24.7 901.43 4.71 904.63 -1.96 890.41 -1.92 880.17 -1.85 869.93 -1.75 859.69 -1.61 849.46 -1.11 834.11 -0.28 829 12.26 820.55 24.92 808.35 37.69 793.26 50.56 776.57 63.54 759.77 76.6 744.34 89.73 731.58 102.92 722.35 116.15 717.06 129.39 715.53 142.63 717.04 155.84 720.47 168.99 724.44 182.07 727.49 195.06 728.32 207.92 725.96 220.64 719.9 233.21 710.14 245.61 697.23 257.83 682.14 269.86 666.15 281.71 650.63 293.36 636.89 304.83 625.96 316.12 618.48 327.25 614.58 338.25 613.88 349.12 615.56 359.89 618.48 370.6 621.33 381.27 622.82 391.95 621.88 402.65 617.79 413.43 610.29 424.31 599.59 435.33 586.35 446.53 571.61 457.94 556.56 469.58 542.47 481.5 530.41 493.69 521.19 506.2 515.19 519.03 512.33 532.18 512.08 545.66 513.58 559.47 515.71 573.6 517.27 588.03 517.17 602.73 514.57 617.69 508.99 632.86 500.36 648.21 489.08 663.7 475.88 679.28 461.78 694.9 447.88 710.5 435.27 726.05 424.83 741.47 417.11 756.72 412.28 771.75 410.1 786.51 409.96 800.94 410.97 821.85 412.17 828.69 412.26" fill="url(#uuunion-grad3)" filter="url(#uuunion-blur2)"></path></svg>