<svg xmlns="http://www.w3.org/2000/svg" version="1.1" xmlns:xlink="http://www.w3.org/1999/xlink" xmlns:svgjs="http://svgjs.dev/svgjs" viewBox="0 0 800 800"><defs><linearGradient x1="50%" y1="0%" x2="50%" y2="100%" id="wwwhirl-grad"><stop stop-color="hsla(287, 85%, 24%, 1)" stop-opacity="1" offset="45%"></stop><stop stop-color="hsl(331, 90%, 56%)" stop-opacity="1" offset="100%"></stop></linearGradient></defs><g stroke-width="2" stroke="url(#wwwhirl-grad)" fill="none" stroke-linecap="round"><path d="M37.00000251770027 445.26856653065136C50.75000289917 421.7560658783381 75.50000358581553 340.2460636169855 103.000004348755 332.40856339954775C130.50000511169446 324.57106318211004 141.5000054168703 407.23606547550605 169.00000617980973 407.64856548695013C196.5000069427492 408.06106549839427 207.50000724792503 331.08856336292666 235.00000801086446 334.3885634544794C262.500008773804 337.6885635460321 273.5000090789798 421.01356585773874 301.0000098419193 423.4885659264033C328.50001060485874 425.9635659950678 339.5000109100345 344.82481374401493 367.000011672974 346.2685637840693C394.50001243591345 347.7123138241236 405.5000127410893 431.4498161472743 433.0000135040287 430.41856611866405C460.5000142669682 429.38731609005384 471.50001457214404 334.71856346363467 499.0000153350834 341.31856364674013C526.5000160980228 347.9185638298456 537.5000164031987 456.94231685451916 565.0000171661382 462.0985669975703C592.5000179290777 467.2548171406214 603.5000182342535 364.8310642990534 631.000018997193 366.06856433338567C658.5000197601325 367.30606436771797 669.5000200653083 471.338567253918 697.0000208282477 468.0385671623652C724.5000215911871 464.7385670708125 749.2500222778326 374.772314574856 763.0000226593024 350.2285638939325 " transform="rotate(99, 400, 400)"></path><path d="M48.00000244140632 443.8967968735613C61.33333614464971 421.0967962410151 85.3333368104878 342.05679404818835 112.00000421697456 334.45679383733966C138.6666716234613 326.8567936264909 149.33333858605602 407.0167958503901 176.00000599254278 407.41679586148746C202.66667339902952 407.81679587258475 213.33334036162427 333.17679380182824 240.000007768111 336.3767938906067C266.6666751745978 339.5767939793851 277.3333421371925 420.37679622103997 304.00000954367925 422.7767962876238C330.66667695016605 425.1767963542076 341.3333439127607 346.4967941713684 368.00001131924745 347.89679421020895C394.66667872573424 349.2967942490495 405.33334568832896 430.49679650180167 432.00001309481576 429.49679647405844C458.66668050130244 428.4967964463152 469.3333474638972 336.69679389948453 496.0000148703839 343.09679407704135C522.6666822768707 349.49679425459817 533.3333492394653 455.21679718761493 560.0000166459522 460.21679732633123C586.666684052439 465.2167974650475 597.3333510150337 365.89679470958754 624.0000184215204 367.0967947428794C650.6666858280073 368.29679477617134 661.3333527906019 469.1767975749108 688.0000201970887 465.97679748613234C714.6666876035754 462.7767973973539 738.6666882694134 375.5367949770325 752.0000219726569 351.73679431674304 " transform="rotate(96, 400, 400)"></path><path d="M59.00000236511238 442.5250310311685C71.9166693901294 420.43753041838943 95.16667003516005 343.86752829408846 121.00000408519412 336.5050280898288C146.83333813522813 329.14252788556905 157.1666717552418 406.79753003997143 183.0000058052758 407.18503005072193C208.83333985530987 407.57253006147243 219.1666734753235 335.26502805542714 245.00000752535757 338.36502814143125C270.8333415753916 341.4650282274353 281.1666751954052 419.74003039903846 307.0000092454393 422.0650304635416C332.83334329547336 424.39003052804463 343.16667691548696 348.16877841341915 369.00001096552097 349.52502845104596C394.83334501555504 350.8812784886727 405.1666786355687 429.5437806710264 431.0000126856027 428.57503064415016C456.8333467356368 427.60628061727385 467.16668035565044 338.6750281500316 493.0000144056845 344.87502832203984C518.8333484557185 351.07502849404796 529.1666820757321 453.49128133540796 555.0000161257661 458.3350314697893C580.8333501758003 463.17878160417075 591.1666837958139 366.9625289348189 617.000017845848 368.1250289670705C642.8333518958821 369.287528999322 653.1666855158957 467.0150317106008 679.0000195659296 463.91503162459674C704.8333536159636 460.8150315385927 728.0833542609943 376.3012791939062 741.0000212860114 353.24502855425084 " transform="rotate(93, 400, 400)"></path><path d="M70.00000228881842 441.15324992998666C82.50000263560909 419.7782493369746 105.00000325983231 345.67824728119956 130.00000395341365 338.55324708352884C155.00000464699497 331.4282468858582 165.00000492442751 406.5782489707637 190.00000561800886 406.9532489811674C215.0000063115902 407.3282489915711 225.00000658902275 337.353247050237 250.00000728260406 340.3532471334667C275.00000797618543 343.35324721669645 285.000008253618 419.10324931824795 310.0000089471993 421.35324938067026C335.00000964078066 423.6032494430926 345.00000991821315 349.84074739668085 370.0000106117945 351.15324743309384C395.00001130537584 352.4657474695069 405.0000115828084 428.59074958146203 430.0000122763897 427.65324955545276C455.000012969971 426.7157495294434 465.0000132474036 340.6532471417897 490.00001394098496 346.6532473082492C515.0000146345662 352.65324747470873 525.0000149119987 451.76575022441193 550.0000156055801 456.4532503544584C575.0000162991615 461.1407504845049 585.000016576594 368.02824790126124 610.0000172701755 369.1532479324724C635.0000179637568 370.27824796368355 645.0000182411893 464.85325058750175 670.0000189347705 461.853250504272C695.0000196283519 458.8532504210423 717.5000202525752 377.0657481519909 730.0000205993658 354.75324753296957 " transform="rotate(90, 400, 400)"></path><path d="M81.00000221252448 439.7814802728966C93.08333588108879 419.1189796996517 114.83333648450457 347.4889777124024 139.0000038216332 340.6014775213207C163.1666711587618 333.71397733023906 172.83333809361326 406.35897934564775 197.0000054307419 406.7214793557047C221.16667276787052 407.0839793657616 230.833339702722 339.44147748913855 255.00000703985063 342.34147756959396C279.16667437697924 345.24147765004943 288.83334131183074 418.4664796815492 313.00000864895935 420.64147974189075C337.16667598608797 422.8164798022323 346.8333429209394 351.5127278240343 371.000010258068 352.7814778592336C395.16667759519663 354.05022789443285 404.8333445300481 427.63772993598946 429.00001186717674 426.73147991084716C453.16667920430535 425.82522988570486 462.8333461391569 342.63147757763954 487.00001347628546 348.4314777385504C511.1666808134141 354.2314778994613 520.8333477482655 450.04023055750775 545.0000150853941 454.57148068321936C569.1666824225229 459.10273080893097 578.8333493573742 369.0939783117954 603.000016694503 370.18147834196617C627.1666840316316 371.268978372137 636.8333509664831 462.69148090849455 661.0000183036116 459.79148082803914C685.1666856407402 456.8914807475837 706.9166862441559 377.8302285541674 719.0000199127203 356.2614779557801 " transform="rotate(87, 400, 400)"></path><path d="M92.00000213623053 438.4096915423203C103.6666691265685 418.45969098884234 124.66666970917683 349.2996890701189 148.00000368985275 342.6496888856263C171.33333767052864 335.99968870113366 180.666671262799 406.1396906470454 204.00000524347493 406.4896906567556C227.33333922415085 406.83969066646574 236.66667281642125 341.52968885455385 260.00000679709717 344.32968893223494C283.33334077777306 347.1296890099161 292.66667437004344 417.8296909713641 316.0000083507193 419.9296910296249C339.3333423313953 422.02969108788574 348.66667592366565 353.1846891779015 372.00000990434154 354.4096892118869C395.3333438850174 355.63468924587244 404.6666774772878 426.6846912170306 428.00001145796375 425.8096911927553C451.3333454386397 424.9346911684799 460.6666790309101 344.6096889400031 484.000013011586 350.20968909536526C507.33334699226185 355.8096892507275 516.6666805845323 448.3146918171172 540.0000145652082 452.6896919384939C563.3333485458841 457.0646920598706 572.6666821381544 370.1596896488432 596.0000161188304 371.2096896779736C619.3333500995063 372.25968970710403 628.6666836917767 460.52969215600103 652.0000176724526 457.7296920783199C675.3333516531285 454.9296920006388 696.3333522357368 378.59468988285755 708.0000192260748 357.7696893051043 " transform="rotate(84, 400, 400)"></path><path d="M103.00000205993659 437.0379409587165C114.25000237204819 417.8004404250057 134.5000029338491 351.1104385748081 157.00000355807228 344.6979383969045C179.50000418229547 338.28543821900087 188.5000044319848 405.9204400954158 211.00000505620795 406.25794010477915C233.50000568043117 406.59544011414255 242.50000593012047 343.61793836694176 265.0000065543437 346.3179384418486C287.5000071785669 349.01793851675535 296.5000074282562 417.1929404081517 319.0000080524794 419.2179404643317C341.5000086767026 421.2429405205118 350.50000892639184 354.85668867874125 373.00000955061506 356.037938711513C395.5000101748383 357.2191887442847 404.5000104245276 425.73169064504435 427.00001104875076 424.887940621636C449.500011672974 424.0441905982276 458.5000119226633 346.5879384493392 481.00001254688647 351.9879385991528C503.50001317110963 357.38793874896635 512.5000134207988 446.5891912236993 535.0000140450221 450.80794134074114C557.5000146692455 455.02669145778293 566.5000149189347 371.22543913286364 589.0000155431579 372.2379391609537C611.5000161673811 373.25043918904373 620.5000164170704 458.3679415504801 643.0000170412935 455.66794147557334C665.5000176655168 452.9679414006666 685.7500182273176 379.3591893585203 697.0000185394292 359.2779388014011 " transform="rotate(81, 400, 400)"></path><path d="M114.00000198364263 435.6661484134429C124.83333561752788 417.1411478994991 144.33333615852135 352.92114611782733 166.0000034262918 346.7461459465128C187.6666706940623 340.5711457751982 196.3333376011705 405.7011475821163 218.000004868941 406.0261475911328C239.6666721367115 406.35114760014943 248.3333390438197 345.7061459176598 270.0000063115902 348.30614598979224C291.6666735793607 350.9061460619247 300.33334048646896 416.5561478832693 322.0000077542394 418.50614793736867C343.6666750220099 420.456147991468 352.3333419291181 356.52864621791116 374.0000091968886 357.6661462494691C395.6666764646591 358.80364628102706 404.3333433717673 424.7786481113882 426.0000106395378 423.9661480888468C447.66667790730827 423.15364806630544 456.3333448144165 348.5661459970055 478.00001208218697 353.7661461412704C499.66667934995746 358.96614628553533 508.33334625706556 444.86364866861146 530.0000135248362 448.92614878131843C551.6666807926067 452.9886488940254 560.3333476997147 372.29114665521416 582.0000149674854 373.26614668226387C603.6666822352558 374.2411467093135 612.3333491423641 456.20614898328927 634.0000164101345 453.6061489111569C655.666683677905 451.0061488390244 675.1666842188985 380.12364687251323 686.0000178527837 360.7861463360281 " transform="rotate(78, 400, 400)"></path><path d="M125.00000190734869 434.29437875635284C135.41666886300757 416.4818782621761 154.1666693831936 354.73187654903023 175.00000329451137 348.79437638430466C195.83333720582914 342.8568762195791 204.16667077035626 405.48187795700034 225.00000468167406 405.7943779656701C245.83333859299182 406.10687797433985 254.16667215751897 347.7943763565614 275.00000606883674 350.2943764259195C295.8333399801545 352.7943764952777 304.16667354468166 415.91937824657055 325.0000074559994 417.79437829858915C345.8333413673172 419.66937835060776 354.16667493184434 358.2006266452646 375.00000884316205 359.2943766756088C395.8333427544799 360.388126705953 404.166676319007 423.82562846591566 425.0000102303248 423.04437844424126C445.83334414164256 422.2631284225668 454.1666777061697 350.54437643285536 475.0000116174875 355.5443765715716C495.83334552880524 360.5443767102879 504.1666790933323 443.1381290017072 525.0000130046501 447.0443791100793C545.8333469159679 450.95062921845135 554.166680480495 373.35687706574834 575.0000143918128 374.2943770917576C595.8333483031306 375.23187711776694 604.1666818676579 454.0443793042821 625.0000157789755 451.54437923492395C645.8333496902933 449.04437916556583 664.5833502104794 380.8881272746897 675.0000171661382 362.29437675883855 " transform="rotate(75, 400, 400)"></path><path d="M136.00000183105476 432.9226052845655C146.00000210848728 415.8226048101559 164.00000260786584 356.5426031655358 184.00000316273093 350.84260300739925C204.00000371759597 345.14260284926274 212.000003939542 405.2626045171871 232.00000449440708 405.5626045255101C252.00000504927215 405.86260453383306 260.0000052712182 349.88260298076574 280.0000058260833 352.28260304734954C300.0000063809483 354.68260311393334 308.00000660289436 415.2826047951745 328.00000715775946 417.08260484511237C348.00000771262455 418.88260489505024 356.00000793457053 359.87260325792084 376.0000084894356 360.92260328705123C396.00000904430067 361.9726033161817 404.0000092662467 422.8726050057458 424.0000098211118 422.1226049849384C444.0000103759769 421.3726049641309 452.0000105979229 352.5226030540079 472.000011152788 357.32260318717556C492.000011707653 362.12260332034316 500.00001192959905 441.4126055201057 520.0000124844642 445.16260562414294C540.0000130393292 448.9126057281801 548.0000132612753 374.4226036615852 568.0000138161404 375.3226036865541C588.0000143710055 376.22260371152305 596.0000145929514 451.8826058105776 616.0000151478165 449.48260574399376C636.0000157026815 447.08260567741 654.00001620206 381.6526038621689 664.0000164794926 363.8026033669518 " transform="rotate(72, 400, 400)"></path><path d="M146.9999864959717 431.55082418338367C156.5833200951779 415.1633237287411 173.83332057374906 358.35332215264685 192.9999877721614 352.8908220010993C212.16665497057375 347.4283218495518 219.8333218499387 405.0433234479794 238.99998904835104 405.33082345595557C258.1666562467634 405.61832346393174 265.8333231261284 351.9708219755755 284.9999903245407 354.27082203938505C304.1666575229531 356.57082210319453 311.83332440231806 414.64582371438394 330.9999916007304 416.37082376224106C350.1666587991428 418.0958238100982 357.83332567850766 361.5445722411825 376.99999287692003 362.55082226909917C396.1666600753324 363.5570722970158 403.8333269546974 421.91957391618143 422.99999415310975 421.200823896241C442.1666613515221 420.48207387630055 449.83332823088705 354.500822045766 468.9999954292994 359.1008221733849C488.16666262771173 363.7008223010039 495.83332950707666 439.6870744091097 514.9999967054891 443.28082450881203C534.1666639039015 446.8745746085143 541.8333307832664 375.4883226280275 560.9999979816788 376.35082265195604C580.1666651800912 377.2133226758846 587.8333320594561 449.72082468747857 606.9999992578685 447.4208246236691C626.1666664562807 445.1208245598596 643.4166669348518 382.41707282025357 653.000000534058 365.31082234567054 " transform="rotate(69, 400, 400)"></path><path d="M157.99998641967778 430.17905071159635C167.1666533406576 414.5040502767208 183.6666537984213 360.16404876915243 201.99998764038094 354.93904862419396C220.33332148234058 349.71404847923543 227.66665501912445 404.8240500081661 245.9999888610841 405.09905001579557C264.33332270304373 405.37405002342496 271.6666562398276 354.0590485997799 289.99999008178725 356.25904866081504C308.3333239237469 358.4590487218502 315.6666574605308 414.00905026298796 333.99999130249046 415.65905030876434C352.3333251444501 417.30905035454066 359.6666586812339 363.21654885383873 377.99999252319355 364.1790488805416C396.3333263651532 365.1415489072445 403.6666599019371 420.96655045601165 421.99999374389677 420.2790504369381C440.3333275858564 419.59155041786465 447.6666611226403 356.4790486669186 465.9999949645999 360.8790487889889C484.3333288065595 365.2790489110592 491.6666623433434 437.96155092750826 509.9999961853031 441.39905102287565C528.3333300272627 444.83655111824305 535.6666635640465 376.55404922386435 553.9999974060063 377.3790492467526C572.3333312479659 378.20404926964073 579.6666647847499 447.55905119377405 597.9999986267094 445.35905113273895C616.3333324686689 443.1590510717038 632.8333329264326 383.1815494077328 641.9999998474125 366.8190489537838 " transform="rotate(66, 400, 400)"></path><path d="M168.99998634338385 428.80728486920356C177.7499865861373 413.84478445409513 193.49998702309355 361.9747830150526 210.9999875086005 356.9872828766831C228.4999879941074 351.9997827383136 235.49998818831023 404.60478419774745 252.99998867381714 404.8672842050301C270.49998915932406 405.1297842123127 277.49998935352687 356.1472828533788 294.9999898390338 358.24728291163956C312.4999903245407 360.34728296990045 319.4999905187435 413.37228444098645 336.99999100425043 414.9472844846821C354.49999148975735 416.52228452837767 361.49999168396016 364.88853309588944 378.9999921694671 365.8072831213786C396.49999265497405 366.72603314686774 403.4999928491768 420.01353462523633 420.9999933346837 419.35728460702984C438.4999938201907 418.7010345888233 445.4999940143935 358.4572829174657 462.9999944999004 362.65728303398737C480.4999949854073 366.85728315050903 487.4999951796101 436.2360350753013 504.99999566511707 439.5172851663338C522.4999961506239 442.7985352573663 529.4999963448267 377.6197834490958 546.9999968303338 378.4072834709436C564.4999973158407 379.1947834927914 571.4999975100434 445.3972853294641 588.9999979955503 443.29728527120335C606.4999984810572 441.19728521294246 622.2499989180135 383.9460336246065 630.999999160767 368.3272831912916 " transform="rotate(63, 400, 400)"></path><path d="M179.9999862670899 427.4354961386272C188.33331983161702 413.1854957432858 203.3333202477658 363.7854943727691 219.99998737682003 359.03549424098867C236.66665450587425 354.2854941092082 243.33332135749595 404.3854954991452 259.9999884865502 404.635495506081C276.6666556156044 404.88549551301685 283.33332246722614 358.23549421879403 299.99998959628033 360.23549427428054C316.6666567253345 362.23549432976705 323.3333235769563 412.73549573080135 339.9999907060105 414.23549577241624C356.6666578350647 415.73549581403114 363.3333246866864 366.5604944497566 379.9999918157406 367.435494474032C396.6666589447948 368.3104944983073 403.33332579641655 419.0604959062774 419.9999929254708 418.4354958889379C436.666660054525 417.8104958715984 443.3333269061467 360.4354942798292 459.9999940352009 364.4354943908022C476.6666611642551 368.4354945017752 483.33332801587676 434.5104963349107 499.99999514493106 437.63549642160837C516.6666622739854 440.760496508306 523.333329125607 378.6854947861436 539.9999962546613 379.435494806951C556.6666633837156 380.1854948277585 563.3333302353371 443.2354965769706 579.9999973643913 441.2354965214841C596.6666644934455 439.2354964659976 611.6666649095944 384.7104949532967 619.9999984741214 369.8354945406158 " transform="rotate(60, 400, 400)"></path><path d="M190.99998619079594 426.0637188521426C198.9166530770967 412.5262184765683 213.16665347243807 365.5962171745774 228.99998724503956 361.083717049386C244.83332101764108 356.5712169241946 251.1666545266817 404.1662182446347 266.99998829928325 404.4037182512237C282.8333220718847 404.64121825781274 289.16665558092535 360.32371702830113 304.99998935352687 362.2237170810133C320.83332312612833 364.12371713372545 327.166656635169 412.09871846470804 342.9999904077705 413.5237185042422C358.833324180372 414.94871854377635 365.1666576894126 368.2324672477156 380.9999914620141 369.06371727077715C396.8333252346156 369.8949672938387 403.1666587436563 418.1074686314103 418.99999251625775 417.5137186149378C434.83332628885927 416.91996859846523 441.1666597978999 362.4137170862845 456.99999357050143 366.2137171917089C472.8333273431029 370.0137172971332 479.1666608521435 432.78496903861196 494.99999462474506 435.7537191209747C510.8333283973466 438.7224692033375 517.1666619063872 379.75121756728316 532.9999956789886 380.46371758705027C548.8333294515903 381.1762176068173 555.1666629606309 441.0737192685688 570.9999967332324 439.17371921585664C586.8333305058338 437.2737191631445 601.0833309011753 385.4749677260786 608.9999977874759 371.3437173340318 " transform="rotate(57, 400, 400)"></path><path d="M201.999986114502 424.6919530097498C209.49998632257638 411.8669526539426 222.99998669711033 367.4069514204775 237.99998711325912 363.1319513018751C252.99998752940792 358.8569511832727 258.99998769586745 403.94695243421603 273.99998811201624 404.17195244045826C288.9999885281651 404.3969524467005 294.99998869462456 362.4119512819 309.9999891107734 364.21195133183784C324.9999895269222 366.0119513817757 330.99998969338174 411.4619526427066 345.99999010953053 412.81195268015995C360.9999905256793 414.16195271761336 366.9999906921388 369.9044514897663 381.99999110828765 370.6919515116141C396.99999152443644 371.47945153346194 402.99999169089597 417.15445280063506 417.99999210704476 416.5919527850295C432.99999252319355 416.02945276942387 438.99999268965314 364.39195133683165 453.99999310580193 367.9919514367073C468.9999935219507 371.59195153658305 474.9999936884102 431.059453186405 489.99999410455905 433.8719532644329C504.9999945207079 436.68445334246076 510.9999946871674 380.8169517925146 525.9999951033162 381.4919518112413C540.9999955194651 382.16695182996796 546.9999956859245 438.9119534042589 561.9999961020733 437.11195335432103C576.9999965182221 435.3119533043832 590.499996892756 386.23945194295237 597.9999971008303 372.85195157153953 " transform="rotate(54, 400, 400)"></path><path d="M212.99998603820805 423.32017572326527C220.08331956805608 411.2076753872251 232.8333199217826 369.21767422228584 246.99998698147868 365.18017411027245C261.16665404117475 361.14267399825906 266.8333208650532 403.72767517970556 280.9999879247493 403.940175185601C295.16665498444536 404.1526751914964 300.83332180832383 364.5001740914071 314.99998886801995 366.20017413857056C329.166655927716 367.9001741857341 334.83332275159444 410.8251753766133 348.99998981129056 412.1001754119859C363.1666568709866 413.3751754473586 368.83332369486504 371.5764242877253 382.99999075456117 372.3201743083593C397.16665781425723 373.0639243289934 402.8333246381357 416.20142552576795 416.9999916978318 415.67017551102936C431.1666587575279 415.13892549629077 436.8333255814063 366.37017414328693 450.99999264110244 369.770174237614C465.1666597007985 373.1701743319411 470.8333265246769 429.33392589010623 484.99999358437304 431.99017596379923C499.16666064406917 434.64642603749223 504.8333274679476 381.8826745736542 518.9999945276437 382.5201745913405C533.1666615873398 383.1576746090268 538.8333284112182 436.7501760958571 552.9999954709143 435.05017604869363C567.1666625306103 433.3501760015301 579.9166628843368 387.0039247157343 586.9999964141849 374.3601743649555 " transform="rotate(51, 400, 400)"></path><path d="M223.9999859619141 421.9483946220834C230.6666528135358 410.5483943058103 242.66665314645485 371.02839320939694 255.99998684969822 367.22839310397256C269.3333205529416 363.4283929985482 274.66665403423895 403.50839411049776 287.99998773748234 403.70839411604646C301.3333214407257 403.9083941215951 306.6666549220231 366.58839308621685 319.99998862526644 368.1883931306061C333.33332232850984 369.7883931749953 338.6666558098072 410.1883942958227 351.99998951305054 411.38839432911465C365.33332321629393 412.5883943624065 370.6666566975913 373.2483932709869 383.9999904008347 373.94839329040724C397.3333241040781 374.6483933098275 402.66665758537545 415.24839443620357 415.99999128861884 414.74839442233196C429.3333249918621 414.24839440846034 434.66665847315954 368.348393135045 447.9999921764029 371.5483932238234C461.3333258796463 374.7483933126018 466.6666593609436 427.6083947791102 479.99999306418704 430.1083948484683C493.33332676743044 432.60839491782644 498.6666602487278 382.9483935400965 511.99999395197113 383.54839355674244C525.3333276552146 384.1483935733884 530.666661136512 434.5883949727581 543.9999948397553 432.9883949283689C557.3333285429986 431.3883948839797 569.3333288759177 387.768393673819 575.9999957275394 375.86839334367426 " transform="rotate(48, 400, 400)"></path><path d="M234.99998588562016 420.57661924294746C241.2499860590155 409.8891189464414 252.49998637112708 372.8391179185539 264.99998671791775 369.2766178197185C277.4999870647084 365.71411772088317 282.49998720342467 403.2891187633359 294.99998755021534 403.47661876853783C307.499987897006 403.6641187737397 312.4999880357223 368.6766178030726 324.999988382513 370.1766178446875C337.49998872930365 371.6766178863023 342.49998886801995 409.55161893707805 354.9999892148106 410.67661896828923C367.4999895616013 411.8016189995004 372.49998970031754 374.92036797629453 384.9999900471082 375.576617994501C397.4999903938989 376.2328680127075 402.49999053261513 414.29536906868515 414.9999908794058 413.82661905568045C427.49999122619647 413.3578690426758 432.4999913649127 370.32661784884897 444.9999917117034 373.3266179320787C457.49999205849406 376.32661801530844 462.4999921972103 425.88286939016007 474.999992544001 428.2266194551833C487.4999928907917 430.57036952020655 492.49999302950795 384.0141182285847 504.9999933762987 384.5766182441903C517.4999937230893 385.1391182597959 522.4999938618056 432.426619571705 534.9999942085963 430.9266195300901C547.4999945553868 429.42661948847524 558.7499948674986 388.53286835394954 564.9999950408939 377.3766180444389 " transform="rotate(45, 400, 400)"></path><path d="M245.9999858093262 419.2048419564629C251.83331930449518 409.2298416797239 262.33331959579937 374.6498407203622 273.9999865861373 371.32484062811585C285.66665357647526 367.99984053586957 290.33332037261044 403.06984150882545 301.9999873629484 403.2448415136805C313.6666543532864 403.4198415185356 318.3333211494216 370.76484061257963 329.9999881397595 372.1648406514202C341.66665513009747 373.5648406902608 346.33332192623266 408.9148416709848 357.9999889165706 409.9648417001152C369.66665590690855 411.01484172924563 374.3333227030438 376.59234077425344 385.99998969338174 377.2048407912462C397.6666566837197 377.81734080823895 402.3333234798548 413.34234179381804 413.9999904701928 412.9048417816804C425.6666574605308 412.4673417695427 430.33332425666595 372.30484065530425 441.99999124700395 375.1048407329854C453.66665823734184 377.9048408106665 458.3333250334771 424.1573420938613 469.999992023815 426.34484215454967C481.66665901415297 428.53234221523803 486.33332581028816 385.0798410097243 497.99999280062616 385.60484102428956C509.6666597909641 386.12984103885475 514.3333265870992 430.26484226330325 525.9999935774372 428.8648422244627C537.6666605677751 427.46484218562216 548.1666608590793 389.2973411267315 553.9999943542483 378.8848408378549 " transform="rotate(42, 400, 400)"></path><path d="M256.99998573303225 417.83307420672145C262.41665254997486 408.57057394974953 272.1666528204716 376.46057305891367 282.9999864543569 373.3730729732564C293.8333200882421 370.2855728875991 298.1666535417962 402.85057379105814 308.99998717568144 403.0130737955664C319.83332080956666 403.1755738000747 324.1666542631208 372.8530729588299 334.999987897006 374.1530729948961C345.8333215308913 375.45307303096234 350.1666549844454 408.27807394163466 360.99998861833063 409.2530739686843C371.8333222522159 410.228073995734 376.16665570577 378.2643231089556 386.99998933965526 378.83307312473454C397.8333229735405 379.40182314051356 402.1666564270946 412.3893240556941 412.9999900609798 411.9830740444234C423.83332369486504 411.5768240331527 428.1666571484192 374.28307299850275 438.9999907823044 376.8830730706352C449.83332441618967 379.4830731427677 454.16665786974374 422.43182433430576 464.999991503629 424.46307439065924C475.8333251375143 426.4943244470127 480.1666585910683 386.1455733276071 490.99999222495364 386.63307334113193C501.83332585883886 387.12057335465676 506.166659312393 428.10307449164463 516.9999929462782 426.80307445557844C527.8333265801634 425.5030744195122 537.5833268506601 390.0618234362566 542.9999936676028 380.39307316801404 " transform="rotate(39, 400, 400)"></path><path d="M267.9999856567383 416.4612931055396C272.99998579545456 407.9112928683348 281.9999860451438 378.27129204602477 291.99998632257643 375.42129196695646C301.9999866000089 372.5712918878882 305.99998671098194 402.6312927218504 315.9999869884145 402.7812927260119C325.99998726584704 402.93129273017337 329.99998737682006 374.94129195363973 339.99998765425255 376.1412919869316C349.9999879316851 377.34129202022353 353.9999880426581 407.6412928608441 363.99998832009067 408.54129288581305C373.9999885975232 409.44129291078195 377.9999887084962 379.93629209221723 387.9999889859287 380.4612921067825C397.9999892633613 380.9862921213477 401.9999893743343 411.4362929661297 411.99998965176684 411.061292955726C421.9999899291994 410.6862929453223 425.9999900401724 376.2612919902608 435.9999903176049 378.6612920568446C445.99999059503745 381.0612921234284 449.99999070601046 420.70629322330973 459.999990983443 422.58129327532833C469.99999126087556 424.4562933273469 473.9999913718486 387.21129229404943 483.9999916492811 387.6612923065339C493.9999919267137 388.11129231901833 497.99999203768664 425.94129336854564 507.9999923151192 424.7412933352537C517.9999925925517 423.54129330196184 526.999992842241 390.8262923943413 531.9999929809572 381.90129214673277 " transform="rotate(36, 400, 400)"></path><path d="M279.0000008392334 415.0895272631468C283.58333429972333 407.25202704570904 291.8333345286052 380.0820262919249 301.000001449585 377.4695262194456C310.1666683705648 374.85702614696635 313.8333351389567 402.4120269114317 323.0000020599366 402.5495269152464C332.16666898091637 402.6870269190611 335.83333574930833 377.0295262072386 345.00000267028815 378.1295262377562C354.166669591268 379.22952626827373 357.83333635965994 407.0045270388426 367.00000328063976 407.8295270617308C376.1666702016196 408.65452708461896 379.8333369700115 381.608276334268 389.0000038909913 382.0895263476194C398.16667081197113 382.57077636097085 401.8333375803631 410.48327713535446 411.0000045013429 410.1395271258177C420.16667142232274 409.795777116281 423.8333381907147 378.2395262408079 433.00000511169446 380.43952630184305C442.1666720326743 382.6395263628782 445.83333880106625 418.98077737110276 455.00000572204607 420.69952741878643C464.1666726430259 422.41827746647016 467.8333394114178 388.2770265192808 477.0000063323977 388.6895265307249C486.1666732533775 389.102026542169 489.83334002176946 423.77952750423566 499.0000069427492 422.6795274737181C508.166673863729 421.5795274432005 516.4166740926108 391.590776611215 521.0000075531008 383.4095263842405 " transform="rotate(33, 400, 400)"></path><path d="M290.00000076293946 413.7177442546163C294.16666754520304 406.59274405694566 301.66666775327747 381.8927433716873 310.00000131780456 379.51774330579707C318.33333488233166 377.14274323990685 321.6666683081425 402.19274393487535 330.0000018726696 402.31774393834326C338.33333543719675 402.44274394181116 341.6666688630076 379.1177432946997 350.0000024275347 380.117743322443C358.3333359920618 381.1177433501863 361.66666941787264 406.36774405070344 370.0000029823998 407.11774407151086C378.3333365469269 407.8677440923183 381.66666997273774 383.280243410181 390.00000353726483 383.71774342231873C398.3333371017919 384.1552434344564 401.66667052760283 409.53024413844145 410.0000040921299 409.2177441297717C418.333337656657 408.90524412110193 421.6666710824679 380.2177433252173 430.00000464699497 382.21774338070384C438.3333382115221 384.21774343619035 441.6666716373329 417.2552443527581 450.00000520186006 418.81774439610695C458.3333387663872 420.38024443945574 461.666672192198 389.34274357837455 470.00000575672516 389.71774358877826C478.3333393212523 390.092743599182 481.6666727470631 421.61774447378804 490.0000063115902 420.61774444604475C498.3333398761173 419.6177444183015 505.8333400841917 392.3552436619511 510.00000686645524 384.9177434556106 " transform="rotate(30, 400, 400)"></path><path d="M301.00000068664554 412.34598031957216C304.75000079068275 405.93348014166855 311.5000009779497 383.70347952493603 319.00000118602406 381.5659794656348C326.5000013940985 379.4284794063336 329.5000014773283 401.97348003180525 337.00000168540265 402.0859800349264C344.5000018934771 402.19848003804753 347.5000019767068 381.20597945564725 355.00000218478124 382.10597948061616C362.50000239285566 383.0059795055851 365.5000024760854 405.73098013605056 373.00000268415977 406.40598015477724C380.5000028922342 407.0809801735039 383.50000297546393 384.9522295595804 391.00000318353835 385.3459795705043C398.5000033916127 385.73972958142826 401.5000034748425 408.57723021501477 409.00000368291694 408.295980207212C416.5000038909913 408.0147301994092 419.5000039742211 382.1959794831131 427.00000418229547 383.99597953305096C434.5000043903699 385.7959795829888 437.50000447359963 415.52973040789976 445.00000468167406 416.93598044691373C452.5000048897485 418.34223048592764 455.5000049729782 390.40847971095457 463.00000518105264 390.7459797203179C470.50000538912707 391.08347972968124 473.5000054723568 419.4559805168267 481.0000056804312 418.5559804918578C488.5000058885056 417.6559804668889 495.25000607577255 393.1197297861734 499.0000061798097 386.42597960046703 " transform="rotate(27, 400, 400)"></path><path d="M312.00000061035155 410.97419540369305C315.33333403616246 405.27419524555654 321.3333342026219 385.5141946973498 328.0000010542436 383.6141946446376C334.6666679058653 381.71419459192543 337.333334646514 401.75419514790025 344.0000014981357 401.85419515067457C350.6666683497574 401.9541951534489 353.3333350904061 383.2941946357598 360.0000019420278 384.0941946579544C366.6666687936495 384.894194680149 369.33333553429816 405.0941952405627 376.0000023859198 405.69419525720866C382.6666692375415 406.29419527385465 385.3333359781902 386.62419472814486 392.0000028298119 386.974194737855C398.6666696814336 387.3241947475651 401.33333642208225 407.6241953107532 408.00000327370395 407.3741953038174C414.6666701253256 407.12419529688157 417.3333368659743 384.17419466017384 424.000003717596 385.77419470456306C430.6666705692177 387.3741947489523 433.33333730986635 413.80419548220647 440.00000416148805 415.05419551688556C446.66667101310975 416.3041955515646 449.3333377537584 391.4741948626996 456.0000046053801 391.7741948710226C462.6666714570018 392.07419487934555 465.3333381976505 417.29419557903043 472.0000050492722 416.49419555683585C478.66667190089385 415.6941955346412 484.6666720673534 393.88419492956086 488.0000054931642 387.9341947644885 " transform="rotate(24, 400, 400)"></path><path d="M323.0000005340576 409.602425746603C325.9166672816421 404.61492560823353 331.1666674272942 387.32492512855265 337.0000009224632 385.66242508242954C342.83333441763216 383.99992503630637 345.1666678156997 401.5349255227843 351.0000013108687 401.62242552521184C356.8333348060377 401.70992552763937 359.16666820410535 385.3824250746614 365.0000016992743 386.0824250940817C370.8333351944433 386.782425113502 373.16666859251086 404.45742560386395 379.00000208767983 404.98242561842915C384.8333355828488 405.5074256329944 387.1666689809164 388.2961751554983 393.0000024760854 388.60242516399467C398.83333597125437 388.90867517249103 401.16666936932194 406.6711756652806 407.00000286449097 406.45242565921177C412.83333635965994 406.23367565314294 415.1666697577275 386.1524250960237 421.0000032528965 387.5524251348643C426.83333674806545 388.9524251737048 429.1666701461331 412.07867581530223 435.00000364130204 413.17242584564644C440.833337136471 414.2661758759906 443.16667053453864 392.53992527323373 449.0000040297076 392.80242528051633C454.8333375248766 393.0649252877989 457.16667092294415 415.1324259000232 463.0000044181131 414.4324258806029C468.8333379132821 413.73242586118266 474.0833380589342 394.6486753317373 477.0000048065187 389.442425187299 " transform="rotate(21, 400, 400)"></path><path d="M334.0000004577637 408.2306446454212C336.5000005271218 403.95564452681873 341.00000065196645 389.13564411566375 346.00000079068275 387.7106440761296C351.000000929399 386.28564403659544 353.0000009848855 401.31564445357657 358.0000011236018 401.3906444556573C363.00000126231805 401.46564445773805 365.00000131780456 387.47064406947123 370.0000014565208 388.07064408611717C375.0000015952371 388.6706441027631 377.00000165072356 403.8206445230734 382.00000178943986 404.2706445355579C387.00000192815617 404.72064454804234 389.0000019836426 389.96814413876 394.00000212235886 390.2306441460426C399.00000226107517 390.4931441533252 401.0000023165617 405.7181445757162 406.0000024552779 405.53064457051437C411.0000025939942 405.3431445653125 413.00000264948073 388.1306440877818 418.000002788197 389.33064412107365C423.0000029269132 390.5306441543656 425.0000029823998 410.3531447043062 430.00000312111604 411.29064473031553C435.0000032598323 412.2281447563248 437.00000331531885 393.60564423967605 442.0000034540351 393.83064424591834C447.00000359275134 394.05564425216056 449.00000364823785 412.9706447769242 454.00000378695415 412.37064476027825C459.0000039256704 411.77064474363226 463.50000405051503 395.413144289822 466.00000411987315 390.95064416601775 " transform="rotate(18, 400, 400)"></path><path d="M344.99999656677244 406.85887403465676C347.08332995790425 403.29637393582146 350.83333006194147 390.9463735931923 354.99999684420504 389.75887356024714C359.16666362646856 388.57137352730206 360.833330339374 401.0963738747863 364.99999712163753 401.15887387652026C369.1666639039011 401.2213738782542 370.8333306168065 389.5588735546985 374.9999973990701 390.0588735685701C379.16666418133366 390.5588735824418 380.83333089423905 403.18387393270035 384.99999767650263 403.55887394310406C389.16666445876615 403.93387395350777 390.8333311716716 391.64012361243914 394.9999979539351 391.85887361850797C399.1666647361987 392.07762362457686 400.83333144910415 404.7651239765694 404.9999982313677 404.6088739722345C409.16666501363125 404.45262396789957 410.8333317265367 390.10887356995727 414.9999985088002 391.10887359770055C419.1666652910638 392.10887362544383 420.8333320039692 408.6276240837277 424.99999878623277 409.4088741054021C429.16666556849634 410.1901241270765 430.83333228140174 394.6713736965359 434.9999990636653 394.85887370173776C439.1666658459289 395.0463737069396 440.8333325588343 410.8088741442426 444.9999993410978 410.308874130371C449.1666661233614 409.8088741164994 452.9166662273986 396.1776237383242 454.99999961853035 392.45887363515396 " transform="rotate(15, 400, 400)"></path><path d="M355.9999964904785 405.4870996091952C357.66666320338396 402.6370995301269 360.6666632866137 392.75709925602354 363.99999671242455 391.8070992296675C367.3333301382354 390.85709920331135 368.66666350855974 400.8770994812988 371.9999969343706 400.92709948268595C375.33333036018144 400.9770994840731 376.6666637305058 391.64709922522854 379.9999971563166 392.04709923632583C383.3333305821275 392.4470992474231 384.6666639524518 402.54709952763 387.9999973782626 402.84709953595296C391.3333308040735 403.14709954427593 392.66666417439785 393.31209927142106 395.99999760020864 393.4870992762761C399.33333102601955 393.6620992811312 400.6666643963439 403.8120995627252 403.9999978221547 403.6870995592573C407.33333124796553 403.5620995557894 408.6666646182899 392.08709923743555 411.9999980441007 392.8870992596302C415.33333146991157 393.68709928182477 416.6666648402359 406.9020996484519 419.99999826604676 407.5270996657914C423.3333316918576 408.1520996831309 424.66666506218195 395.73709933869844 427.9999984879928 395.8870993428599C431.33333191380365 396.0370993470214 432.666665284128 408.64709969686385 435.99999870993884 408.24709968576656C439.33333213574963 407.84709967466927 442.3333322189794 396.94209937212906 443.9999989318849 393.96709928959285 " transform="rotate(12, 400, 400)"></path><path d="M366.9999964141846 404.1153223227106C368.2499964488636 401.9778222634094 370.499996511286 394.56782205783185 372.9999965806441 393.8553220380648C375.49999665000223 393.14282201829775 376.49999667774546 400.6578222267883 378.99999674710364 400.6953222278287C381.49999681646176 400.73282222886905 382.49999684420504 393.7353220347356 384.9999969135631 394.0353220430586C387.4999969829213 394.3353220513816 388.4999970106645 401.9103222615367 390.9999970800227 402.1353222677789C393.4999971493808 402.3603222740212 394.49999717712404 394.98407206938 396.99999724648217 395.1153220730213C399.49999731584035 395.2465720766626 400.4999973435836 402.8590722878581 402.9999974129417 402.7653222852572C405.4999974822998 402.67157228265626 406.4999975100431 394.0653220438909 408.9999975794012 394.6653220605368C411.49999764875935 395.26532207718276 412.49999767650263 405.17657235215313 414.99999774586075 405.64532236515777C417.4999978152189 406.1140723781624 418.49999784296216 396.802822119838 420.9999979123203 396.91532212295914C423.4999979816784 397.02782212608025 424.4999980094217 406.4853223884621 426.9999980787798 406.1853223801391C429.49999814813793 405.88532237181613 431.74999821056025 397.706572144911 432.99999824523934 395.47532208300885 " transform="rotate(9, 400, 400)"></path><path d="M378.0000001525879 402.7435507582719C378.8333335090406 401.31855071873775 380.3333335506555 396.3785505816861 382.0000002635609 395.903550568508C383.66666697646633 395.42855055533 384.3333336616285 400.4385506943237 386.0000003745339 400.46355069501726C387.66666708743935 400.48855069571084 388.3333337726015 395.8235505662886 390.0000004855069 396.02355057183723C391.66666719841237 396.2235505773859 392.33333388357454 401.27355071748934 394.00000059647994 401.4235507216508C395.6666673093854 401.5735507258123 396.33333399454756 396.65605058938485 398.00000070745295 396.7435505918124C399.6666674203584 396.8310505942399 400.3333341055206 401.9060507350369 402.000000818426 401.84355073330295C403.6666675313314 401.781050731569 404.33333421649354 396.0435505723921 406.000000929399 396.4435505834894C407.66666764230445 396.8435505945867 408.33333432746656 403.45105077790026 410.000001040372 403.76355078657C411.66666775327747 404.0760507952398 412.3333344384396 397.86855062302357 414.00000115134503 397.9435506251043C415.6666678642505 398.01855062718505 416.3333345494126 404.32355080210624 418.00000126231805 404.1235507965576C419.66666797522345 403.92355079100895 421.16666801683834 398.47105063973885 422.00000137329107 396.98355059847074 " transform="rotate(6, 400, 400)"></path><path d="M389.00000007629393 401.3717734717873C389.4166667545203 400.6592734520203 390.1666667753277 398.1892733834944 391.00000013178044 397.9517733769054C391.83333348823317 397.7142733703164 392.1666668308143 400.2192734398132 393.00000018726695 400.23177344016C393.8333335437197 400.2442734405068 394.16666688630073 397.91177337579563 395.00000024275346 398.01177337856996C395.8333335992062 398.1117733813443 396.1666669417873 400.63677345139604 397.00000029823997 400.7117734534768C397.8333336546927 400.7867734555575 398.16666699727375 398.3280233873438 399.0000003537265 398.3717733885576C399.8333337101792 398.41552338977135 400.16666705276026 400.95302346016985 401.000000409213 400.92177345930287C401.8333337656657 400.8905234584359 402.16666710824677 398.0217733788474 403.0000004646995 398.22177338439604C403.8333338211522 398.42177338994475 404.1666671637333 401.7255234816015 405.000000520186 401.8817734859364C405.83333387663873 402.03802349027126 406.1666672192198 398.93427340416315 407.0000005756725 398.9717734052035C407.83333393212524 399.0092734062439 408.1666672747063 402.16177349370446 409.000000631159 402.06177349093014C409.8333339876117 401.9617734881558 410.5833340084192 399.2355234125208 411.00000068664554 398.49177339188674 " transform="rotate(3, 400, 400)"></path></g></svg>