<svg xmlns="http://www.w3.org/2000/svg" version="1.1" xmlns:xlink="http://www.w3.org/1999/xlink" xmlns:svgjs="http://svgjs.dev/svgjs" viewBox="0 0 800 800"><defs><linearGradient x1="50%" y1="0%" x2="50%" y2="100%" id="ssscribble-grad"><stop stop-color="hsl(206, 75%, 49%)" stop-opacity="1" offset="0%"></stop><stop stop-color="hsl(331, 90%, 56%)" stop-opacity="1" offset="100%"></stop></linearGradient></defs><g fill="none" stroke-width="1.5" stroke="url(#ssscribble-grad)" stroke-linecap="round"><path d="M942.25 600.05C811.32 620.88 804.44 639.88 921.03 656.81 1087.07 673.41 1195.96 687.32 1183.55 697.94 1058.39 707.42 893.23 712.66 778.86 713.02 772.06 711.53 869.39 704.59 1011.51 692.1 1125.96 678.28 1151.45 659.79 1078.64 637.78 939.23 617.48 794.52 596.9 700.23 578.67 685.7 567.88 747.88 564.32 852.71 571 962.01 590.49 1030.91 623.27 1039.01 670.01 985.37 728.36 886.06 797.04 769.03 872.14 655.52 946.68 571.35 1016.52 525.74 1074.85 519.34 1115.36 545.49 1134.17 590.62 1128.14 648.99 1099.23 703.19 1049.19 745.05 984.05 776.72 915.3 790.09 850.35 787.53 799.8 773.52 774.17 749.2 777.28 719.48 811.11 684.66 872.38 649.91 952.86 618.26 1040.74 585.56 1122.07 558.22 1183.65 537.39 1214.22 516.56 1208.73 502.72 1167.74 494.85 1099.24 485.92 1014.68 480.7 927.66 476.23 851.46 466.66 796.55 452.39 769.85 428.6 772.97 393.37 804.8 343 857.64 275.23 922.08 197.27 990.91 107.87 1051.79 15.29 1096.82 -64.03 1122.6 -123.39 1124.26 -149.1 1102.66 -135.59 1060.38 -82.43 1001.81 1.27 933.16 88.49 858.56 159.2 785.26 185.53 718.18 150.13 659.13 55.23 612.16 -78.66 577.87 -208.27 554.81 50.32 607.65 -100.62 630.6 -258.01 644.99 -368.9 654.78 -373.87 659.58 -271.25 663.28 -116.04 662.01 1.07 656.06 5.45 649.25 -109.56 638.41 -279.73 623.95 -400.44 609.21 -395.67 591.36 -264.74 570.53 -93.69 549.7 6.06 526.38 -25.27 500.55 -165.74 474.44 -323.49 445.3 -402.18 412.82 -357.21 379.48 -214.56 342.16 -55.47 300.67 37.77 258.08 20.21 211.29 -89.03 160.8 -231.74 110.41 -330.34 57.89 -338.56 4.95 -253.22 -44.28 -112 -90.32 26.54 -130.33 114.51 -161.3 123.5 -181.97 62.28 -189.89 -43.08 -185.41 -146.9 -167.05 -213.55 -135.31 -225.87 -95.52 -178.69 -48.23 -88.58 1.76 26.34 45.82 137.62 81.2 226.16 101.79 284.39 101.72 306.06 79.87 297.79 35.52 264.2 -28.08 219.18 -105.93 173.64 -190.02 127.3 -269.74 92.77 -336.14 72.01 -379.74 59.43 -394.62 59.76 -377.88 69.79 -331.02 85.21 -262.87 105.66 -181.98 128.05 -101.54 151.87 -37.15 174.81 1.73 195.64 7.23 216.47 -23.31 234.7 -82.76 251.46 -159.97 269.64 -243.74 289.17 -318.1 313.05 -371.34 342.3 -397.13 380.56 -390.31 430.94 -352.94 489.49 -290.64 561.02 -212.13 643.45 -128.1 725.1 -47.69 805.32 19.32 873.12 66.82 915.6 91.44 927.13 92.82 901 74.01 844.57 37.37 764.3 -9.26 679.17 -59.2 618.87 -109.71 600.29 -152.38 639.91 -183.44 733.87 -202.89 863.69 -207.06 993.66 -196.75 1079.47 -173.63 1093.68 -139.07 1027.4 -96.18 910.54 -45.85 789.5 7.93 722.75 62.43 749.55 118.65 865.12 172.34 1023.1 222.27 1147.62 270.86 1178.74 314.8 1097.26 354.08 949.92 391.52 817.22 424.87 780.29 454.68 867.02 483.35 1030.9 509.42 1175.48 533.4 1210.94 557.04 1113.3 579.21 942.25 600.05Q942.25 600.05 942.25 600.05" opacity="0.65"></path><path d="M906.67 504.06C780.51 523.66 762.32 539.33 858.01 551.06 1043.36 570.85 739.93 558.43 862.61 541.62 1045.24 525.44 981.04 502.82 782.48 506.68 677.86 520.1 637.09 542.64 663.31 575.7 743.18 618.66 843.25 671.75 930.44 733.67 984.34 800.06 987.6 869.34 943.43 937.03 860.9 997 759.47 1046 658.26 1079.12 566.8 1093.37 499.94 1086.84 460.14 1059.24 445.85 1015.22 453.1 957.48 473.63 892.66 506.27 831.36 539.81 779.37 568.77 744.85 597.74 735.07 617.46 751.61 627.48 794.4 634.92 859.08 633.77 937.93 625.39 1020.5 616.01 1095.09 601.2 1150.89 581.59 1178.73 561.99 1174.58 538.05 1138.66 509.24 1077.36 479.43 999.88 442.95 917.32 398.54 841.04 351.54 780.36 295.5 742.44 230.96 730.33 166.43 744.78 98.07 781.3 31.45 833.29 -23.05 895.58 -63.43 957.68 -81.33 1011.94 -73.72 1054.64 -38.12 1079.01 23.11 1083.34 94.11 1068.44 166.36 1035.11 220.83 987.18 236.95 927.62 206.77 861.85 127.17 794.67 14.28 727.95 -110.24 666.84 -213.27 613.65 -262.64 568.34 -243.7 532.97 -159.49 506.99 9.15 484.93 20.87 480.3 -184.1 488.08 -306.09 496.29 -348.97 503.14 -289.96 507.5 -68.65 509.78 -363.58 473.37 -229.32 446.15 -67.34 426.54 36.25 403.03 25.77 375.8 -90.72 348.53 -244.31 317.48 -350.46 282.88 -355.26 248.31 -255.75 210.39 -104.11 169.71 28.91 129.78 82.41 88.1 39.87 45.92 -75.18 6.47 -204.46 -31.27 -290.49 -65.39 -300.03 -93.56 -227.92 -115.16 -103.98 -128.15 31.63 -132.39 133 -126.21 174.64 -108.95 151 -83.82 77.88 -49.64 -15.54 -8.61 -105.39 32.87 -162.04 74.16 -174.14 110.58 -141.42 135.36 -71.56 146.87 19.07 141.36 120.13 116.62 212.7 73.25 287.3 13.07 342.75 -58.67 374.45 -136.74 386.67 -213.4 381.84 -279.77 366.99 -329.06 348.66 -354.58 324.6 -353.55 304.37 -324.99 290.82 -271.89 277.14 -203.18 271.8 -126.4 275.02 -52.8 278.64 4.63 290.27 38.57 309.87 42.73 329.48 14.91 356.59 -38.88 391.16 -109.59 426.12 -188.29 469.09 -261.37 519.73 -318.5 570.26 -353.72 626.81 -360.92 686.44 -340.08 740.35 -294.5 790.02 -229.75 828.84 -154.08 850.61 -74.89 852.06 -1.17 828.8 60.33 786.41 105.43 725.1 130.97 654.26 137.13 593.82 124.44 553.13 97.27 548.45 60.45 588.58 15.92 672.14 -28.88 787.67 -69.57 974.3 -133.73 707.94 -86.48 708.36 -32.27 811.86 10.44 957.11 54.95 1086.56 99.42 1143.5 145.53 1102.8 189.7 980.85 231 840.28 272.31 750.1 310.16 762.42 344.29 876.11 378.09 1035.46 408.3 1155.87 434.9 1170.28 461.35 1068.72 484.44 906.75 504.05Q906.67 504.06 906.67 504.06" opacity="0.62"></path><path d="M871.17 357.77C750.19 376.15 722.12 390.43 797.18 400.81 1021.82 420.02 704.15 424.58 731.78 423.95 840.6 426.97 962.59 432.34 1049.73 441.6 1072.73 456.56 1022.11 477.51 917.65 505.7 789.4 540.91 676.81 583.98 607.18 634.72 592.64 690.33 630.48 750.94 702.58 814.09 791.51 875.08 869.67 932.41 920.23 982.1 937.12 1020.01 915.82 1043.91 863.94 1051.01 788 1041.41 702.05 1014.57 617.43 972.21 536.69 920.46 470.52 862.14 420.57 803.62 373.05 735.4 347.91 717.5 349.87 780.98 354.4 847.22 355.29 923.21 350.63 999.95 346.52 1067.79 335.6 1118.01 317.22 1143.23 298.84 1140.29 273.43 1109.16 241.74 1054.87 210.6 984.71 174.43 907.58 135.23 832.97 99.2 768.9 63.96 722.32 33.51 697.1 11.97 695.18 1.39 714.62 6.02 751.34 24.12 802.07 59.22 858.6 109.79 914.3 164.22 965.84 220.87 1005.81 268.48 1031 292.04 1041.09 285.98 1034.03 242.79 1011.33 165.94 974.85 62.54 927.45 -50.48 872.87 -146.67 812.72 -207.45 751.65 -214.61 692.64 -166.69 635.79 -74.56 584.73 34.54 540.38 119.86 501.78 152.67 470.34 113.27 445.33 9.73 425.92 -127.22 411.42 -249.52 400.48 -309.48 393.29 -283.71 387.75 -180.15 382.59 -20.69 368.17 -327.9 325.17 -193.82 299.45 -41.15 281.07 64.53 259.43 72.76 234.84 -18.47 210.4 -160.39 183.31 -282.98 154.17 -331.09 125.71 -281.66 95.98 -159.43 65.9 -15.39 37.71 90.33 10.61 120.11 -14.05 67.19 -34.97 -40.91 -51.54 -158.2 -62.31 -243.69 -67.49 -263.8 -65.34 -214.73 -55.07 -111.54 -39.06 13.1 -15.36 124.73 15.18 199.7 47.89 222.01 83.72 195.3 119.78 129.46 150.28 47.7 174.74 -28.68 189.52 -88.39 190.52 -115.91 177.12 -109.84 147.9 -73.06 103.58 -12.6 45.79 60.78 -22.12 143.26 -94.22 222.22 -165.73 291.91 -229.94 354.43 -280.13 403.41 -311.55 440.21 -320.01 468.5 -305.17 488.32 -267.37 503.12 -210.41 513.7 -142.9 523.42 -71.17 534.71 -4.65 544.99 46 558.88 75.28 577.26 78.23 595.64 53.03 618.08 4.68 643.59 -59.51 668.11 -132.61 693.66 -203.19 717.75 -262.35 744.74 -314.36 745.32 -265.37 706.49 -177.7 668.66 -105.71 620.76 -32.41 568.46 35.73 525.25 94.49 494.07 139.15 485.61 167.89 507.84 179.93 562.71 176.5 648.71 160.3 751.39 132.33 858.4 97.93 948.34 61.04 999.16 21.98 999.82 -13.38 946.57 -42.7 856.65 -67.14 752.47 -82.85 668.4 -89.73 638.44 -89.6 676.34 -81.26 778.21 -66.04 911.89 -45.13 1034.99 -19.43 1101.4 9.39 1085.13 41.55 991.39 74.84 857.73 107.96 745.85 142.53 705.16 175.67 760.33 206.6 889.99 237.96 1037.33 266.54 1132.24 291.9 1127.69 317.33 1023.91 339.38 871.25 357.76Q871.17 357.77 871.17 357.77" opacity="0.26"></path><path d="M837.14 231.71C721.17 248.86 683.78 263.57 738.1 276.04 859.68 288.71 992.84 299.54 1081.3 309.05 1017.11 330.61 759.05 352.38 647.98 381.8 800.45 424.52 999.13 485.51 1007.93 569.21 817.37 666.6 610.23 777.25 542.89 885.08 633.16 966.29 776.79 1006.8 863.86 990.14 859.95 924.8 768.36 823.34 645.52 720.98 509.78 665.56 404.18 679.67 331.81 770.27 299.88 836.32 273.56 908.37 251.33 978.86 230.01 1039.98 211.07 1084.84 193.91 1107.55 176.75 1105.69 161.8 1079.06 149.69 1031.55 138.51 968.85 131.91 897.92 131.48 826.53 139.15 708.9 182.33 657.35 258.61 679.77 321.99 763.28 357.08 865.9 308.11 949.01 168.16 994.68 -24.72 984.35 -159.96 927.12 -137.59 834.92 28.86 728.56 183.69 626.58 139.17 531.06 -90.27 455.19 -267.9 398.1 -181.97 353.28 56.55 319.46 107.5 289.95 12.41 276.58 -125.78 262.87 -250.76 248.3 -308.47 233.97 -272.82 218.32 -156.85 201.17 -13.78 184.01 91.67 165.75 115.24 146.67 48.6 127.82 -75.94 108.61 -203.63 89.63 -179.07 40.13 1.11 18.49 -222.21 70.81 -127.98 119.9 90.33 177.01 247.53 224.25 254.35 236.52 142.74 206.18 21.55 124.8 -50.43 5.97 -29.52 -127.42 51.23 -236.09 170.47 -283.67 283.75 -251.66 371.12 -147.28 413.17 -82.51 448.25 -16.64 476.81 42.66 504.79 86.79 527.27 111.69 544.43 113.56 561.58 90.87 573 47.76 578.44 -9.96 583.29 -77.05 581.14 -144.06 571.45 -203.49 548.78 -280.87 497.91 -275.46 438.14 -194.91 416.84 -67.4 452.43 64.82 577.31 165.9 751.38 218.29 912.24 218.47 950.39 182.23 838.16 119.38 660.52 57.99 602.02 13.47 757.4 -17.33 995.52 -21.83 1054.05 -5.09 866.43 24.93 677 65.57 770.16 108.72 904.48 131.56 1034.07 153.65 1104.1 174.4 1083.93 195.35 980.21 214.55 837.14 231.71Q837.14 231.71 837.14 231.71" opacity="0.50"></path><path d="M800.17 187.25C648.5 219.11 789.04 251.33 1015.01 285.92 1032.74 323.64 817.78 369.39 627.16 427.33 654.49 493.53 842.87 575.14 980.28 669.59 941.94 762.78 759.22 852.78 576.72 923.38 492.64 960.12 533.96 954.46 634.91 901.91 745.67 821.18 799.53 726.39 792.57 649.08 740 624.12 663.25 662.69 589.95 762.29 510.83 893.36 452.59 1012.44 420.73 1072.23 388.87 1049.31 384.9 952.35 403.94 821.69 417.15 701.69 435.94 630.37 433.31 622.06 385.05 674.13 278.72 759.27 118.86 846.05 -31.19 917.87 -118.25 949.37 -75.93 938.31 64.81 890.83 209.75 816.2 214.92 730.34 44.33 636.6 -172.61 550.21 -223.29 476.66 -56.02 408.69 140.79 353.65 110.77 309.05 -127.49 267.22 -274.49 231.11 -122.82 199.24 115.67 167.38 110.54 141.29 -112.35 123.03 -198.08 106.08 138.27 152.67 -103.69 214.27 -179.07 251.03 -74.49 279.92 114.86 285.66 277.12 254.97 325.53 185.7 278.01 80.72 172.77 -39.24 82.86 -152.95 40.07 -228.38 35.91 -243.44 71.55 -190.27 121.51 -82.57 182.63 35.78 233.92 126.3 265.79 149.23 297.65 89.47 308.57 -23.14 307.53 -141.92 317.65 -229.24 339.96 -249.69 399.32 -201.39 497.3 -100.73 639.68 22.62 794.03 136.53 890.68 222.26 888.04 265.7 767.56 270.73 619.94 241.89 553.11 197.64 661.62 153.56 877.79 108.2 1024.34 79.06 947.32 68.06 735.94 65.34 633.69 77.54 791.82 99.9 1027.04 125.39 1038.71 155.38 800.25 187.24Q800.17 187.25 800.17 187.25" opacity="0.62"></path><path d="M764.67 245.42C614.11 274.83 716.31 312.55 934.88 358.83 1023.06 406.74 881.86 465.68 665.05 535.57 569.6 606.85 664.18 685.91 835.09 765.9 943.22 834.01 899.29 887.07 748.8 912.87 571.41 907.61 459.18 866.92 433.75 794.97 482.63 714.61 560.27 638.06 625.69 590.38 680.15 594.08 698.43 652.08 689.78 755.97 670.65 878.26 642.1 984.12 612.69 1036.73 583.28 1018.51 554.41 935.13 518.07 817.28 471.26 699.44 399.48 614.45 294.05 579.61 177.67 598.88 51.59 657.57 -42.6 733.08 -62.5 812.66 7.5 870.39 146.35 897.02 258.29 894.91 267.36 862.38 128.6 809.57 -72.92 740.81 -193.87 667.36 -119.98 597.56 75.26 526.29 199.72 464.33 100.19 413.44 -129.71 363.49 -237.88 323.57 -87.32 294.16 138.75 264.75 167.63 247.23 -17.47 241.72 -202.44 237.14 -178 245.6 19.73 265.9 213.34 297.25 -105.69 335.85 -55.41 294.57 109.84 229.41 269.55 136.81 365.33 26.61 387.13 -79.51 350.79 -164.59 296.96 -205.43 231.64 -192.15 190.56 -123.91 177.94 -17.43 172.31 89.07 186.89 166.49 216.29 184.73 245.7 132.15 288.54 32.25 349.63 -78.68 417.71 -171.24 512.27 -212.5 628.56 -194.66 733.36 -125.44 818.15 -22.52 841.7 88.46 791.27 191.03 673.79 266.6 547.07 310.41 507.5 323.16 597.93 312.33 793.33 289.55 957.97 254.89 969.3 224.26 804.82 203.94 624.74 182.3 1002.22 206.16 764.75 245.41Q764.67 245.42 764.67 245.42" opacity="0.41"></path><path d="M729.17 378.3C581.76 405.26 647.56 443.18 845.17 490.75 983.44 538.19 929.09 594.45 740.93 656.3 568.08 714.09 537.05 770.95 640.94 819.2 798.83 851.74 892.73 864.22 876.83 850.13 764.8 814.53 614.34 755.36 484.73 681.53 380.48 589.54 420.14 611.31 454.61 750.91 473.43 862.64 470.12 955.42 443.16 1001.23 416.2 987.24 366.88 916.88 297.22 812.88 228.6 701.21 146.17 608.82 66.11 553.3 14.09 542.04 1.03 570.04 48.07 623.23 136.12 693.54 247.88 758.92 324.58 807.4 305.15 839.66 179.29 846.31 -6.67 831.09 -138.63 799.22 -131.77 754.74 21.31 705.34 189.71 649.98 228.71 597.28 80.04 551.46 -127.97 504.86 -199.23 467.18 -51.82 440.22 188.92 405.78 -150.08 390.86 -61.03 401.33 140.63 404.01 268.85 404.1 253.49 394.43 122.57 368.1 -17.83 322.76 -82.89 255.17 -48.93 171.36 64.91 74.02 201.64 -24.36 332.24 -105.63 418.07 -157.81 460.84 -166.32 470.8 -130.57 463.43 -53.54 458.07 47.71 446.81 141.31 452.03 206.23 478.99 220.23 505.94 174.45 553.35 87.14 615.45 -14.19 699.86 -135.73 748.1 -98.23 638.35 33.9 543.16 135.8 468 226.94 469.34 297.87 569.72 347.29 742.08 373.52 901.08 382.54 892.55 369.6 596.95 333.55 842.52 333.35 993.12 336.62 941.3 351.33 729.25 378.29Q729.17 378.3 729.17 378.3" opacity="0.70"></path><path d="M693.66 521.69C551.4 546.2 584.06 578.66 750.38 617.1 914.63 654.25 942.05 694.6 822.39 733.97 573.58 779.81 657.14 793.9 818.93 744.42 847.91 695.27 797.72 635.31 700.49 574.66 577.27 530.88 466.67 509.06 383.93 519.81 320.9 567.39 283.25 646.94 259 746.51 242.34 846.35 224.77 926.35 200.26 965.73 175.75 955.49 145.47 897.38 115.91 807.82 93.93 705.66 87 611.92 107.57 542.65 147.83 506.16 218.07 503.93 303.52 529.05 362.97 577.47 377.98 633.36 316.89 685.42 188.84 733.97 28.04 766.26 -92.39 781 -105.09 783.92 1.76 771.94 168.18 749.82 269.88 720.88 228.51 688.07 54.8 655.67 -120.97 621.62 -158.59 591.32 -16.33 566.82 180.29 542.31 259.88 524.75 167.45 512.57 -16.64 498.75 -137.84 486.99 -111.63 473.45 39.89 453.1 214.67 424.72 314.09 384.03 300.08 331.51 199.54 264.04 81.1 183.38 -10.26 99.19 -30.32 14.25 13.3 -59.69 104.89 -110.33 212.21 -130.07 309.48 -111.54 400.66 -60.24 467.3 19.54 513.53 112.24 553.16 192.34 582.91 245.49 607.41 255.73 631.93 216.35 650.04 141.32 656.63 50.93 656.63 -39.18 634.58 -104.77 585.88 -134.39 531.09 -127.18 464.13 -83.38 410.29 -14.08 404.41 72.08 459.63 161.1 583.11 242.37 733.67 314.09 863.28 369.02 902.84 407.89 752.58 440.79 601.86 462.81 862.97 474 964.9 481.78 890.35 497.18 693.74 521.68Q693.66 521.69 693.66 521.69" opacity="0.53"></path><path d="M658.17 606.22C523.02 628.28 526.86 651.99 655.37 675.77 821.52 698.03 910.77 717.43 875.51 730.77 739.45 738.73 579.13 736.36 470.15 721.03 447.78 698.23 507.4 662.32 605.5 615.69 710.23 569.92 775.46 523.9 790.43 486.42 761.49 469.37 699.5 474.99 626.23 508.32 542.4 568.5 469.06 650.1 412.51 742.09 357.46 829.13 318.88 896.82 296.82 930.23 274.76 923.29 270.28 876.57 283.73 801.6 298.68 711.52 331.89 621.83 377.5 546.03 412.55 491.65 438.21 463.73 433.16 460.53 384.19 480.72 287.3 515.05 153.66 554.89 26.65 600.63 -59.11 640.16 -59.71 669.41 175.74 698.57 -111.81 645.36 19.17 612.83 199.05 590.77 294.22 568.65 248.12 545.57 96.77 520.97 -51.75 492.58 -107.3 458.18 -44.36 419.03 100.27 370.64 250.05 312.16 348.68 248.92 362.28 177.72 307.99 103.07 210.16 34.31 117.25 -26.16 57.1 -69.32 31 -89.1 46.4 -80.97 87.5 -42.76 148.1 16.86 211.14 93.98 264.96 175.55 320.82 242.02 361.25 284.27 383.3 291.23 405.36 257.84 408 194.63 393.74 116.1 381.51 32.61 358.6 -36.42 336.23 -80.45 333.35 -97.61 354.28 -83.46 414.38 -43.44 508.52 17 633.09 89.16 759.83 163.85 843.04 239.38 855.59 306.96 779.92 363.76 653.11 413.08 528.25 451.78 481.48 482.04 553.2 506.92 714.28 527.65 874.14 546.99 928.75 564.81 838.05 584.17 658.17 606.22Q658.17 606.22 658.17 606.22" opacity="0.14"></path><path d="M622.66 591.1C496.51 610.71 476.78 625.96 565.03 636.23 773.56 646.71 758.59 625.1 560.41 589.21 450.23 560.95 400.85 526.4 410.96 489.44 470.13 459.8 548.12 436.56 619.08 425.93 680.13 434.29 711.97 462.24 717.61 510.98 706.26 576.95 680.74 655.4 651.22 737.14 617.25 810.91 588.32 866.91 568.71 894.73 549.11 890.57 539.76 854.23 536.75 793.52 529.3 717.22 519.15 636.09 496.52 560.64 456.9 496.74 392.77 450.69 301.51 423.82 200.33 416.13 94.19 423.94 9.33 441.93 -26.47 470.35 -0.33 500.36 89.42 527.3 205.78 555.56 311 576.43 351.3 588.63 296.98 599.22 163.52 601.33 8.57 595.48 -87.24 588.85 -71.48 575.59 54.66 555.99 216.64 536.38 320.63 511.36 315.66 481.02 209.4 449.88 66.41 412.11 -39.55 367.55 -66.5 321.37 -2.61 268.21 117.23 209.73 253.83 152.57 358.78 94.42 410.81 40.3 408.15 -3.38 364.16 -34.43 303.52 -47.16 232.64 -40.71 177.31 -12.24 144.18 37.28 122.97 98.36 121.4 168.32 132.42 237.06 148.24 290.2 167.94 322.57 187.54 326.73 207.15 298.91 225.74 246.89 246.88 180.68 272.83 106.51 310.06 39.21 365.24 -12.38 432.34 -46.75 519.95 -57.12 621.05 -45.06 711.91 -14.01 784.07 32.47 812.44 87.8 786.14 150.45 704.45 213.16 588.27 271.64 488.82 328.85 442.49 378.91 483.78 421.22 604.1 460.82 758.24 494.03 872.1 521.76 884.68 548.46 784.71 571.49 622.74 591.09Q622.66 591.1 622.66 591.1" opacity="0.93"></path><path d="M588.23 483.52C436.33 517.84 604.51 522.56 809.85 499.38 788.14 476.02 569.94 432.41 392.84 390.6 353.95 385.58 427.71 426.02 501.19 524.9 573.55 659.46 587.41 791.76 553.1 859.1 518.78 831.03 439.56 719.79 307.73 582.81 174.8 461.64 47.49 390.34 41.41 368.04 264.44 402.78 30.37 459.46 91.23 423.58 339.91 389.27 303.42 327.02 80.18 244.49 -29.02 165.65 110.91 80.54 318.57 16.6 454.96 -6.05 458.9 28.84 415.1 124.87 343.59 236.69 317.46 334.03 351.77 362.1 386.08 294.76 477.59 176.37 608.56 66.96 711.82 -6.77 761.42 -10.82 670 39.17 507.31 125.95 403.76 223.1 538.12 305.92 786.51 388.56 836.91 449.21 588.23 483.52Q588.23 483.52 588.23 483.52" opacity="0.44"></path><path d="M551.66 335.71C448.16 367.28 755.41 341.35 543.51 337.64 377.9 371.21 297.54 441.4 278.7 547.03 297.23 665.17 306.9 771.15 277.49 823.73 248.08 805.5 182.37 721.64 112.88 608.71 80.76 492.61 115.22 401.7 242.28 345.62 373.35 319.63 426.74 314.09 299.56 311.78 81.14 317.38 -24.89 309.45 125.66 280.04 351.74 250.63 386.17 202.53 228.63 145.96 47.37 97.31 23.68 56.95 137.93 44.39 315.19 61.92 450.79 121.64 520.84 216.18 553.61 307.56 568.85 379.5 598.26 397.73 627.66 345.14 668.45 251.08 686.67 154.5 622.76 50.93 390.89 101.62 621.11 189.65 800.23 254.59 777.78 306.3 551.74 335.7Q551.66 335.71 551.66 335.71" opacity="0.21"></path><path d="M516.91 218.81C374.14 243.32 400.65 256.44 544.5 264.03 701.29 278.21 754.34 299.22 701.72 337.02 578.84 394.08 450.51 475.12 358.24 572.6 280.13 668.46 234.17 748.74 209.66 788.14 185.15 777.91 184.42 719.12 220.06 633.47 269.85 535.37 359.94 444.58 450.7 373.59 471.2 318.13 392.15 281.32 217.4 256.02 55.58 237.59 19.14 218.7 161.91 194.2 358.38 169.69 440.14 141.88 368.11 117.84 206.66 100.66 85.41 99.23 61.52 122.57 122.54 161.43 228.91 226.23 324.6 306.36 421.1 374.06 482.87 422.91 507.38 433.14 531.88 393.74 516.81 323.4 462.79 245.5 409.57 165.98 341.45 110.94 312.55 85.99 368.56 80.32 515.8 97.56 695.21 125.84 785.21 160.73 713.38 194.3 516.91 218.81Q516.91 218.81 516.91 218.81" opacity="0.33"></path><path d="M481.08 189.52C354.72 209.12 331.67 231.08 403.51 257.31 531.92 287.62 642.29 328.85 696.08 383.02 699.32 444.91 656.69 519.25 601.93 597.66 535.14 668.42 485.22 724.84 465.61 752.68 446 748.53 458.57 711.36 491.39 653.03 512.17 580.73 524.19 505.87 495.26 439.16 415.77 376.47 284.6 326.03 141.83 288.36 55.62 254.14 70.72 227.53 197.08 207.93 411.28 182.94 328.85 191.43 182 238.34 122.73 279.35 115.07 333.42 137.39 391.35 176.72 435.31 214.44 464.53 234.05 468.68 253.65 440.84 253.29 392.37 247.94 335.98 259.59 271.94 297.85 218.39 382.82 182.2 565.76 148.41 691.3 162.21 481.08 189.52Q481.08 189.52 481.08 189.52" opacity="0.35"></path><path d="M445.66 261.87C294.66 291.28 372.45 360.12 509.31 457.95 626.93 558.31 639.59 664.57 610.18 717.17 580.77 698.95 514.86 614.1 358.69 519.78 183.3 418.93 81.66 343.82 232.66 314.41 458.58 285 503.14 306.86 411.33 369.17 270.53 424.94 213.58 485.95 242.99 504.17 272.4 451.57 382.59 369.15 561.94 307.33 692.3 248.05 671.58 232.46 445.66 261.87Q445.66 261.87 445.66 261.87" opacity="0.62"></path><path d="M409.67 401.01C283.52 420.62 254.97 472.07 291.39 537.19 368.84 596.6 417.56 653.89 397.96 681.73 378.35 677.57 294.13 638.7 190.98 589.47 128.86 531.09 141.52 481.9 267.67 462.29 429.68 442.68 535.65 456.38 560.54 489.06 530.99 512.59 499.53 535.57 519.14 539.73 538.75 511.89 605.7 470.49 660.95 436.78 661.75 397.35 571.68 381.4 409.67 401.01Q409.67 401.01 409.67 401.01" opacity="0.37"></path></g></svg>