<svg xmlns="http://www.w3.org/2000/svg" width="32" height="256"><symbol id="icon-headphones" viewBox="0 0 32 32" x="0" y="0"><path d="M9 18H7v14h2c.55 0 1-.45 1-1V19c0-.55-.45-1-1-1zM23 18c-.55 0-1 .45-1 1v12c0 .55.45 1 1 1h2V18h-2z"/><path d="M32 16c0-8.837-7.163-16-16-16S0 7.163 0 16c0 1.919.338 3.759.958 5.464A7.003 7.003 0 0 0 6 31.929V18.072a6.957 6.957 0 0 0-2.742 1.012A13.09 13.09 0 0 1 3 16.5c0-7.18 5.82-13 13-13s13 5.82 13 13c0 .885-.088 1.749-.257 2.584A6.963 6.963 0 0 0 26 18.071v13.858a7.001 7.001 0 0 0 5.042-10.465c.62-1.705.958-3.545.958-5.465z"/></symbol><symbol id="icon-music" viewBox="0 0 32 32" x="0" y="0"><path d="M30 0h2v23c0 2.761-3.134 5-7 5s-7-2.239-7-5 3.134-5 7-5c1.959 0 3.729.575 5 1.501V8l-16 3.556V27c0 2.761-3.134 5-7 5s-7-2.239-7-5 3.134-5 7-5c1.959 0 3.729.575 5 1.501V4l18-4z"/></symbol><symbol id="icon-mic" viewBox="0 0 32 32" x="0" y="0"><path d="M15 22a5 5 0 0 0 5-5V5a5 5 0 0 0-10 0v12a5 5 0 0 0 5 5zm7-8v3a7 7 0 1 1-14 0v-3H6v3a9 9 0 0 0 8 8.944V30h-4v2h10v-2h-4v-4.056A9 9 0 0 0 24 17v-3h-2z"/></symbol><symbol id="icon-volume" viewBox="0 0 34 32" x="0" y="0"><path d="M27.814 28.814a1.5 1.5 0 0 1-1.061-2.56C29.492 23.515 31 19.874 31 16.001s-1.508-7.514-4.247-10.253a1.5 1.5 0 1 1 2.121-2.121C32.179 6.932 34 11.327 34 16.001s-1.82 9.069-5.126 12.374a1.495 1.495 0 0 1-1.061.439zm-5.329-2.829a1.5 1.5 0 0 1-1.061-2.56c4.094-4.094 4.094-10.755 0-14.849a1.5 1.5 0 1 1 2.121-2.121c2.55 2.55 3.954 5.94 3.954 9.546s-1.404 6.996-3.954 9.546a1.495 1.495 0 0 1-1.061.439zm-5.328-2.828a1.5 1.5 0 0 1-1.061-2.56 6.508 6.508 0 0 0 0-9.192 1.5 1.5 0 1 1 2.121-2.121c3.704 3.704 3.704 9.731 0 13.435a1.495 1.495 0 0 1-1.061.439zM13 30a1 1 0 0 1-.707-.293L4.586 22H1a1 1 0 0 1-1-1V11a1 1 0 0 1 1-1h3.586l7.707-7.707A1 1 0 0 1 14 3v26a1.002 1.002 0 0 1-1 1z"/></symbol><symbol id="icon-x"  viewBox="0 0 32 32" x="0" y="0"><path d="M32 3.223 28.777 0 16 12.777 3.223 0 0 3.223 12.777 16 0 28.777 3.223 32 16 19.223 28.777 32 32 28.777 19.223 16 32 3.223z"/></symbol><symbol id="icon-menu"  viewBox="0 0 20 20" x="0" y="0"><path d="M16.4 9H3.6c-.552 0-.6.447-.6 1s.048 1 .6 1h12.8c.552 0 .6-.447.6-1s-.048-1-.6-1zm0 4H3.6c-.552 0-.6.447-.6 1s.048 1 .6 1h12.8c.552 0 .6-.447.6-1s-.048-1-.6-1zM3.6 7h12.8c.552 0 .6-.447.6-1s-.048-1-.6-1H3.6c-.552 0-.6.447-.6 1s.048 1 .6 1z"/></symbol><symbol id="icon-checkbox" width="24" height="24" viewBox="0 0 24 24" x="0" y="0"><path d="m9.984 17.016 9-9-1.406-1.453-7.594 7.594-3.563-3.563L5.015 12zm9-14.016q.844 0 1.43.586T21 5.016v13.969q0 .844-.586 1.43t-1.43.586H5.015q-.844 0-1.43-.586t-.586-1.43V5.016q0-.844.586-1.43T5.015 3h13.969z"/></symbol><symbol id="icon-checked" width="30" height="30" viewBox="0 0 42 32" x="0" y="0"><path   stroke-width=".64" d="m6.263 15.205-.22-.21-3.307 3.132 11.651 11.114L38.864 5.89l-3.285-3.134-21.192 20.197-8.124-7.75z"/></symbol><symbol id="icon-map-pin" width="32" height="32" viewBox="0 0 32 32" x="0" y="0"><path fill="none" stroke="#9da4bd" stroke-linejoin="round" stroke-linecap="round" stroke-width="1.333" d="M26.667 13.818C26.667 21.454 16 28 16 28S5.333 21.455 5.333 13.818C5.333 8.396 10.109 4 16 4s10.667 4.396 10.667 9.818v0z"/><path fill="none" stroke="#9da4bd" stroke-linejoin="round" stroke-linecap="round" stroke-width="1.333" d="M16 18.667a4 4 0 1 0 0-8 4 4 0 0 0 0 8z"/></symbol><symbol id="icon-phone" width="32" height="32" viewBox="0 0 32 32" x="0" y="0"><path fill="none" stroke="#9da4bd" stroke-linejoin="round" stroke-linecap="round" stroke-width="1.333" d="M26.666 21.337v3.218a2.146 2.146 0 0 1-2.338 2.145 21.239 21.239 0 0 1-9.257-3.293 20.914 20.914 0 0 1-6.436-6.436 21.221 21.221 0 0 1-3.293-9.3 2.144 2.144 0 0 1 2.134-2.338h3.218a2.144 2.144 0 0 1 2.145 1.845c.136 1.03.388 2.041.751 3.014a2.144 2.144 0 0 1-.483 2.263l-1.362 1.362a17.162 17.162 0 0 0 6.436 6.436l1.362-1.362a2.146 2.146 0 0 1 2.263-.483c.973.363 1.984.615 3.014.751a2.144 2.144 0 0 1 1.845 2.177z"/></symbol><symbol id="icon-mail" width="32" height="32" viewBox="0 0 32 32" x="0" y="0"><path fill="none" stroke="#9da4bd" stroke-linejoin="round" stroke-linecap="round" stroke-width="1.333" d="M6.4 6.667h19.2c1.32 0 2.4 1.05 2.4 2.333v14c0 1.283-1.08 2.333-2.4 2.333H6.4C5.08 25.333 4 24.283 4 23V9c0-1.283 1.08-2.333 2.4-2.333z"/><path fill="none" stroke="#9da4bd" stroke-linejoin="round" stroke-linecap="round" stroke-width="1.333" d="m26.667 9.333-10.667 8-10.667-8"/></symbol><symbol id="icon-facebook" viewBox="0 0 32 32" x="0" y="0"><path d="M19 6h5V0h-5c-3.86 0-7 3.14-7 7v3H8v6h4v16h6V16h5l1-6h-6V7c0-.542.458-1 1-1z"/></symbol><symbol id="icon-instagram"  viewBox="0 0 32 32" x="0" y="0"><path d="M16 2.881c4.275 0 4.781.019 6.462.094 1.563.069 2.406.331 2.969.55a4.952 4.952 0 0 1 1.837 1.194 5.015 5.015 0 0 1 1.2 1.838c.219.563.481 1.412.55 2.969.075 1.688.094 2.194.094 6.463s-.019 4.781-.094 6.463c-.069 1.563-.331 2.406-.55 2.969a4.94 4.94 0 0 1-1.194 1.837 5.02 5.02 0 0 1-1.837 1.2c-.563.219-1.413.481-2.969.55-1.688.075-2.194.094-6.463.094s-4.781-.019-6.463-.094c-1.563-.069-2.406-.331-2.969-.55a4.952 4.952 0 0 1-1.838-1.194 5.02 5.02 0 0 1-1.2-1.837c-.219-.563-.481-1.413-.55-2.969-.075-1.688-.094-2.194-.094-6.463s.019-4.781.094-6.463c.069-1.563.331-2.406.55-2.969a4.964 4.964 0 0 1 1.194-1.838 5.015 5.015 0 0 1 1.838-1.2c.563-.219 1.412-.481 2.969-.55 1.681-.075 2.188-.094 6.463-.094zM16 0c-4.344 0-4.887.019-6.594.094-1.7.075-2.869.35-3.881.744-1.056.412-1.95.956-2.837 1.85a7.833 7.833 0 0 0-1.85 2.831C.444 6.538.169 7.7.094 9.4.019 11.113 0 11.656 0 16s.019 4.887.094 6.594c.075 1.7.35 2.869.744 3.881.413 1.056.956 1.95 1.85 2.837a7.82 7.82 0 0 0 2.831 1.844c1.019.394 2.181.669 3.881.744 1.706.075 2.25.094 6.594.094s4.888-.019 6.594-.094c1.7-.075 2.869-.35 3.881-.744 1.05-.406 1.944-.956 2.831-1.844s1.438-1.781 1.844-2.831c.394-1.019.669-2.181.744-3.881.075-1.706.094-2.25.094-6.594s-.019-4.887-.094-6.594c-.075-1.7-.35-2.869-.744-3.881a7.506 7.506 0 0 0-1.831-2.844A7.82 7.82 0 0 0 26.482.843C25.463.449 24.301.174 22.601.099c-1.712-.081-2.256-.1-6.6-.1z"/><path d="M16 7.781c-4.537 0-8.219 3.681-8.219 8.219s3.681 8.219 8.219 8.219 8.219-3.681 8.219-8.219A8.221 8.221 0 0 0 16 7.781zm0 13.55a5.331 5.331 0 1 1 0-10.663 5.331 5.331 0 0 1 0 10.663zM26.462 7.456a1.919 1.919 0 1 1-3.838 0 1.919 1.919 0 0 1 3.838 0z"/></symbol><symbol id="icon-whatsapp"  viewBox="0 0 32 32" x="0" y="0"><path d="M27.281 4.65C24.287 1.65 20.306 0 16.062 0 7.324 0 .212 7.112.212 15.856c0 2.794.731 5.525 2.119 7.925L.081 32l8.406-2.206a15.858 15.858 0 0 0 7.575 1.931h.006c8.738 0 15.856-7.113 15.856-15.856 0-4.238-1.65-8.219-4.644-11.219zm-11.212 24.4a13.17 13.17 0 0 1-6.713-1.837l-.481-.288-4.987 1.306 1.331-4.863-.313-.5a13.086 13.086 0 0 1-2.019-7.012c0-7.269 5.912-13.181 13.188-13.181 3.519 0 6.831 1.375 9.319 3.862a13.108 13.108 0 0 1 3.856 9.325c-.006 7.275-5.919 13.188-13.181 13.188zm7.225-9.875c-.394-.2-2.344-1.156-2.706-1.288s-.625-.2-.894.2c-.262.394-1.025 1.288-1.256 1.556-.231.262-.462.3-.856.1s-1.675-.619-3.188-1.969c-1.175-1.05-1.975-2.35-2.206-2.744s-.025-.613.175-.806c.181-.175.394-.463.594-.694s.262-.394.394-.662c.131-.262.069-.494-.031-.694s-.894-2.15-1.219-2.944c-.319-.775-.65-.669-.894-.681-.231-.012-.494-.012-.756-.012s-.694.1-1.056.494c-.363.394-1.387 1.356-1.387 3.306s1.419 3.831 1.619 4.1c.2.262 2.794 4.269 6.769 5.981.944.406 1.681.65 2.256.837.95.3 1.813.256 2.494.156.762-.113 2.344-.956 2.675-1.881s.331-1.719.231-1.881c-.094-.175-.356-.275-.756-.475z"/></symbol></svg>