<svg xmlns="http://www.w3.org/2000/svg" width="36" height="128"><symbol id="icon-file-music" viewBox="0 0 32 32" x="0" y="0"><path d="M28.681 7.159c-.694-.947-1.662-2.053-2.724-3.116s-2.169-2.03-3.116-2.724C21.229.137 20.448 0 20 0H4.5A2.503 2.503 0 0 0 2 2.5v27C2 30.878 3.121 32 4.5 32h23c1.378 0 2.5-1.122 2.5-2.5V10c0-.448-.137-1.23-1.319-2.841zm-4.138-1.702A27.334 27.334 0 0 1 26.811 8H22V3.189a27.334 27.334 0 0 1 2.543 2.268zM28 29.5c0 .271-.229.5-.5.5h-23a.507.507 0 0 1-.5-.5v-27c0-.271.229-.5.5-.5H20v7a1 1 0 0 0 1 1h7v19.5z"/><path d="M23.634 12.227a.999.999 0 0 0-.83-.207l-10 2a1.001 1.001 0 0 0-.804.981v7.402a5.04 5.04 0 0 0-2-.402c-2.209 0-4 1.343-4 3s1.791 3 4 3 4-1.343 4-3v-7.18l8-1.6v4.183a5.04 5.04 0 0 0-2-.402c-2.209 0-4 1.343-4 3s1.791 3 4 3 4-1.343 4-3v-10c0-.3-.134-.583-.366-.773z"/></symbol><symbol id="icon-time" viewBox="0 0 34 32" x="0" y="0"><path d="M20 2c7.732 0 14 6.268 14 14s-6.268 14-14 14v-3c2.938 0 5.701-1.144 7.778-3.222S31 18.938 31 16c0-2.938-1.144-5.701-3.222-7.778S22.938 5 20 5a10.925 10.925 0 0 0-7.778 3.222A10.922 10.922 0 0 0 9.181 14H15l-7 8-7-8h5.143C7.114 7.216 12.947 2 20 2zm6 12v4h-8V8h4v6z"/></symbol><symbol id="icon-support"  viewBox="0 0 36 32" x="0" y="0"><path d="M34 28.161a3.65 3.65 0 0 0 2 3.256v.498a7.42 7.42 0 0 1-6.414-2.251c-.819.218-1.688.336-2.587.336-4.971 0-9-3.582-9-8s4.029-8 9-8 9 3.582 9 8c0 1.73-.618 3.331-1.667 4.64a3.635 3.635 0 0 0-.333 1.522zM16 0c8.702 0 15.781 5.644 15.995 12.672A12.262 12.262 0 0 0 27 11.625c-2.986 0-5.807 1.045-7.942 2.943-2.214 1.968-3.433 4.607-3.433 7.432 0 1.396.298 2.747.867 3.993a19.66 19.66 0 0 1-2.987-.151C10.068 29.279 5.966 29.895 2 29.986v-.841C4.142 28.096 6 26.184 6 24c0-.305-.024-.604-.068-.897C2.313 20.72 0 17.079 0 13 0 5.82 7.163 0 16 0z"/></symbol><symbol id="icon-infinite"  viewBox="0 0 32 32" x="0" y="0"><path d="M24.5 23.5a7.448 7.448 0 0 1-5.303-2.197L16 18.107l-3.196 3.196c-1.417 1.417-3.3 2.197-5.303 2.197s-3.887-.78-5.304-2.197C.78 19.886 0 18.003 0 16s.78-3.887 2.197-5.304c1.417-1.417 3.3-2.197 5.304-2.197s3.887.78 5.303 2.197L16 13.892l3.196-3.196c1.417-1.417 3.3-2.197 5.303-2.197s3.887.78 5.303 2.197c1.417 1.417 2.197 3.3 2.197 5.304s-.78 3.887-2.197 5.303a7.448 7.448 0 0 1-5.303 2.197zm-3.196-4.303c.854.853 1.989 1.324 3.196 1.323s2.342-.47 3.196-1.324c.854-.854 1.324-1.989 1.324-3.196s-.47-2.342-1.324-3.196c-.854-.854-1.989-1.324-3.196-1.324s-2.342.47-3.196 1.324L18.108 16l3.196 3.197zM7.5 11.48c-1.207 0-2.342.47-3.196 1.324S2.98 14.793 2.98 16s.47 2.342 1.324 3.196S6.293 20.52 7.5 20.52a4.49 4.49 0 0 0 3.196-1.324L13.892 16l-3.196-3.196A4.49 4.49 0 0 0 7.5 11.48z"/></symbol></svg>